<?xml version="1.0" standalone="no"?>
<!DOCTYPE svg PUBLIC "-//W3C//DTD SVG 20010904//EN"
 "http://www.w3.org/TR/2001/REC-SVG-20010904/DTD/svg10.dtd">
<svg version="1.0" xmlns="http://www.w3.org/2000/svg"
 width="2316.000000pt" height="1526.000000pt" viewBox="0 0 2316.000000 1526.000000"
 preserveAspectRatio="xMidYMid meet">
<metadata>
Created by potrace 1.16, written by Peter Selinger 2001-2019
</metadata>
<g transform="translate(0.000000,1526.000000) scale(0.100000,-0.100000)"
fill="#000000" stroke="none">
<path d="M0 7630 l0 -7630 11580 0 11580 0 0 7630 0 7630 -9487 0 c-8345 -1
-9486 -2 -9469 -15 11 -8 23 -15 28 -15 4 0 8 -9 8 -19 0 -11 9 -22 19 -26 16
-5 61 -65 61 -81 0 -2 -192 -4 -427 -3 -236 0 -422 3 -415 6 6 2 12 11 12 19
0 8 10 14 25 14 14 0 48 11 75 25 27 14 54 25 60 25 6 0 28 11 49 24 21 14 54
29 72 35 22 6 -625 10 -1868 10 l-1903 1 0 -7630z m17806 6850 c18 -12 34 -23
34 -26 0 -2 -16 -10 -35 -18 -33 -14 -35 -18 -35 -63 l-1 -48 -33 38 c-32 36
-35 37 -81 30 l-48 -6 22 40 c22 38 22 42 7 72 l-17 31 44 0 c35 0 49 6 73 31
l29 31 3 -46 c3 -39 8 -48 38 -66z m-397 -4 c20 -21 27 -23 52 -14 37 13 46 5
31 -26 -8 -19 -6 -30 9 -56 l20 -32 -36 4 c-34 4 -36 2 -47 -34 -14 -48 -25
-48 -33 1 -6 36 -9 39 -48 45 l-42 7 33 28 c31 24 33 30 27 64 -8 43 2 47 34
13z m-6376 -77 c12 -7 23 -13 25 -14 2 -2 -15 -40 -38 -84 -65 -131 -155 -339
-183 -426 -35 -111 -40 -147 -23 -170 14 -20 15 -20 45 3 32 23 51 22 51 -3 0
-8 -17 -32 -38 -55 -73 -76 -149 -45 -146 61 2 54 53 209 124 374 51 120 151
325 157 325 3 0 14 -5 26 -11z m1804 -11 c26 -24 31 -76 12 -125 -18 -48 -81
-115 -170 -180 -80 -60 -88 -68 -102 -116 -8 -29 -14 -53 -13 -54 1 -1 27 2
59 6 32 4 60 4 63 -1 11 -17 -45 -58 -79 -58 -18 0 -40 -6 -49 -12 -16 -13
-103 -325 -114 -411 -6 -43 -11 -51 -40 -65 -19 -8 -37 -13 -40 -9 -10 9 31
196 75 342 l38 130 -31 3 c-56 5 -75 12 -81 32 -12 39 38 95 143 161 17 10 33
45 62 134 62 190 106 242 204 244 28 1 47 -6 63 -21z m2168 8 c18 -13 17 -19
-42 -142 -167 -353 -221 -519 -178 -554 13 -11 20 -9 40 10 23 21 55 22 55 2
0 -5 -18 -30 -41 -56 -47 -53 -87 -61 -126 -24 -31 29 -30 84 3 190 62 196
237 588 263 588 4 0 16 -6 26 -14z m270 0 c18 -13 17 -19 -42 -142 -167 -353
-221 -519 -178 -554 13 -11 20 -9 40 10 23 21 55 22 55 2 0 -5 -18 -30 -41
-56 -47 -53 -87 -61 -126 -24 -31 29 -30 84 3 190 62 196 237 588 263 588 4 0
16 -6 26 -14z m-3662 -35 c4 -4 -31 -86 -77 -182 -86 -178 -149 -335 -161
-402 -9 -49 6 -70 41 -55 17 8 28 8 35 1 26 -26 -48 -93 -102 -93 -43 0 -61
30 -57 95 3 53 2 55 -12 34 -58 -88 -126 -139 -187 -139 -24 0 -53 4 -63 10
-25 13 -43 73 -35 113 23 110 173 244 294 263 38 6 41 5 41 -18 0 -20 -7 -26
-42 -35 -103 -28 -192 -118 -186 -188 7 -82 75 -66 151 34 25 34 105 179 178
321 119 234 134 260 153 254 12 -3 24 -9 29 -13z m-2096 -223 c-4 -79 -15
-187 -25 -240 -10 -54 -17 -98 -16 -98 2 0 73 97 159 215 157 215 183 245 218
245 31 0 31 -29 -2 -143 -63 -225 -78 -378 -38 -385 30 -6 104 83 152 183 48
99 75 205 75 289 0 41 4 56 14 56 7 0 28 3 45 6 l31 7 0 -65 c0 -35 -7 -91
-15 -123 -21 -80 -93 -230 -142 -296 -53 -71 -135 -147 -167 -155 -35 -9 -80
11 -97 43 -18 34 -16 175 4 266 8 38 12 65 8 60 -5 -4 -55 -71 -114 -148 -101
-134 -181 -225 -198 -225 -4 0 -20 11 -35 24 l-28 23 27 104 c38 147 46 203
53 360 l7 139 45 0 45 0 -6 -142z m4226 114 c42 -37 4 -128 -92 -214 -29 -27
-56 -48 -61 -48 -4 0 -15 9 -24 19 -17 19 -17 20 9 37 28 18 75 91 75 117 0
43 -55 31 -117 -26 -58 -53 -77 -94 -62 -137 10 -26 27 -38 115 -81 74 -35
108 -57 116 -74 9 -20 18 -25 50 -25 34 0 38 -3 38 -25 0 -22 -4 -25 -34 -25
-30 0 -34 -3 -39 -35 -24 -146 -332 -335 -481 -294 -65 18 -92 79 -61 138 38
75 201 174 344 210 l75 18 -30 15 c-16 8 -55 25 -87 38 -75 29 -107 67 -107
126 0 76 56 154 160 223 103 70 168 83 213 43z m-7794 9 c11 -7 5 -28 -32
-113 -38 -83 -87 -211 -87 -224 0 -1 10 -4 23 -6 18 -2 23 -10 25 -40 l3 -38
-41 0 c-49 0 -58 -17 -68 -130 l-7 -75 -33 -3 c-23 -2 -34 1 -39 14 -6 16 7
115 23 171 6 22 5 23 -57 17 -104 -9 -101 -7 -141 -87 -70 -142 -198 -247
-320 -263 -74 -10 -110 11 -131 77 -12 37 16 103 65 152 53 53 192 125 288
149 l55 14 47 95 c26 52 68 118 93 147 l47 52 -34 0 c-18 0 -55 -6 -83 -14
-148 -39 -208 -117 -156 -203 19 -30 19 -32 2 -47 -25 -23 -35 -20 -70 19 -41
48 -57 102 -42 148 23 70 132 141 263 172 63 15 212 20 242 9 32 -12 15 -46
-58 -117 -55 -55 -82 -90 -110 -148 -20 -42 -36 -79 -36 -83 0 -7 117 1 150
10 9 2 31 47 53 106 21 57 55 136 78 176 39 71 56 83 88 63z m2529 -50 c10 -6
4 -27 -27 -96 -23 -48 -41 -89 -41 -91 0 -2 21 -4 48 -6 43 -3 47 -5 50 -30 3
-27 2 -28 -45 -28 -80 0 -90 -6 -114 -69 -52 -136 -25 -208 57 -154 23 15 26
15 42 0 15 -16 14 -19 -13 -48 -56 -59 -123 -74 -169 -38 -22 17 -26 28 -26
74 0 43 21 134 47 201 4 10 -2 11 -29 4 -54 -16 -68 -13 -68 14 0 25 20 35 98
51 30 6 37 16 87 116 55 109 69 122 103 100z m8952 -28 c0 -12 -122 -165 -207
-258 -10 -11 -40 -47 -68 -80 -27 -33 -52 -62 -55 -65 -3 -3 -75 -86 -160
-185 -186 -216 -361 -418 -369 -425 -4 -3 -33 -35 -65 -72 -32 -38 -64 -68
-71 -68 -14 0 -45 43 -45 62 0 29 326 396 757 853 242 257 283 291 283 238z
m-8576 -154 c3 -3 3 -15 -1 -27 -4 -19 -12 -22 -52 -22 -53 0 -91 -21 -91 -51
0 -11 18 -54 40 -96 33 -61 40 -83 34 -107 -22 -107 -181 -132 -253 -40 -26
33 -26 46 0 62 18 11 24 9 55 -18 52 -46 104 -37 104 18 0 13 -18 54 -40 91
-62 104 -51 157 38 186 42 13 154 16 166 4z m5124 -14 c7 -14 12 -53 12 -86
l0 -61 63 65 c89 92 164 111 218 54 18 -19 20 -31 16 -87 -10 -147 -125 -270
-253 -270 -68 0 -82 11 -61 44 14 21 22 24 52 19 48 -8 92 13 126 60 52 72 60
145 18 167 -74 40 -228 -193 -329 -498 l-43 -134 -31 6 c-49 10 -57 -28 69
326 90 253 100 299 75 365 -9 25 -8 31 6 42 27 20 50 15 62 -12z m1580 16 c24
-15 10 -46 -23 -49 -124 -11 -134 -28 -76 -137 23 -43 41 -89 41 -102 0 -126
-196 -157 -264 -42 -16 26 -15 28 5 43 21 14 25 13 60 -14 39 -31 77 -38 97
-18 21 21 13 49 -30 122 -68 114 -51 171 57 197 43 10 118 10 133 0z m-8253
-130 c-40 -53 -93 -134 -117 -181 -37 -72 -47 -85 -68 -85 -32 0 -47 31 -60
126 -5 41 -13 87 -16 102 l-6 29 -23 -22 c-12 -11 -46 -68 -74 -126 -44 -90
-55 -104 -76 -104 -37 0 -53 34 -70 155 -8 61 -20 132 -26 159 -9 39 -9 50 2
57 14 9 59 13 59 5 0 -5 38 -194 45 -225 5 -21 10 -18 42 37 45 76 119 171
139 179 30 11 46 -23 60 -128 7 -57 14 -106 14 -108 0 -2 19 25 42 60 24 35
72 94 107 132 60 63 65 66 82 51 17 -15 14 -21 -56 -113z m-577 92 c3 -19 -1
-23 -25 -23 -71 0 -207 -95 -233 -164 -21 -57 17 -98 68 -72 28 14 107 94 152
154 23 30 27 32 45 19 19 -15 19 -16 -12 -113 -50 -158 -49 -144 -8 -132 19 6
38 9 41 5 14 -14 -7 -37 -44 -48 -38 -11 -39 -12 -57 -93 -25 -112 -78 -212
-132 -250 -81 -56 -181 -34 -198 44 -20 91 63 202 204 273 l84 42 18 63 18 64
-42 -46 c-107 -114 -247 -108 -247 11 0 74 53 157 138 215 106 73 223 99 230
51z m1259 -43 l-6 -71 52 56 c42 43 59 55 83 55 45 0 68 -30 61 -79 -11 -82
-82 -137 -82 -64 0 93 -62 45 -135 -104 -28 -59 -54 -110 -56 -112 -6 -6 -64
21 -64 30 0 5 16 47 36 95 23 55 38 113 44 165 11 94 13 99 47 99 l26 0 -6
-70z m2539 5 c-4 -36 -9 -73 -13 -82 -3 -10 9 3 27 28 58 81 121 109 162 72
33 -30 18 -103 -31 -147 -27 -25 -49 -8 -43 33 2 16 -1 32 -7 36 -25 15 -61
-29 -120 -145 -34 -66 -64 -120 -67 -120 -3 0 -18 7 -34 15 l-29 15 30 65 c38
85 59 166 59 231 0 54 6 62 49 63 23 1 24 0 17 -64z m4132 49 c15 -11 22 -25
22 -50 0 -53 -63 -115 -172 -168 -83 -41 -87 -44 -70 -60 26 -23 61 -20 115 8
40 21 47 23 58 10 29 -35 -97 -114 -183 -114 -89 0 -139 81 -108 174 14 43
109 150 154 173 79 42 149 52 184 27z m-6918 -13 c0 -15 -15 -24 -67 -40 -87
-27 -157 -79 -185 -135 -23 -48 -19 -89 8 -100 43 -16 154 73 208 166 23 41
33 45 61 24 18 -13 17 -16 -15 -89 -18 -41 -30 -82 -27 -91 8 -20 41 -21 57
-1 14 17 20 18 39 6 34 -22 -56 -101 -113 -101 -41 0 -66 26 -66 68 l0 34 -41
-37 c-50 -45 -95 -65 -148 -65 -104 0 -108 136 -6 248 60 67 185 131 258 132
30 0 37 -4 37 -19z m-1470 -9 c0 -13 -14 -21 -52 -30 -62 -14 -113 -59 -129
-113 -33 -110 85 -177 137 -78 16 32 16 101 0 140 -5 12 1 19 23 27 29 10 32
9 46 -18 59 -114 -48 -290 -177 -290 -46 0 -95 28 -112 65 -61 129 66 314 217
315 38 0 47 -3 47 -18z m4050 0 c0 -13 -14 -21 -52 -30 -62 -14 -113 -59 -129
-113 -33 -110 85 -177 137 -78 16 32 16 101 0 140 -5 12 1 19 23 27 29 10 32
9 46 -18 59 -114 -48 -290 -177 -290 -46 0 -95 28 -112 65 -61 129 66 314 217
315 38 0 47 -3 47 -18z m1990 -1 c0 -14 -10 -21 -37 -26 -107 -19 -171 -122
-128 -205 17 -32 62 -47 94 -31 10 6 27 31 36 56 16 42 16 62 -1 121 -5 17 0
24 25 32 27 10 32 8 43 -11 7 -12 13 -52 13 -89 0 -58 -4 -72 -30 -109 -56
-80 -131 -112 -206 -90 -60 18 -81 59 -76 141 8 125 109 229 225 230 35 0 42
-3 42 -19z m-9102 -1482 c6 -75 -43 -122 -193 -183 -38 -15 -79 -32 -90 -37
-82 -36 -208 -59 -331 -59 -79 0 -121 5 -224 25 -14 3 -56 8 -95 11 -45 4 -80
13 -97 25 -15 10 -32 19 -39 19 -13 0 -176 169 -203 211 l-18 29 643 -2 644
-3 3 -36z m7045 6 c-60 -41 -158 -138 -179 -177 -14 -28 -16 -28 -114 -28 -55
0 -100 2 -100 4 0 13 73 136 108 181 l43 55 147 0 147 0 -52 -35z m912 -22
c40 -51 105 -161 105 -177 0 -3 -44 -6 -98 -6 l-97 0 -44 60 c-39 54 -159 157
-201 173 -8 3 54 6 137 6 l153 1 45 -57z m1206 34 c-53 -27 -157 -120 -195
-176 l-29 -41 -99 0 -98 0 21 43 c27 52 71 118 111 163 l30 34 152 0 151 0
-44 -23z m873 -20 c35 -42 116 -175 116 -189 0 -5 -45 -8 -100 -8 l-99 0 -29
43 c-45 65 -166 169 -222 190 -8 3 56 6 142 6 l157 1 35 -43z m-5155 -232 c20
-55 5 -66 -88 -64 -157 4 -171 11 -144 67 l15 32 102 0 102 0 13 -35z m775 3
c9 -18 23 -43 32 -54 13 -20 13 -23 -2 -39 -14 -14 -27 -16 -68 -10 -27 3 -53
8 -58 11 -4 3 -8 32 -8 65 l0 59 44 0 c39 0 45 -3 60 -32z m306 11 c0 -11 11
-35 25 -53 14 -18 25 -43 25 -56 0 -22 -2 -23 -61 -16 -34 3 -84 6 -111 6 -62
0 -68 14 -37 85 l24 55 68 0 c61 0 67 -2 67 -21z m315 -16 c10 -21 27 -50 37
-65 10 -14 18 -36 18 -48 0 -23 -1 -23 -126 -17 -69 3 -131 10 -136 15 -7 7 3
33 33 81 l44 70 55 1 c54 0 56 -1 75 -37z m248 -18 c3 -30 2 -67 -2 -82 -7
-27 -10 -28 -72 -28 -77 0 -78 3 -16 98 29 46 48 66 63 66 18 1 22 -6 27 -54z
m500 18 c10 -21 28 -56 39 -78 18 -36 19 -42 6 -65 -13 -22 -19 -25 -64 -21
-27 1 -52 5 -56 8 -5 2 -8 47 -8 99 l0 94 33 0 c27 0 35 -5 50 -37z m267 9 c0
-20 7 -32 23 -39 12 -6 34 -34 50 -62 22 -42 25 -55 17 -72 -11 -19 -19 -20
-106 -16 -88 4 -124 15 -124 39 0 16 80 128 101 141 10 6 19 17 19 24 0 7 5
13 10 13 6 0 10 -13 10 -28z m3577 11 c34 -44 34 -51 2 -87 -29 -33 -30 -37
-15 -58 21 -29 20 -38 -3 -38 -11 0 -23 -4 -26 -10 -4 -6 6 -10 24 -10 23 0
34 -8 50 -34 12 -19 18 -41 15 -50 -4 -11 -1 -16 10 -16 9 0 16 8 16 20 0 18
4 20 33 15 28 -6 35 -2 55 24 14 20 31 31 47 31 23 0 65 34 65 52 0 4 10 9 23
9 l22 2 -22 4 c-32 6 -56 42 -41 61 27 32 52 31 86 -5 17 -19 32 -42 32 -51 0
-24 -16 -46 -28 -38 -5 3 -27 -13 -47 -35 -33 -37 -36 -45 -30 -78 15 -82 24
-198 18 -241 -6 -40 -5 -44 9 -32 13 10 16 9 21 -8 6 -25 36 -26 43 -2 3 9 14
35 24 57 17 35 18 42 4 60 -24 33 -25 40 -15 69 9 23 14 25 31 16 11 -6 20
-15 20 -21 0 -6 19 -32 41 -59 35 -42 41 -54 35 -80 -4 -21 1 -46 14 -75 11
-24 20 -60 20 -81 l0 -36 26 17 c26 17 27 17 50 -11 13 -16 23 -34 24 -40 0
-7 7 -14 15 -18 26 -10 45 5 45 36 0 25 -3 28 -21 23 -18 -6 -19 -4 -10 13 14
26 89 97 103 97 26 0 33 -34 14 -69 -12 -23 -16 -43 -11 -64 4 -18 2 -33 -5
-37 -6 -4 -16 -19 -22 -33 -14 -35 -31 -210 -29 -290 1 -35 -3 -78 -9 -97 -11
-34 -3 -73 31 -147 13 -29 46 -37 66 -17 13 13 33 4 33 -16 0 -8 10 -19 21
-26 17 -9 20 -17 16 -44 -4 -24 -1 -37 11 -48 47 -40 72 -22 72 54 0 51 22 79
61 79 17 0 30 6 33 18 4 9 15 28 26 42 l19 25 9 -24 c6 -18 11 16 16 120 7
144 19 189 50 189 7 0 19 -11 26 -25 16 -29 23 -31 44 -9 10 10 16 33 16 65 0
43 3 50 18 47 13 -3 17 -14 19 -48 3 -94 34 -200 59 -200 6 0 14 -7 18 -15 4
-12 46 -23 46 -12 0 1 -7 34 -15 72 -8 39 -15 100 -15 136 0 37 -7 83 -15 102
-8 20 -15 49 -15 65 0 16 -7 35 -15 42 -8 7 -15 20 -15 30 0 9 -22 42 -49 71
-61 66 -70 93 -41 128 11 14 33 43 48 63 15 20 32 36 37 34 6 -1 10 -43 10
-97 0 -58 5 -103 13 -116 14 -25 52 -31 52 -9 0 21 21 31 31 15 5 -8 9 -26 9
-40 0 -15 7 -32 15 -39 8 -7 15 -18 15 -25 0 -15 27 -28 41 -19 5 3 7 10 3 15
-3 6 0 24 6 40 10 24 10 35 0 54 -7 12 -10 29 -7 37 4 9 8 6 12 -9 4 -13 11
-23 16 -23 5 0 9 -6 9 -14 0 -8 11 -37 25 -64 14 -28 25 -57 25 -66 0 -8 9
-23 19 -33 20 -18 54 -102 66 -160 4 -20 13 -33 22 -33 12 0 13 3 3 15 -9 11
-9 22 1 48 17 47 -8 114 -40 109 -18 -3 -21 2 -21 29 0 18 -7 40 -14 48 -11
12 -12 21 -5 31 8 12 12 12 16 2 2 -7 10 -18 17 -25 7 -6 16 -21 20 -32 7 -19
8 -19 20 4 l13 24 12 -36 c7 -20 17 -37 22 -39 15 -5 50 -187 44 -226 -8 -43
13 -182 31 -206 18 -25 27 -16 39 40 16 73 42 50 44 -39 1 -33 4 -37 20 -32
25 7 45 -25 59 -95 15 -80 29 -111 45 -104 11 4 16 -12 21 -75 5 -50 13 -84
22 -92 8 -6 14 -22 14 -34 0 -12 7 -28 15 -35 13 -11 15 -8 15 18 0 39 18 79
38 87 34 13 44 -19 53 -167 9 -132 8 -148 -13 -216 -17 -60 -19 -80 -10 -104
9 -25 7 -36 -15 -78 -20 -39 -23 -54 -15 -77 7 -20 15 -27 30 -26 24 3 47 -30
38 -54 -4 -10 -15 -14 -31 -11 -13 3 -23 2 -22 -1 1 -7 -15 -61 -39 -128 -12
-33 -21 -43 -38 -43 -13 0 -31 -9 -41 -20 -10 -11 -28 -20 -41 -20 -13 0 -28
-9 -34 -19 -13 -26 -13 -94 2 -125 9 -22 8 -29 -6 -45 -12 -13 -14 -21 -6 -26
7 -4 3 -15 -10 -32 -11 -14 -20 -31 -20 -39 0 -7 -5 -14 -12 -16 -7 -3 -9 -14
-4 -31 5 -20 15 -29 36 -33 23 -5 28 -10 21 -23 -5 -9 -7 -21 -4 -27 2 -6 -3
-17 -12 -24 -11 -9 -12 -16 -5 -25 13 -16 2 -45 -17 -45 -8 0 -17 9 -20 20 -7
26 -33 26 -33 1 0 -11 -2 -26 -5 -33 -7 -18 83 -42 123 -33 39 8 62 -17 40
-43 -9 -9 -18 -30 -22 -45 -6 -27 -8 -28 -29 -14 -12 8 -24 26 -27 40 -7 34
-32 20 -37 -20 -2 -15 -6 -43 -9 -60 -5 -28 -3 -33 13 -33 10 0 29 7 41 16 26
18 29 3 5 -26 -18 -21 -48 -27 -58 -11 -3 5 -17 -1 -32 -15 -24 -22 -26 -28
-16 -54 14 -37 2 -144 -21 -189 -19 -37 -49 -39 -54 -4 -2 13 -9 20 -16 17 -7
-3 -11 -16 -8 -33 3 -21 -2 -31 -22 -45 -32 -20 -32 -29 -5 -55 29 -27 33 -78
7 -92 -16 -9 -24 -6 -40 11 l-20 22 -32 -44 c-17 -24 -45 -57 -63 -74 -18 -17
-35 -44 -39 -60 -3 -16 -14 -35 -22 -42 -13 -10 -14 -16 -5 -31 10 -15 5 -23
-31 -54 -30 -25 -46 -33 -54 -25 -7 7 -26 -4 -61 -37 -28 -26 -51 -52 -51 -57
0 -20 -67 -91 -100 -107 -28 -13 -35 -22 -37 -47 -1 -19 -12 -42 -30 -60 -16
-16 -34 -36 -39 -45 -5 -8 -31 -23 -57 -33 -26 -10 -61 -29 -76 -42 -16 -13
-33 -24 -39 -24 -5 0 -29 -16 -53 -35 -24 -19 -52 -35 -61 -35 -10 0 -26 -10
-37 -22 -21 -21 -81 -48 -112 -48 -8 0 -23 -16 -32 -35 -30 -64 -64 -53 -87
26 -10 38 -29 53 -54 43 -7 -3 -16 2 -20 11 -5 14 -13 11 -48 -19 -36 -31 -42
-34 -53 -20 -10 15 -15 13 -46 -13 -19 -16 -54 -42 -79 -57 -25 -16 -56 -37
-70 -46 -56 -36 -113 -60 -145 -60 -19 0 -60 13 -92 29 -52 27 -58 28 -79 14
-13 -8 -51 -17 -85 -20 -59 -6 -61 -5 -54 16 6 20 4 21 -34 15 -34 -5 -41 -4
-41 10 0 9 12 21 28 27 50 21 67 27 86 33 15 5 17 9 7 19 -9 9 -16 9 -31 -1
-32 -19 -170 -13 -170 8 0 4 11 12 25 18 14 7 30 23 37 36 6 14 23 29 37 34
14 5 39 22 55 38 35 36 116 154 116 171 0 7 17 24 37 37 30 21 34 26 19 32 -9
3 -30 4 -47 0 -40 -8 -66 7 -74 43 -7 33 -27 54 -47 50 -7 -2 -23 1 -36 5 -25
8 -52 -7 -52 -31 0 -8 11 -25 24 -38 25 -25 43 -75 26 -75 -5 0 -10 9 -10 20
0 12 -10 24 -24 30 -13 5 -31 19 -40 31 -14 20 -19 21 -48 12 -22 -6 -41 -6
-56 0 -26 12 -27 20 -7 37 8 7 15 22 15 35 0 23 22 47 54 59 15 5 16 9 6 21
-16 20 -60 20 -60 0 0 -27 -19 -16 -22 13 -2 17 -9 27 -19 27 -9 0 -42 26 -73
58 -31 31 -61 57 -66 57 -5 0 -6 15 -3 33 3 23 0 37 -11 46 -13 11 -17 9 -26
-13 -8 -21 -16 -26 -44 -26 l-34 0 1 -77 c0 -43 -4 -97 -8 -120 -7 -42 -7 -42
21 -40 39 3 40 -27 2 -31 -20 -2 -28 -9 -28 -23 0 -12 -7 -19 -19 -19 -30 0
-51 -11 -51 -27 0 -8 -12 -27 -27 -42 l-28 -28 -37 66 c-20 36 -37 75 -38 87
0 12 -12 38 -26 60 -27 40 -64 142 -64 178 0 11 -7 53 -15 91 -8 39 -15 89
-15 113 0 23 -4 42 -10 42 -5 0 -10 -4 -10 -10 0 -5 -9 -10 -20 -10 -24 0 -25
4 -4 35 16 25 16 25 -19 25 -29 0 -36 4 -39 22 -2 12 -14 28 -27 34 -26 14
-42 34 -35 46 3 4 14 2 24 -4 11 -7 22 -9 25 -6 11 11 -26 57 -48 60 -17 2
-23 12 -27 43 -3 22 -10 47 -15 55 -10 15 -15 69 -14 163 0 33 -5 49 -16 53
-21 9 -19 31 5 39 17 5 20 15 20 63 0 40 -6 64 -20 82 -14 18 -16 28 -8 38 8
9 8 20 0 38 -9 18 -9 29 -1 42 9 15 6 24 -20 49 -17 17 -31 40 -31 51 0 33
-11 53 -36 63 -28 10 -31 36 -7 54 15 11 11 35 -7 35 -11 0 -40 -58 -40 -82 0
-24 -19 -23 -52 5 -38 30 -46 117 -15 161 16 23 18 32 9 45 -7 9 -16 26 -22
39 -5 12 -14 23 -20 23 -5 1 -22 3 -37 4 -16 2 -40 6 -55 10 -24 6 -28 4 -28
-14 0 -27 -21 -27 -38 -1 -8 14 -23 20 -46 20 -30 0 -37 5 -53 38 -10 20 -28
41 -40 47 -13 5 -23 13 -23 17 0 5 -5 8 -11 8 -7 0 -17 7 -24 16 -9 14 -16 14
-33 5 -12 -6 -22 -16 -22 -21 0 -6 -15 -10 -34 -10 -33 0 -34 -1 -23 -25 7
-14 18 -23 25 -20 8 3 20 5 28 5 8 0 14 9 14 20 0 15 7 20 25 20 22 0 24 -3
15 -19 -5 -11 -15 -23 -20 -26 -20 -12 -10 -43 16 -49 l25 -7 -28 -34 c-30
-36 -60 -48 -48 -17 17 38 11 57 -17 60 -16 2 -28 9 -28 17 0 19 -36 38 -59
30 -10 -3 -23 -17 -29 -30 -15 -34 -35 -31 -49 5 -14 38 -32 38 -39 0 -8 -36
-26 -53 -48 -44 -12 5 -14 10 -6 20 8 9 8 19 0 34 -9 16 -9 34 0 71 9 38 9 53
0 63 -6 8 -10 34 -8 58 l3 43 58 3 c40 2 57 -1 57 -9 0 -7 3 -10 6 -7 10 11
-27 69 -51 80 -13 6 -29 24 -36 40 -8 19 -17 27 -26 24 -9 -4 -13 -1 -11 6 7
20 64 21 92 3 33 -22 68 -11 64 18 -3 20 -9 22 -73 22 -66 0 -70 1 -69 23 4
123 4 124 24 129 23 6 24 8 9 34 -6 12 -7 28 -3 37 4 9 6 22 5 27 -2 6 -3 31
-2 56 1 54 -20 82 -39 52 -9 -15 -10 -13 -6 12 12 67 10 102 -10 128 -10 14
-25 27 -31 27 -18 0 -16 20 2 20 24 0 17 14 -13 27 -15 7 -48 38 -74 68 -35
42 -48 66 -52 98 -2 23 -9 82 -16 131 -9 76 -9 91 4 104 13 13 18 13 40 -1 24
-16 25 -16 51 14 22 27 25 37 19 75 -7 47 -1 53 33 29 20 -14 23 -13 48 17 20
23 25 39 21 59 -3 17 0 32 10 40 21 17 57 -17 51 -48 -3 -17 0 -23 15 -23 10
0 27 -5 38 -12 16 -10 23 -9 45 12 l25 23 0 -24 c0 -14 -5 -30 -11 -36 -6 -6
-8 -16 -4 -23 5 -8 12 -5 22 9 8 12 20 21 27 21 7 0 21 9 31 20 24 26 105 29
105 4 0 -13 -3 -14 -15 -4 -14 12 -27 8 -57 -18 -13 -11 -15 -19 -7 -34 9 -16
19 -18 76 -14 63 5 67 3 92 -25 29 -32 63 -37 106 -15 15 8 33 13 39 11 56
-18 153 -36 170 -32 11 3 30 2 40 -2 17 -7 17 -9 -8 -29 -33 -25 -29 -52 10
-72 36 -20 59 -3 58 44 -1 37 17 49 33 23 4 -7 26 -26 47 -42 l39 -30 15 23
c8 12 25 22 37 22 30 0 39 27 21 55 -13 20 -13 25 -1 35 8 7 15 28 15 46 0 18
9 51 20 71 11 21 25 68 30 103 14 82 15 97 5 138 -7 29 -4 36 30 65 21 17 45
41 54 51 78 92 93 105 111 96 13 -7 20 -6 24 5 3 8 14 15 24 15 10 0 27 9 37
20 26 29 49 26 42 -6 -3 -18 0 -27 12 -32 9 -3 38 -23 64 -44 56 -44 65 -45
109 -18 18 11 42 20 52 20 33 0 56 30 56 71 0 21 -4 40 -9 43 -5 3 -14 27 -21
53 -6 27 -20 56 -31 66 -10 10 -19 27 -19 38 0 19 -4 20 -39 14 -28 -5 -40 -3
-44 7 -7 19 14 45 46 57 15 6 32 22 37 36 7 18 17 25 37 25 16 0 34 4 42 9 10
6 24 2 45 -13 49 -37 54 -38 74 -15 18 18 27 20 76 14 31 -4 66 -15 78 -25
l22 -17 -32 -17 c-36 -19 -42 -42 -12 -51 11 -4 28 -17 36 -31 17 -26 52 -32
72 -12 13 13 17 90 5 102 -4 4 -9 32 -10 62 l-2 54 71 0 c56 0 74 -4 85 -17z
m-2973 -19 c22 -21 23 -199 2 -207 -22 -9 -117 2 -132 14 -18 15 -18 45 0 52
8 3 20 17 28 30 7 13 24 44 37 68 19 36 37 58 48 59 1 0 9 -7 17 -16z m-284
-34 c0 -11 5 -20 10 -20 15 0 63 -107 56 -126 -4 -11 -13 -14 -29 -10 -12 3
-32 6 -44 6 -18 0 -23 6 -23 25 0 16 -6 25 -15 25 -18 0 -20 -27 -2 -33 21 -7
3 -17 -46 -23 -38 -5 -48 -4 -53 10 -11 28 4 59 54 114 52 55 92 69 92 32z
m-2802 -60 c14 0 22 -6 22 -17 0 -24 -62 -123 -77 -123 -14 0 -83 103 -83 124
0 22 10 25 64 21 28 -2 61 -4 74 -5z m-223 -99 c-4 -36 -10 -106 -14 -155 -3
-53 -11 -91 -18 -93 -11 -4 -93 133 -93 156 0 13 69 126 95 154 28 31 38 10
30 -62z m94 -7 c23 -41 41 -82 41 -90 0 -18 -79 -145 -100 -161 -8 -6 -18 -9
-23 -6 -9 5 -4 140 6 150 4 3 7 43 7 88 0 122 12 125 69 19z m1567 36 c40 0
43 -14 14 -68 -24 -46 -55 -82 -69 -82 -6 0 -22 21 -36 48 -14 26 -30 54 -37
63 -6 9 -8 24 -4 34 5 15 14 17 53 11 25 -3 61 -6 79 -6z m-481 -40 c14 -22
25 -44 25 -50 0 -6 12 -29 26 -51 22 -36 24 -43 11 -57 -23 -27 -87 -121 -87
-129 0 -10 -32 -43 -41 -43 -12 0 -59 77 -59 96 0 10 -11 31 -24 49 -39 51
-38 68 9 127 19 23 45 55 57 71 30 37 53 34 83 -13z m613 28 c7 -7 12 -18 12
-25 0 -8 17 -40 37 -71 70 -107 69 -95 16 -175 -26 -40 -54 -85 -62 -101 -17
-32 -30 -40 -47 -28 -19 13 -114 180 -114 201 0 26 117 211 134 211 7 0 17 -5
24 -12z m-268 -90 c18 -35 36 -67 41 -72 15 -16 10 -38 -16 -72 -14 -18 -25
-37 -25 -42 0 -6 -3 -12 -8 -14 -4 -1 -17 -15 -29 -31 l-21 -27 1 160 c1 113
5 160 13 160 7 0 26 -28 44 -62z m1032 50 c14 -13 33 -41 77 -121 27 -48 27
-47 -8 -91 -17 -21 -39 -57 -51 -80 -25 -52 -52 -79 -72 -71 -8 3 -25 25 -37
48 -12 23 -35 67 -51 97 l-29 55 20 33 c79 136 110 162 151 130z m646 -131
c17 -27 32 -57 32 -66 0 -9 -20 -47 -44 -84 -24 -36 -46 -74 -50 -82 -15 -39
-62 12 -106 113 -6 13 -14 32 -20 42 -7 14 -3 26 21 56 17 22 42 56 56 77 l24
38 27 -23 c15 -12 42 -44 60 -71z m-2713 -139 c-4 -68 -8 -157 -8 -198 -2 -57
-5 -75 -16 -75 -8 0 -19 9 -25 20 -6 10 -21 36 -34 57 -19 32 -22 47 -16 91 6
47 5 50 -8 33 -8 -10 -20 -16 -26 -12 -18 11 -14 24 8 31 11 3 20 15 20 25 0
10 4 20 8 22 9 3 29 36 57 96 8 17 23 32 32 32 14 0 15 -13 8 -122z m-892 8
l36 -69 -20 -25 c-10 -14 -19 -30 -19 -36 0 -6 -16 -31 -35 -55 -19 -24 -35
-49 -35 -54 0 -7 -4 -7 -12 1 -9 9 -7 21 9 54 18 38 19 53 12 138 -9 109 -4
149 16 128 7 -7 29 -44 48 -82z m1392 64 c8 -16 15 -34 15 -40 0 -6 15 -34 33
-63 49 -78 50 -81 14 -126 -18 -22 -48 -65 -67 -96 -47 -75 -80 -75 -58 1 6
21 11 107 11 189 0 83 2 153 4 158 9 16 33 5 48 -23z m338 -42 c15 -20 27 -43
27 -51 0 -8 7 -28 15 -43 38 -73 -4 -141 -52 -84 -35 42 -53 104 -38 133 10
21 10 26 -6 35 -12 8 -16 18 -12 29 8 22 26 35 33 25 4 -4 18 -24 33 -44z
m324 -49 c47 -82 50 -89 28 -89 -9 0 -15 -9 -15 -22 0 -17 3 -19 12 -10 12 12
48 17 48 7 0 -7 -56 -100 -98 -162 -19 -28 -40 -49 -46 -47 -7 3 -22 26 -34
52 -26 55 -39 76 -69 115 -29 36 -29 41 1 70 13 13 29 34 36 48 26 51 75 119
85 116 6 -2 29 -37 52 -78z m263 -169 c-6 -68 -14 -128 -17 -133 -8 -14 -41
23 -48 55 -4 17 -20 50 -37 74 l-30 45 24 32 c13 18 32 48 42 67 32 63 44 83
58 91 19 12 22 -77 8 -231z m511 142 c27 -50 49 -96 49 -100 0 -16 -101 -177
-116 -185 -9 -5 -20 -5 -24 -1 -9 10 5 358 15 374 13 21 27 4 76 -88z m291 33
c16 -27 32 -58 35 -67 3 -10 9 -18 13 -18 5 0 14 -16 20 -36 11 -34 10 -38
-34 -105 -25 -38 -46 -72 -46 -76 0 -14 -34 -43 -52 -43 -13 0 -28 19 -49 63
-16 34 -38 76 -49 92 -20 33 -25 70 -11 80 5 3 33 41 63 85 31 48 58 79 67 78
8 -2 27 -25 43 -53z m319 -65 c11 -19 28 -50 39 -68 20 -32 20 -32 -1 -70 -12
-20 -27 -44 -34 -52 -7 -8 -24 -35 -38 -60 -14 -25 -31 -45 -38 -45 -18 0
-109 169 -109 204 0 24 56 117 91 152 l21 21 25 -24 c14 -12 34 -39 44 -58z
m258 56 c18 -21 10 -345 -9 -356 -17 -11 -28 -4 -41 23 -5 12 -14 31 -21 42
-22 39 -28 50 -37 72 -6 11 -15 24 -20 28 -16 9 -13 52 6 83 36 59 88 122 99
122 6 0 17 -6 23 -14z m-2061 -68 c18 -23 32 -48 32 -57 0 -8 14 -30 32 -48
l32 -33 -29 -60 c-16 -33 -31 -60 -35 -60 -14 0 -30 25 -30 47 0 12 -9 37 -20
55 -11 18 -20 43 -20 54 0 12 -11 29 -25 38 -14 9 -25 22 -25 28 0 13 42 78
50 78 3 0 20 -19 38 -42z m-8096 -18 c50 -23 48 -91 -2 -134 -24 -20 -36 -23
-77 -19 -64 7 -73 16 -73 75 0 41 5 54 29 78 24 25 32 28 62 21 19 -5 46 -14
61 -21z m7237 -115 c29 -52 51 -102 49 -112 -3 -16 -16 -18 -121 -18 -65 0
-124 3 -130 7 -8 5 -8 13 1 32 21 47 123 186 136 186 7 0 36 -43 65 -95z m751
29 c0 -8 11 -30 24 -47 13 -18 27 -42 30 -53 4 -12 15 -29 26 -39 48 -44 0
-55 -159 -39 -50 6 -61 10 -61 25 0 11 5 19 10 19 6 0 15 12 21 26 5 15 23 44
39 64 17 21 30 43 30 49 0 6 9 11 20 11 11 0 20 -7 20 -16z m683 -84 c21 -44
45 -87 53 -95 31 -31 6 -37 -120 -30 -66 4 -123 9 -125 11 -2 2 10 22 27 43
18 22 32 44 32 48 0 5 9 17 21 26 11 10 25 31 31 47 17 50 40 36 81 -50z m752
-15 c17 -33 39 -74 49 -91 11 -18 16 -39 12 -49 -5 -15 -19 -16 -117 -12 -143
6 -149 12 -96 100 82 137 105 145 152 52z m570 37 c21 -15 105 -164 105 -186
0 -22 -29 -34 -70 -31 -19 2 -66 3 -103 4 -51 1 -69 5 -74 16 -8 24 104 205
127 205 3 0 10 -4 15 -8z m-2743 -139 c3 -16 -32 -79 -75 -138 -21 -28 -43
-13 -78 54 -29 53 -35 81 -22 94 3 4 44 7 89 7 71 0 83 -3 86 -17z m787 -32
c8 -15 4 -32 -20 -77 -17 -33 -37 -65 -44 -73 -17 -18 -55 -5 -55 19 0 10 -9
40 -20 66 -28 65 -27 66 117 83 7 0 17 -8 22 -18z m-707 -17 c-2 -10 -3 -91
-3 -180 1 -120 -3 -165 -13 -179 -13 -18 -15 -17 -40 10 -14 15 -26 36 -26 46
0 10 -4 21 -10 24 -5 3 -10 15 -10 27 0 11 -10 37 -21 58 l-21 38 33 47 c19
25 41 60 50 76 24 42 41 60 53 56 6 -2 10 -13 8 -23z m-340 -33 c-3 -9 -11
-20 -19 -24 -17 -10 -17 -51 0 -66 16 -12 27 -5 27 17 0 18 29 52 44 52 6 0
16 -8 21 -18 39 -73 38 -68 22 -119 -9 -27 -36 -79 -60 -116 -48 -72 -60 -74
-73 -9 -4 18 -10 32 -15 32 -5 0 -9 9 -9 21 0 11 -11 35 -25 53 -31 41 -31 56
0 103 55 85 79 113 86 101 4 -6 5 -18 1 -27z m861 -21 c15 -30 37 -70 48 -88
10 -18 19 -42 19 -53 0 -25 -129 -211 -144 -206 -14 5 -14 85 -2 270 9 131 10
138 30 135 13 -2 30 -22 49 -58z m346 -50 c62 -97 66 -111 41 -143 -11 -14
-20 -29 -20 -33 0 -4 -11 -22 -25 -40 -14 -18 -25 -36 -25 -41 0 -13 -50 -63
-63 -63 -7 0 -23 21 -36 48 -14 26 -40 72 -58 103 -18 31 -33 63 -33 71 0 8
16 37 35 64 19 27 35 54 35 60 0 5 16 28 36 50 42 45 32 52 113 -76z m514 93
c5 -3 -2 -17 -16 -32 -14 -14 -28 -35 -31 -46 -10 -30 -63 -88 -75 -81 -12 8
-41 64 -41 81 0 7 -9 24 -21 39 -18 22 -19 29 -8 42 11 13 27 15 99 9 47 -4
89 -9 93 -12z m-2303 -29 c0 -15 13 -41 30 -61 17 -18 30 -42 30 -53 0 -24
-101 -189 -125 -202 -16 -9 -17 -7 -11 28 3 22 13 95 21 164 18 145 19 150 40
150 10 0 15 -9 15 -26z m237 -31 c1 -32 2 -97 4 -145 1 -67 5 -85 15 -81 24 9
36 92 34 221 -1 50 2 62 15 62 8 0 20 -12 25 -26 6 -15 19 -39 30 -54 32 -45
25 -86 -28 -164 -26 -38 -55 -74 -64 -80 -21 -12 -36 4 -69 74 -12 25 -28 59
-36 76 -13 28 -13 35 2 70 17 41 56 104 65 104 3 0 6 -26 7 -57z m1821 27 c2
-14 12 -34 21 -45 10 -11 27 -36 37 -55 10 -19 27 -44 37 -56 17 -20 17 -22
-1 -45 -11 -13 -34 -51 -51 -84 -17 -33 -41 -68 -53 -78 -19 -16 -22 -16 -38
-2 -9 9 -26 35 -36 58 -10 23 -21 44 -24 47 -3 3 -17 23 -32 46 l-26 41 49 73
c28 40 57 86 65 102 18 35 48 34 52 -2z m777 -6 c14 -15 25 -30 25 -34 0 -5
16 -36 35 -70 19 -34 35 -69 35 -79 0 -9 -13 -32 -28 -51 -16 -19 -44 -61 -63
-93 -32 -53 -62 -78 -77 -62 -8 8 -4 341 5 370 7 25 22 45 35 45 5 0 20 -12
33 -26z m-481 -36 c-4 -7 -9 -77 -10 -156 -1 -79 -6 -148 -12 -154 -11 -11
-64 53 -102 125 l-25 46 28 29 c15 15 27 31 27 35 0 12 52 91 69 105 12 10 17
9 24 -3 4 -8 5 -21 1 -27z m775 7 c16 -8 31 -25 35 -38 3 -13 19 -41 36 -62
16 -21 30 -45 30 -53 0 -18 -106 -198 -122 -208 -14 -9 -30 14 -90 128 l-46
90 51 78 c29 44 58 79 65 79 7 1 26 -6 41 -14z m511 -7 c0 -13 -14 -45 -31
-71 -32 -51 -53 -58 -73 -22 -6 11 -18 31 -27 45 -9 14 -20 35 -23 48 -7 22
-6 22 73 22 77 0 81 -1 81 -22z m-187 -25 c78 -124 90 -160 60 -184 -9 -8 -21
-25 -27 -39 -23 -52 -68 -120 -80 -120 -7 0 -39 48 -70 106 l-58 106 31 42
c17 22 43 60 59 83 15 23 35 43 44 43 10 0 28 -17 41 -37z m287 8 c11 -21 14
-318 4 -345 -3 -9 -15 -16 -25 -16 -13 0 -29 20 -53 70 -19 38 -44 79 -55 92
-28 29 -27 40 14 104 19 30 35 57 35 60 0 2 7 16 16 29 19 30 49 32 64 6z
m-3563 -218 c61 -117 62 -100 -17 -218 -25 -38 -49 -78 -53 -87 -7 -21 -30
-23 -45 -5 -5 6 -22 37 -38 67 -15 30 -36 67 -46 82 -29 42 -22 71 38 160 73
108 75 109 92 106 9 -2 39 -49 69 -105z m606 25 c53 -82 77 -124 77 -135 0 -6
-18 -33 -40 -61 -22 -27 -40 -54 -40 -58 0 -5 -14 -28 -30 -52 l-29 -43 -24
38 c-48 76 -87 152 -87 169 0 9 18 41 40 70 22 29 40 60 40 69 0 17 11 20 27
4 7 -7 12 -1 16 20 4 17 9 31 11 31 3 0 20 -24 39 -52z m815 -41 c17 -27 32
-50 32 -53 0 -3 11 -20 25 -38 14 -18 25 -39 25 -47 0 -8 -20 -37 -45 -64 -25
-28 -48 -59 -51 -70 -9 -28 -43 -75 -55 -75 -5 0 -12 8 -16 18 -3 9 -16 28
-29 42 -30 33 -76 127 -76 156 0 24 27 75 59 109 10 11 27 38 37 60 24 52 38
60 51 32 6 -12 25 -44 43 -70z m316 21 c7 -18 30 -58 50 -88 20 -30 36 -63 36
-73 0 -17 -28 -64 -55 -93 -5 -6 -23 -34 -40 -62 -16 -29 -34 -50 -40 -48 -10
3 -8 372 2 389 10 17 34 5 47 -25z m303 4 c11 -15 23 -37 27 -49 4 -12 20 -38
37 -59 54 -69 55 -66 -51 -224 -9 -14 -19 -33 -23 -42 -8 -21 -30 -23 -46 -5
-6 8 -26 43 -45 78 -18 35 -42 79 -52 96 -14 23 -16 37 -9 47 6 8 36 53 68
100 31 47 61 86 65 86 5 0 17 -12 29 -28z m-1721 -34 c14 -29 30 -61 37 -70 9
-13 8 -21 -5 -35 -9 -10 -24 -34 -35 -53 -49 -89 -66 -111 -77 -100 -7 7 -5
31 9 83 10 39 20 106 21 147 3 89 2 80 15 80 5 0 21 -24 35 -52z m2483 14 c11
-21 26 -44 35 -51 15 -13 66 -104 66 -119 0 -5 -11 -26 -25 -46 -14 -20 -35
-56 -47 -79 -37 -67 -55 -89 -73 -85 -9 1 -37 41 -61 87 -25 47 -51 93 -59
104 -17 24 -12 35 60 142 67 99 75 103 104 47z m626 -22 c14 -22 36 -59 48
-81 12 -22 27 -50 34 -62 10 -18 9 -26 -3 -42 -8 -11 -17 -27 -21 -35 -3 -8
-16 -28 -27 -45 -12 -16 -30 -47 -41 -67 -11 -21 -27 -38 -36 -38 -14 0 -79
87 -79 106 0 3 -11 22 -25 42 -14 20 -25 47 -25 59 0 13 25 64 56 113 64 104
80 111 119 50z m-1781 -100 c-3 -111 -15 -167 -32 -156 -4 2 -23 34 -42 70
l-34 66 22 23 c12 13 22 29 22 36 0 15 49 81 60 81 4 0 6 -54 4 -120z m1414
-51 c0 -88 -4 -162 -8 -164 -11 -7 -34 24 -73 98 -35 68 -37 96 -11 118 8 6
14 15 14 20 0 16 63 98 71 93 5 -3 8 -77 7 -165z m92 96 c0 -6 11 -27 25 -47
26 -38 32 -72 15 -83 -5 -3 -24 -33 -41 -66 -37 -69 -65 -78 -62 -19 7 140 15
247 19 260 4 12 10 9 24 -10 11 -14 20 -30 20 -35z m-2703 -161 c67 -110 68
-108 -64 -112 -103 -2 -113 -1 -113 15 0 20 82 152 102 165 21 13 30 5 75 -68z
m274 -19 c-2 -50 -5 -92 -7 -94 -6 -6 -126 -3 -132 3 -2 3 14 31 36 64 21 32
47 73 56 91 11 21 23 31 34 29 15 -3 17 -15 13 -93z m492 61 c9 -7 17 -17 17
-22 0 -5 18 -40 40 -78 22 -37 37 -72 34 -77 -7 -12 -135 -11 -153 0 -11 7
-13 26 -8 86 7 98 27 124 70 91z m367 -80 c0 -6 11 -26 25 -46 46 -66 13 -82
-117 -61 -26 4 -53 4 -60 0 -7 -4 -18 -3 -25 3 -10 8 -6 19 16 52 15 22 31 50
35 61 3 11 18 33 33 49 l27 29 33 -39 c18 -21 33 -43 33 -48z m311 4 c3 -3 9
-15 13 -26 4 -12 18 -34 33 -48 45 -45 29 -53 -106 -54 -67 0 -121 4 -121 9 0
5 17 34 38 65 20 31 44 67 52 80 21 33 42 34 65 4 10 -14 22 -27 26 -30z m736
33 c3 -10 16 -31 27 -48 23 -33 66 -122 66 -136 0 -5 -32 -9 -70 -9 -66 0 -71
2 -80 25 -6 16 -5 53 2 105 10 67 15 80 30 80 10 0 21 -8 25 -17z m353 -75 c0
-4 14 -27 30 -51 51 -76 48 -78 -91 -73 -122 4 -164 16 -126 37 9 6 17 16 17
23 0 7 9 24 21 37 11 13 34 44 51 68 l31 45 33 -40 c19 -21 34 -42 34 -46z
m275 39 c23 -31 56 -86 86 -145 7 -12 10 -25 6 -28 -9 -10 -241 -4 -251 6 -6
6 3 29 22 60 18 28 32 54 32 57 0 10 62 83 70 83 5 0 20 -15 35 -33z m305 4
c16 -30 13 -176 -4 -190 -9 -8 -35 -10 -81 -5 -72 7 -89 22 -61 53 9 10 16 21
16 25 0 4 8 19 18 34 11 15 30 44 43 64 26 42 53 49 69 19z m-3385 -111 c7
-11 -66 -126 -93 -147 -25 -20 -41 -16 -35 10 4 20 3 21 -10 5 -19 -23 -27
-23 -27 2 0 11 -4 20 -10 20 -5 0 -10 4 -10 10 0 5 -11 26 -25 46 -14 20 -25
41 -25 46 0 5 19 8 41 6 40 -3 42 -5 46 -38 2 -19 13 -44 24 -55 l21 -20 -6
46 c-7 50 1 64 44 72 44 8 59 7 65 -3z m298 1 c15 -6 27 -16 27 -23 0 -7 -26
-51 -58 -98 -59 -88 -84 -104 -106 -65 -6 11 -19 32 -28 46 -29 44 -57 126
-47 136 13 13 179 16 212 4z m247 -27 c4 -5 4 -33 -1 -64 -5 -30 -6 -63 -3
-72 3 -10 0 -27 -6 -38 -11 -21 -12 -21 -32 -3 -21 19 -100 172 -93 182 5 10
125 5 135 -5z m580 -9 c0 -20 -17 -49 -62 -109 -21 -27 -38 -52 -38 -57 0 -15
-41 -21 -57 -8 -13 11 -15 28 -10 92 4 43 9 82 12 88 4 5 40 9 81 9 59 0 74
-3 74 -15z m330 -20 c0 -8 -22 -46 -48 -83 -27 -37 -52 -75 -55 -84 -12 -35
-43 -20 -66 30 -12 26 -32 67 -46 91 -13 24 -22 47 -20 51 2 4 56 8 120 9 98
2 115 0 115 -14z m-1655 -117 l47 -88 -23 -37 c-49 -80 -111 -163 -121 -163
-14 0 -37 31 -38 49 0 8 -6 22 -14 30 -8 9 -28 42 -44 73 -28 50 -29 58 -15
69 8 7 25 32 37 54 11 23 37 63 56 88 32 45 35 46 51 30 9 -10 38 -57 64 -105z
m1860 112 c4 -7 13 -6 26 1 28 15 83 7 87 -11 1 -9 -16 -36 -39 -60 -22 -25
-48 -61 -58 -80 -18 -39 -44 -46 -49 -15 -2 11 -12 29 -22 40 -23 26 -60 100
-60 120 0 12 12 15 54 15 30 0 58 -5 61 -10z m-1270 -32 c16 -35 24 -49 68
-111 35 -51 34 -75 -3 -123 -16 -21 -45 -62 -64 -90 -19 -29 -39 -55 -44 -58
-9 -5 -46 44 -64 86 -4 9 -18 35 -32 57 -38 59 -38 59 37 171 10 14 28 42 42
63 14 20 30 37 35 37 5 0 16 -15 25 -32z m837 -53 c20 -38 47 -88 59 -111 l22
-41 -69 -101 c-83 -122 -95 -126 -141 -49 -18 28 -36 63 -42 77 -5 14 -19 38
-30 54 l-19 29 49 78 c27 43 49 81 49 84 0 3 10 16 22 30 35 40 57 29 100 -50z
m-1132 13 c12 -29 31 -65 41 -80 30 -41 32 -34 -61 -197 -19 -33 -38 -61 -42
-61 -14 0 -17 18 -8 51 6 18 10 102 11 186 1 139 3 153 19 153 12 0 25 -18 40
-52z m2430 37 c7 -9 6 -16 -5 -25 -8 -7 -15 -18 -15 -24 -1 -17 -69 -106 -86
-113 -24 -9 -34 16 -34 89 0 50 4 69 15 76 24 13 113 11 125 -3z m-972 -65
c19 -36 42 -74 53 -86 10 -11 19 -32 19 -46 0 -27 -47 -108 -62 -108 -4 0 -8
-5 -8 -11 0 -5 -16 -31 -35 -56 l-35 -46 -1 47 c0 25 0 118 0 206 0 88 0 163
0 166 1 3 9 4 18 2 9 -2 32 -32 51 -68z m297 45 c5 -11 31 -54 56 -95 64 -106
64 -105 29 -161 -16 -27 -30 -54 -30 -59 0 -6 -4 -10 -9 -10 -5 0 -19 -20 -31
-44 -32 -67 -71 -70 -85 -7 -3 16 -17 38 -30 50 -14 11 -25 27 -25 35 0 8 -3
16 -7 18 -11 4 -43 64 -43 79 0 17 60 110 87 134 12 11 27 35 34 53 13 37 37
40 54 7z m941 15 c60 0 71 -16 34 -47 -11 -10 -20 -21 -20 -25 0 -18 -66 -98
-78 -96 -8 2 -27 26 -41 53 -15 28 -33 60 -41 71 -7 12 -10 29 -6 39 5 15 14
17 53 11 25 -3 70 -6 99 -6z m-171 -53 c11 -23 34 -65 52 -94 18 -29 33 -59
33 -68 0 -19 -36 -91 -49 -100 -6 -3 -20 -26 -33 -51 -23 -47 -47 -68 -64 -56
-10 7 -37 51 -94 155 -26 48 -29 60 -19 79 13 24 94 146 110 166 19 24 44 12
64 -31z m513 34 c10 -4 -1 -50 -13 -55 -8 -3 -15 -15 -15 -26 0 -11 -3 -20 -8
-20 -4 0 -12 -10 -17 -22 -6 -13 -19 -24 -31 -26 -17 -2 -27 9 -50 52 -16 31
-32 56 -36 56 -5 0 -8 12 -8 26 l0 25 88 -5 c48 -2 88 -5 90 -5z m95 -33 c13
-18 33 -49 43 -68 10 -19 22 -37 25 -40 3 -3 14 -20 24 -37 15 -26 17 -35 7
-45 -19 -19 -14 -27 20 -30 42 -4 50 -32 55 -201 7 -206 -18 -277 -85 -245
-21 11 -34 11 -62 2 -19 -6 -61 -9 -93 -7 -72 7 -85 24 -57 79 11 21 20 40 20
43 0 8 -40 -38 -40 -46 -1 -4 -9 -18 -20 -31 -34 -41 -57 -26 -110 73 -27 50
-50 97 -50 106 0 19 74 145 108 181 33 36 52 25 93 -56 46 -90 61 -108 79 -96
13 9 13 12 -2 20 -9 6 -26 31 -39 57 -12 27 -33 62 -45 78 -36 48 -43 76 -28
112 7 17 18 34 24 38 5 3 10 15 10 26 0 10 4 19 9 19 5 0 15 16 22 35 7 19 18
35 25 35 6 0 14 7 18 15 8 23 23 18 49 -17z m155 20 c18 -18 15 -119 -4 -146
-16 -24 -54 -30 -54 -9 0 6 -16 43 -35 80 -19 38 -33 73 -30 78 9 13 109 11
123 -3z m-3390 -139 c-6 -63 -15 -118 -19 -123 -5 -6 -17 11 -29 37 -11 25
-25 49 -30 52 -26 16 -8 66 50 143 35 47 42 24 28 -109z m2892 -35 c5 -126 6
-140 9 -69 1 50 2 116 1 148 -2 90 34 89 82 -3 7 -14 21 -34 31 -44 23 -26 22
-67 -3 -99 -11 -14 -20 -28 -20 -31 0 -3 -14 -26 -32 -51 -21 -30 -37 -44 -47
-40 -8 3 -18 0 -22 -7 -6 -9 -13 -9 -33 0 -14 6 -26 16 -26 22 0 6 -16 37 -37
68 -42 67 -45 97 -12 143 27 37 45 66 55 89 36 78 48 49 54 -126z m-1441 51
c-6 -43 -8 -94 -4 -114 4 -27 2 -41 -8 -50 -13 -10 -21 -1 -53 50 l-38 62 24
41 c59 104 72 120 81 104 5 -10 5 -48 -2 -93z m-1826 -166 l55 -111 -35 -66
c-44 -82 -119 -164 -132 -143 -16 26 -22 115 -12 186 6 39 11 98 11 132 0 34
5 74 12 88 22 49 43 31 101 -86z m-4328 81 c250 -29 424 -55 500 -75 123 -34
188 -38 334 -25 204 19 356 2 461 -50 30 -15 91 -46 135 -70 44 -24 109 -59
145 -78 36 -19 82 -47 104 -61 21 -14 56 -37 77 -51 21 -14 69 -46 108 -72 39
-27 75 -48 80 -48 5 0 11 -4 13 -8 5 -13 136 -86 201 -112 l57 -22 0 -579 0
-578 -23 -53 c-26 -58 -74 -205 -102 -308 -10 -36 -25 -87 -35 -115 -10 -27
-28 -82 -40 -122 -13 -40 -33 -80 -45 -91 -28 -24 -134 -52 -201 -52 -27 -1
-98 -7 -159 -14 -60 -7 -171 -14 -245 -15 -74 -1 -187 -6 -250 -12 -63 -5
-122 -10 -130 -11 -46 -4 -74 5 -99 30 -24 24 -29 41 -45 154 -19 133 -33 179
-92 304 -43 91 -72 123 -117 131 -50 8 -87 -22 -136 -111 -23 -40 -66 -104
-96 -142 -30 -38 -61 -82 -69 -99 -19 -39 -71 -66 -116 -60 -39 5 -150 36
-193 53 -16 7 -36 12 -46 12 -10 0 -44 9 -76 20 -32 11 -70 20 -85 20 -47 0
-190 46 -190 61 0 5 -11 14 -25 19 -14 5 -25 17 -25 25 0 25 -35 87 -64 114
-14 14 -26 32 -26 42 0 10 -10 26 -23 36 -12 10 -33 38 -45 63 -12 25 -31 56
-42 70 -27 34 -45 132 -31 172 6 17 11 46 11 64 0 19 5 34 11 34 5 0 23 29 39
64 16 35 33 66 37 68 20 8 52 92 68 176 17 88 17 99 2 210 -22 150 -22 255 -2
272 8 7 15 19 15 27 0 16 78 93 94 93 6 0 35 23 64 51 42 42 52 58 52 85 0 18
-4 35 -9 39 -5 3 -15 22 -22 43 -7 20 -18 42 -25 47 -7 6 -18 45 -23 88 -6 43
-20 116 -32 162 -11 46 -19 103 -17 126 4 51 18 58 148 68 92 7 110 6 245 -9z
m5236 -196 c-3 -199 -9 -234 -37 -234 -8 0 -17 8 -20 18 -3 9 -19 45 -35 79
-16 35 -29 67 -29 72 0 5 -7 14 -15 21 -24 20 -18 44 33 122 27 40 57 86 66
101 36 58 41 31 37 -179z m490 186 c4 -8 15 -33 24 -55 9 -22 21 -47 26 -55 5
-8 20 -34 35 -57 l26 -43 -31 -26 c-17 -14 -31 -30 -31 -36 0 -18 -70 -126
-85 -132 -8 -3 -22 -3 -31 1 -13 5 -15 15 -8 57 4 28 8 114 8 192 1 106 5 145
15 158 16 19 40 18 52 -4z m9146 8 c6 -7 13 -26 17 -42 4 -16 17 -36 28 -46
25 -20 17 -40 -17 -40 -13 0 -27 -5 -30 -10 -7 -11 -10 -140 -6 -225 5 -94
-23 -217 -60 -260 -25 -30 -59 -101 -59 -124 0 -18 5 -20 33 -14 17 3 38 10
45 16 8 7 12 5 12 -6 0 -8 7 -20 15 -27 8 -7 15 -22 15 -34 0 -11 10 -40 22
-63 21 -40 22 -44 6 -59 -14 -14 -20 -15 -32 -5 -12 10 -16 9 -24 -6 -5 -10
-8 -22 -7 -28 2 -5 6 -22 9 -38 6 -23 11 -27 39 -25 30 3 32 1 35 -32 1 -19 7
-44 12 -55 5 -11 11 -36 14 -55 12 -85 44 -182 66 -195 5 -3 10 -33 10 -66 l0
-59 -41 0 c-31 0 -40 3 -36 14 9 23 -12 34 -57 29 -36 -4 -46 -1 -75 26 l-33
31 23 19 24 20 -22 22 c-11 12 -33 22 -48 22 -22 0 -30 7 -46 44 -10 25 -19
58 -19 74 0 29 -72 183 -91 194 -5 4 -9 21 -9 39 0 19 -10 46 -25 66 -31 42
-32 65 -1 93 21 20 24 32 28 150 l5 128 48 49 48 48 -20 34 c-13 22 -28 34
-46 36 -19 2 -35 15 -52 42 -13 21 -29 41 -35 45 -5 3 -10 13 -10 21 0 10 13
14 49 14 43 0 53 4 73 29 29 36 66 49 74 27 8 -20 31 -21 50 -2 21 21 18 26
-16 26 -56 0 -30 46 33 59 18 4 33 14 35 23 2 12 -2 15 -16 11 -11 -2 -23 0
-26 6 -10 15 16 51 36 51 9 0 20 5 23 10 8 14 21 13 32 -2z m-9949 -36 c10
-16 36 -58 59 -92 31 -48 39 -68 32 -79 -5 -9 -17 -28 -27 -42 -9 -15 -37 -58
-61 -98 -24 -39 -46 -71 -50 -71 -4 0 -15 15 -25 33 -65 119 -86 163 -86 178
0 39 121 222 136 206 3 -3 13 -19 22 -35z m-305 1 c8 -16 29 -55 46 -87 36
-68 35 -101 -5 -149 -13 -16 -24 -32 -24 -36 0 -4 -8 -16 -19 -27 -10 -11 -24
-30 -30 -42 -6 -12 -17 -22 -23 -22 -17 0 -46 38 -79 104 -17 34 -36 69 -42
79 -9 13 -9 21 0 35 7 9 19 31 27 47 18 40 73 108 94 117 30 12 40 8 55 -19z
m1775 -3 c2 -14 12 -34 22 -45 10 -11 27 -41 38 -67 12 -27 25 -48 30 -48 21
0 21 -46 0 -90 -21 -43 -29 -55 -55 -85 -7 -7 -13 -16 -13 -20 0 -4 -6 -13
-12 -20 -7 -8 -19 -21 -26 -30 -22 -26 -41 -17 -77 40 -19 30 -35 58 -35 62 0
4 -14 28 -30 52 -33 48 -32 65 4 116 11 16 30 46 41 67 11 20 31 50 44 68 30
38 64 38 69 0z m-305 -56 c15 -17 27 -35 27 -38 0 -4 11 -24 25 -44 30 -44 30
-46 6 -69 -10 -10 -39 -56 -64 -103 -47 -91 -78 -114 -92 -68 -4 13 -18 37
-31 55 -13 17 -24 37 -24 43 0 7 -14 31 -31 56 -28 38 -30 45 -18 62 8 11 35
48 61 83 25 35 54 73 64 83 17 19 18 19 33 -4 9 -14 28 -39 44 -56z m1102 -14
c69 -126 70 -129 46 -175 -34 -62 -94 -147 -113 -159 -34 -20 -39 4 -39 188 1
172 6 209 35 228 15 10 29 -6 71 -82z m275 45 c0 -8 11 -27 25 -43 14 -17 25
-33 25 -37 0 -3 11 -21 25 -39 14 -18 25 -44 25 -57 0 -13 -11 -41 -25 -61
-14 -20 -25 -42 -25 -47 0 -6 -3 -11 -8 -11 -4 0 -18 -20 -32 -45 -38 -70 -55
-62 -117 50 -29 53 -53 104 -53 113 0 10 27 59 59 109 50 76 63 91 80 86 12
-3 21 -11 21 -18z m-780 -7 c1 -36 1 -211 0 -263 0 -36 -7 -68 -15 -79 -15
-20 -15 -20 -30 0 -8 10 -23 35 -32 54 -9 19 -28 50 -42 68 l-24 33 23 42 c13
23 34 62 47 87 32 57 42 70 59 70 8 0 14 -6 14 -12z m-1620 -218 c0 -16 -4
-30 -8 -30 -8 0 -32 -43 -32 -56 0 -3 9 0 20 6 11 6 20 20 20 30 0 30 12 24
43 -21 37 -53 30 -74 -21 -64 -20 4 -42 11 -49 17 -8 6 -19 6 -32 -1 -26 -14
-61 -14 -61 0 0 6 11 24 25 41 14 16 25 36 25 44 0 8 5 14 10 14 6 0 16 11 22
25 16 35 38 32 38 -5z m819 -11 c9 -15 29 -48 45 -74 28 -46 29 -48 11 -61
-11 -8 -26 -12 -34 -9 -9 2 -41 5 -71 6 -104 4 -110 13 -57 88 19 25 37 54 40
64 10 26 47 18 66 -14z m681 -31 c0 -5 12 -27 26 -49 14 -22 24 -50 22 -62 -3
-20 -7 -21 -93 -18 -49 1 -94 6 -98 11 -5 4 2 25 15 46 13 22 29 51 37 65 19
37 51 51 74 31 9 -8 17 -19 17 -24z m740 5 c11 -14 30 -47 41 -71 21 -50 13
-67 -26 -57 -11 2 -43 5 -71 5 -66 0 -75 18 -36 68 16 21 34 47 41 60 15 29
25 28 51 -5z m-1963 -418 c75 -18 85 -23 186 -98 43 -32 84 -60 92 -63 8 -4
33 -29 55 -58 22 -28 47 -61 57 -72 l17 -22 38 24 c21 13 46 24 56 24 27 0 58
-38 77 -92 14 -43 14 -50 0 -78 -19 -37 -41 -38 -77 -3 -27 26 -28 26 -28 5 0
-12 9 -36 20 -54 12 -20 17 -41 14 -55 -12 -48 46 -11 76 48 25 48 50 51 73 7
9 -18 33 -62 52 -98 19 -36 35 -75 35 -87 0 -12 -21 -54 -47 -95 -27 -40 -53
-82 -59 -93 -20 -36 -40 -29 -62 22 -22 52 -65 99 -81 89 -6 -4 -8 6 -5 26 4
21 0 40 -9 53 -22 29 -34 9 -14 -24 21 -36 21 -41 0 -41 -18 0 -57 66 -52 86
4 15 -12 97 -26 129 -7 17 -16 37 -19 45 -3 8 -16 31 -27 50 -12 19 -33 58
-47 85 -14 28 -29 52 -32 55 -3 3 -19 23 -35 46 -56 77 -123 122 -139 95 -8
-12 57 -93 128 -159 31 -29 56 -57 56 -61 0 -4 11 -18 25 -31 52 -49 69 -117
40 -156 -17 -23 -19 -74 -4 -108 11 -24 78 -76 98 -76 5 0 13 -9 16 -20 3 -11
12 -20 20 -20 7 0 21 -12 31 -27 26 -40 74 -136 74 -148 -1 -11 -35 -55 -44
-55 -3 0 -6 24 -8 53 -3 59 9 55 -122 41 -58 -6 -71 -5 -81 10 -12 15 -14 15
-35 -2 -19 -16 -22 -24 -16 -55 8 -44 35 -61 82 -52 23 4 41 1 56 -10 13 -8
36 -15 53 -15 28 1 29 2 12 15 -24 17 -18 50 8 50 14 0 21 -8 24 -25 1 -14 7
-28 13 -31 10 -7 -12 -60 -37 -89 -8 -8 -15 -28 -17 -45 -3 -29 -2 -30 35 -27
32 2 37 0 37 -18 0 -11 6 -20 14 -20 7 0 19 -7 26 -15 20 -24 40 -18 40 11 0
23 -3 26 -29 22 -25 -4 -30 0 -40 28 -10 28 -9 38 6 65 10 17 22 40 28 50 14
26 35 32 42 11 4 -9 21 -37 37 -62 56 -82 67 -107 60 -136 l-7 -27 -112 7
c-100 6 -113 5 -119 -10 -3 -9 -2 -22 3 -28 5 -6 17 -34 26 -61 10 -27 28 -66
41 -87 13 -20 24 -47 24 -58 0 -12 -22 -56 -50 -99 -27 -43 -50 -82 -50 -86 0
-15 -33 -45 -49 -45 -18 0 -31 19 -69 95 -14 28 -33 62 -44 77 -16 24 -17 28
-3 42 9 8 32 18 53 21 62 10 107 36 110 67 3 26 2 27 -33 21 -44 -7 -122 15
-221 63 -68 33 -71 36 -89 89 -10 31 -24 60 -32 66 -27 23 -13 89 21 89 28 0
41 10 71 50 31 42 31 50 1 50 -30 0 -184 38 -210 52 -12 6 -29 22 -39 34 -17
22 -34 31 -111 63 -16 7 -38 23 -48 37 -11 13 -33 31 -48 39 -16 8 -37 28 -47
45 -21 36 -30 38 -35 8 -2 -12 -9 -23 -16 -26 -10 -3 -13 6 -11 37 2 22 -1 41
-6 41 -6 0 -11 -29 -13 -65 -2 -36 -6 -65 -10 -65 -4 0 -17 3 -30 6 -21 6 -23
11 -17 44 4 23 2 41 -4 45 -11 6 -14 -10 -11 -58 1 -18 -9 -39 -29 -63 -26
-29 -31 -43 -32 -87 0 -29 -4 -61 -8 -72 -5 -13 5 -47 35 -111 24 -50 46 -104
50 -120 10 -43 39 -96 64 -119 30 -27 80 -103 80 -121 0 -22 -16 -17 -39 12
-23 29 -51 27 -51 -4 0 -27 40 -120 72 -167 15 -23 78 -88 139 -145 81 -75
118 -118 135 -155 13 -27 24 -57 24 -65 0 -9 12 -33 26 -54 23 -34 27 -50 27
-117 0 -48 -4 -83 -12 -93 -10 -12 -8 -18 14 -32 37 -24 95 -102 88 -119 -4
-12 28 -79 47 -95 3 -3 24 -31 48 -62 23 -32 46 -58 50 -57 13 1 82 98 98 139
19 47 44 65 66 47 27 -22 118 -192 118 -220 0 -20 -93 -178 -119 -201 -20 -18
-21 -18 -41 17 -12 19 -28 38 -37 41 -13 5 -14 0 -9 -31 4 -21 16 -49 26 -63
38 -49 110 -159 110 -168 0 -5 14 -21 30 -35 17 -15 30 -32 30 -37 0 -6 4 -10
8 -10 12 0 38 109 34 139 -4 29 12 41 56 41 20 0 32 -5 32 -13 0 -21 -30 -77
-41 -77 -5 0 -9 -8 -9 -18 0 -10 -16 -33 -35 -52 l-34 -33 1 -131 c0 -127 1
-132 28 -166 15 -19 30 -42 33 -50 15 -41 5 24 -14 85 -23 74 -19 115 8 80 8
-11 33 -57 56 -103 l41 -82 -22 -39 -23 -40 32 -36 c22 -25 39 -35 55 -33 27
4 74 -58 74 -98 0 -44 27 -82 62 -89 64 -13 112 -42 132 -79 11 -20 23 -36 29
-36 5 0 38 29 73 64 70 72 129 104 215 116 62 9 99 28 123 64 20 31 113 92
154 101 20 4 57 30 95 65 l62 59 -17 33 c-9 18 -19 40 -22 48 -3 8 -11 22 -18
31 -6 9 -8 24 -4 34 6 17 7 17 26 0 11 -10 20 -26 20 -37 0 -10 4 -18 9 -18 5
0 11 -10 13 -22 2 -15 11 -24 26 -26 29 -4 27 11 -8 73 -16 28 -41 73 -56 101
l-27 51 64 112 c84 146 91 147 165 6 29 -55 53 -107 53 -115 1 -8 -6 -28 -14
-44 -8 -15 -15 -35 -15 -44 0 -14 22 8 126 127 27 30 33 32 52 22 20 -11 28
-6 87 55 56 58 63 68 52 85 -10 16 -9 21 3 29 19 12 42 -8 35 -31 -3 -9 -2
-20 3 -22 4 -3 7 -26 6 -52 -1 -36 -9 -54 -34 -81 -43 -47 -44 -89 -4 -140 46
-61 73 -103 101 -155 14 -27 29 -52 34 -55 5 -3 9 -12 9 -21 0 -26 31 -53 60
-53 21 0 31 -8 46 -37 10 -21 25 -44 32 -52 25 -26 7 -36 -60 -35 -76 2 -91 8
-83 35 4 12 2 19 -6 19 -17 0 -349 -337 -349 -355 0 -15 -90 -153 -131 -200
-75 -86 -136 -162 -142 -177 -5 -15 -20 -18 -99 -18 -102 1 -100 -4 -20 52 18
13 46 33 62 45 15 13 32 23 38 23 5 0 30 23 56 50 26 28 50 50 54 50 17 0 76
70 66 79 -8 9 -56 -18 -169 -96 -22 -16 -67 -46 -101 -68 -140 -92 -174 -116
-174 -125 0 -6 -36 -10 -82 -10 l-83 0 -17 36 c-10 19 -18 44 -18 54 0 13 -9
22 -27 26 -60 12 -113 37 -155 69 -117 94 -71 -29 55 -143 15 -14 27 -29 27
-34 0 -4 -133 -8 -295 -8 l-295 0 -4 23 c-3 12 -10 56 -16 97 -7 41 -16 91
-20 110 -5 19 -16 71 -25 115 -22 111 -44 194 -62 235 -8 19 -18 72 -21 118
-4 64 -8 80 -17 72 -16 -13 -28 13 -13 28 19 19 -73 264 -109 285 -7 4 -13 14
-13 21 0 8 -7 19 -15 26 -23 19 -18 38 13 42 32 4 47 48 15 48 -34 0 -62 -12
-66 -29 -4 -13 -5 -13 -6 2 -1 11 7 21 19 24 25 7 26 23 3 23 -41 0 -97 24
-122 50 -14 16 -37 30 -50 32 -17 2 -27 13 -35 37 -6 20 -20 37 -34 42 -38 14
-38 -16 1 -79 20 -32 38 -69 42 -83 4 -14 25 -46 48 -71 33 -35 55 -49 101
-62 51 -15 56 -19 41 -30 -16 -11 -16 -19 -6 -78 6 -35 11 -98 11 -139 1 -41
6 -105 11 -144 14 -88 21 -389 10 -418 -9 -22 -9 -22 -19 3 -5 14 -24 57 -40
96 -17 39 -34 87 -37 108 -4 20 -11 38 -15 41 -5 3 -14 22 -21 43 -6 20 -23
62 -36 92 -14 30 -43 94 -64 141 -21 48 -39 89 -39 92 0 3 -13 35 -30 70 -16
36 -30 73 -30 83 0 9 -11 36 -24 58 -13 23 -31 63 -41 89 -22 58 -103 153
-118 138 -6 -6 -4 -15 7 -26 9 -9 16 -24 16 -33 0 -9 9 -32 21 -51 15 -25 17
-37 9 -45 -13 -13 -60 38 -84 89 -8 17 -33 50 -55 74 -40 43 -41 44 -49 21
l-9 -24 -6 25 c-3 13 -33 75 -66 137 -33 62 -63 128 -67 147 -3 19 -10 35 -15
35 -12 0 -11 -83 2 -140 5 -25 13 -67 18 -95 13 -73 68 -261 90 -303 10 -20
22 -56 26 -79 11 -70 -17 -53 -70 42 -15 28 -36 59 -45 70 -10 11 -23 45 -30
77 -6 31 -17 59 -24 61 -8 3 -16 18 -19 34 -27 133 -51 263 -62 343 -8 52 -17
106 -21 118 -22 75 -33 -108 -13 -211 12 -60 6 -111 -13 -105 -7 3 -15 17 -19
32 -12 42 -29 58 -57 51 -19 -5 -32 3 -63 35 -21 22 -39 44 -39 49 0 5 -7 11
-15 15 -42 16 7 138 88 217 30 30 58 65 62 79 31 99 107 190 194 232 60 28 72
31 170 30 109 0 161 -12 274 -61 58 -25 57 -25 57 -7 0 8 -29 38 -65 66 -36
29 -79 71 -94 94 -36 51 -140 154 -172 170 -13 6 -31 26 -39 43 -11 23 -24 34
-46 39 -17 3 -44 14 -60 24 l-28 19 28 10 c15 6 34 11 42 11 8 0 14 6 14 13 0
21 -30 77 -41 77 -15 0 -10 22 8 43 16 17 16 19 1 28 -9 5 -22 26 -29 47 -6
20 -18 45 -27 55 -18 20 -48 23 -56 5 -2 -7 -4 1 -3 17 0 17 -3 36 -7 43 -13
22 -26 2 -26 -43 0 -51 -8 -75 -24 -75 -14 0 -43 53 -52 95 -4 17 -15 44 -26
62 -50 84 -83 453 -55 628 9 55 19 129 23 165 3 36 12 80 20 99 15 35 19 111
7 111 -13 0 -71 -75 -89 -114 -23 -48 -45 -48 -37 -1 9 54 -20 45 -56 -18 -16
-28 -39 -61 -50 -72 -12 -11 -29 -28 -39 -37 -22 -21 -56 -8 -34 14 18 18 15
72 -5 91 -11 9 -36 15 -66 15 -60 0 -78 14 -68 50 13 43 59 130 75 139 7 4 20
22 29 38 8 17 26 42 38 56 13 14 29 33 34 42 6 8 62 42 125 75 126 65 212 88
291 77 42 -6 49 -4 59 14 9 17 21 21 68 22 31 0 89 6 127 13 96 19 256 19 332
1z m798 -272 c-3 -49 -7 -142 -9 -208 -2 -101 -5 -120 -18 -123 -10 -2 -19 6
-23 18 -4 12 -22 49 -41 82 l-35 61 7 101 c8 126 25 156 85 156 l40 0 -6 -87z
m90 37 c24 -46 10 -201 -22 -252 -13 -21 -28 -38 -33 -38 -11 0 -14 277 -4
304 10 26 42 18 59 -14z m1321 -159 c1 -89 5 -165 8 -168 8 -8 -13 -33 -28
-33 -6 0 -20 20 -30 43 -10 23 -25 49 -33 58 -11 13 -11 35 -3 115 6 54 13
107 16 117 6 19 41 38 59 33 6 -2 11 -67 11 -165z m142 132 c6 -16 14 -57 17
-93 7 -68 2 -84 -43 -148 -13 -18 -22 -40 -20 -50 3 -12 9 -7 22 20 9 20 27
44 38 54 22 20 15 25 78 -53 6 -7 10 -17 10 -23 0 -6 11 -28 25 -50 14 -22 25
-44 25 -50 0 -6 5 -19 12 -29 10 -16 4 -32 -40 -106 -29 -48 -52 -89 -52 -91
0 -14 -41 -45 -56 -42 -16 3 -51 59 -110 176 l-26 53 31 50 c31 51 46 103 18
64 -8 -10 -19 -15 -26 -11 -9 6 -11 41 -7 135 3 69 5 143 5 164 1 29 6 40 24
47 42 17 64 12 75 -17z m-1197 -17 c-7 -8 -9 -30 -5 -58 6 -45 -10 -78 -40
-78 -17 0 -52 -39 -61 -67 -9 -33 -21 -29 -50 17 -28 45 -31 67 -10 94 8 11
15 27 15 36 0 35 25 52 79 55 28 1 55 5 58 9 13 12 25 6 14 -8z m864 -58 c37
-85 38 -92 10 -122 -14 -15 -25 -31 -25 -36 0 -5 -4 -11 -9 -14 -13 -8 -141
119 -142 141 -4 61 19 83 88 83 l54 0 24 -52z m1840 42 c75 0 93 -10 78 -42
-6 -13 -14 -31 -17 -41 -9 -27 -42 -5 -49 33 -6 25 -11 30 -37 30 -23 0 -31
-5 -36 -24 -3 -13 -17 -34 -30 -47 -22 -21 -25 -21 -42 -6 -24 22 -37 21 -72
-5 -34 -25 -36 -34 -16 -73 17 -33 7 -70 -20 -70 -14 0 -21 10 -25 35 l-6 35
-2 -33 c0 -18 -6 -42 -12 -53 -6 -11 -8 -33 -4 -48 5 -24 13 -30 48 -36 l42
-8 -35 -6 c-39 -7 -50 -33 -27 -65 15 -20 26 -18 64 10 23 16 23 16 12 -15 -6
-17 -15 -31 -20 -31 -5 0 -9 -13 -9 -30 0 -25 4 -30 25 -30 15 0 25 -6 25 -14
0 -8 6 -17 13 -19 7 -3 5 -6 -5 -6 -13 -1 -18 -9 -18 -33 0 -72 -41 -126 -86
-116 -16 4 -15 7 9 16 15 6 28 17 29 24 2 23 5 33 12 50 4 9 6 31 4 50 -3 33
-3 33 -50 30 -54 -3 -63 11 -28 43 16 14 17 20 8 27 -26 16 -40 9 -36 -17 4
-17 0 -26 -13 -30 -27 -9 -31 -33 -7 -49 l21 -15 -24 -30 c-13 -16 -27 -30
-31 -30 -5 -1 -8 84 -8 187 0 104 -3 237 -6 295 l-7 106 34 14 34 14 -30 7
c-62 17 8 26 150 21 77 -3 167 -5 200 -5z m-1281 -31 c40 -31 29 -102 -21
-132 -8 -5 -25 -26 -39 -48 -29 -46 -42 -46 -65 -1 -9 17 -21 38 -28 45 -8 11
-6 20 9 40 11 14 20 33 20 42 0 20 19 57 34 67 21 14 63 8 90 -13z m-1602
-165 c9 -16 29 -54 44 -84 14 -30 33 -63 42 -73 15 -16 14 -20 -3 -50 -10 -18
-23 -36 -27 -42 -20 -25 -55 -83 -67 -112 -20 -48 -46 -43 -75 15 -14 26 -34
61 -45 77 -14 21 -21 46 -21 81 0 43 7 64 47 130 63 107 73 112 105 58z m1128
7 c0 -11 3 -21 8 -23 10 -4 92 -173 92 -190 0 -7 -18 -41 -40 -76 -22 -34 -40
-66 -40 -70 0 -4 -13 -24 -30 -44 -33 -40 -60 -42 -78 -5 -7 14 -11 16 -11 7
0 -8 6 -24 14 -34 23 -30 17 -66 -20 -126 -19 -30 -44 -74 -57 -98 -12 -24
-30 -48 -40 -53 -19 -10 -36 10 -84 103 -16 32 -32 58 -36 58 -5 0 -8 7 -8 15
0 8 -5 24 -11 34 -9 14 -9 25 2 50 8 17 17 31 21 31 5 0 8 6 8 14 0 8 6 21 13
28 6 7 21 29 31 48 23 42 56 80 69 80 5 0 16 -8 23 -17 12 -17 13 -16 14 4 0
12 -4 25 -10 28 -17 11 -11 51 13 86 13 19 26 41 30 49 4 8 18 33 32 55 14 22
28 46 31 53 4 6 19 12 35 12 22 0 29 -5 29 -19z m-269 -96 c21 -42 50 -65 34
-27 -20 49 -19 52 22 52 41 0 63 -14 63 -38 0 -20 -30 -41 -57 -42 -25 0 -29
-10 -12 -27 7 -7 3 -24 -16 -59 -31 -58 -48 -87 -55 -94 -9 -9 -31 -45 -36
-60 -6 -19 -42 -43 -53 -36 -23 15 -33 188 -17 291 13 74 21 85 66 85 36 0 40
-3 61 -45z m-572 16 c31 -31 40 -86 32 -196 -11 -152 -42 -187 -82 -95 -12 28
-25 50 -30 50 -5 0 -9 7 -9 16 0 8 -11 30 -25 48 -32 42 -31 66 1 119 52 83
76 95 113 58z m1465 -45 c7 -27 6 -183 -3 -261 -5 -50 -9 -60 -26 -63 -15 -2
-25 8 -39 35 -10 21 -23 47 -29 58 -36 68 -67 131 -67 139 0 13 60 108 77 122
21 17 80 -3 87 -30z m-1617 -124 c6 -4 28 -39 48 -77 20 -39 43 -77 51 -86 25
-29 16 -77 -32 -166 -26 -47 -57 -97 -69 -111 -20 -23 -25 -25 -40 -12 -16 13
-16 11 -10 -31 6 -43 5 -47 -26 -73 -20 -17 -33 -37 -33 -54 -2 -31 -49 -110
-72 -119 -19 -7 -50 21 -58 53 -4 13 -11 24 -16 24 -5 0 -13 18 -16 39 -4 23
-16 48 -30 60 -30 26 -31 69 -4 104 11 14 20 28 20 31 0 17 92 146 104 146 8
0 26 -19 40 -42 24 -40 26 -41 26 -16 0 14 -3 28 -7 30 -11 4 -43 63 -43 77 0
6 23 48 50 92 28 44 50 83 50 85 0 3 7 16 16 29 17 26 30 30 51 17z m-348
-153 c-6 -68 -9 -152 -6 -186 9 -95 -12 -90 -63 15 -23 48 -42 96 -42 108 0
12 15 45 33 75 19 30 43 71 53 92 11 21 23 34 28 29 5 -5 3 -64 -3 -133z
m1811 95 c0 -8 23 -51 50 -95 50 -81 60 -118 38 -137 -7 -6 -38 -49 -68 -96
-34 -52 -61 -85 -70 -83 -15 2 -120 197 -123 227 0 8 29 61 66 118 61 92 70
101 87 92 11 -6 20 -17 20 -26z m-377 -196 c0 -194 -8 -213 -51 -123 -13 28
-29 59 -35 70 -38 70 -39 60 21 151 31 46 58 82 60 79 2 -2 5 -82 5 -177z m97
113 c16 -33 34 -62 40 -66 17 -10 11 -58 -10 -85 -11 -14 -20 -32 -20 -41 0
-9 -7 -22 -15 -29 -8 -7 -15 -17 -15 -22 0 -13 -26 -38 -39 -38 -6 0 -8 24 -6
63 2 34 7 110 11 170 4 59 11 107 15 107 5 0 22 -27 39 -59z m5936 -70 c22
-10 63 -38 90 -62 27 -24 71 -60 97 -79 25 -19 47 -41 47 -48 0 -7 -11 -30
-25 -50 -14 -20 -25 -47 -25 -59 0 -35 -45 -31 -68 5 -19 32 -65 85 -104 120
-29 27 -120 51 -193 52 -67 0 -84 12 -51 33 14 10 34 17 45 17 28 0 36 19 15
35 -17 12 -16 14 16 34 43 26 101 27 156 2z m-6960 -88 c18 -24 20 -248 2
-259 -6 -4 -35 -8 -65 -9 -46 -1 -56 2 -79 26 l-26 28 33 58 c19 32 39 67 46
78 7 11 15 27 19 35 16 33 37 60 47 60 5 0 16 -8 23 -17z m486 0 c10 -9 18
-24 18 -33 0 -9 4 -20 9 -25 28 -30 82 -150 77 -171 -10 -38 -34 -54 -82 -54
-72 0 -85 12 -79 70 2 27 5 84 6 127 2 70 10 103 27 103 3 0 14 -7 24 -17z
m672 -58 c17 -33 33 -62 36 -65 17 -17 44 -86 42 -108 -4 -50 -34 -67 -120
-67 -97 -1 -131 11 -148 52 -12 29 -11 35 13 80 15 26 31 53 36 58 4 6 22 34
38 63 40 71 62 68 103 -13z m-334 17 c78 -119 100 -191 68 -229 -14 -18 -198
-18 -220 0 -26 21 -30 62 -8 90 11 14 20 28 20 31 0 16 92 146 102 146 7 0 24
-17 38 -38z m628 -99 c3 -154 -1 -163 -76 -163 -53 0 -64 5 -81 37 -19 36 -13
69 24 123 19 29 35 56 35 61 0 5 5 9 10 9 6 0 10 5 10 11 0 22 36 59 55 56 19
-2 20 -11 23 -134z m-1613 -161 c6 -4 19 -25 30 -47 11 -22 30 -53 42 -68 42
-52 40 -70 -15 -150 -27 -39 -57 -87 -66 -104 -19 -38 -42 -43 -51 -10 -4 12
-18 36 -31 54 -13 17 -24 37 -24 44 0 7 -11 27 -25 45 -32 42 -31 58 5 104 17
21 30 41 30 46 0 4 11 27 25 51 25 42 54 55 80 35z m-368 -187 c-1 -127 -4
-184 -11 -182 -12 4 -95 165 -96 185 0 7 11 30 25 50 14 20 25 41 25 46 0 9
49 86 55 86 1 0 2 -83 2 -185z m1185 168 c9 -10 35 -53 58 -97 48 -91 49 -82
-33 -216 -37 -59 -59 -86 -75 -88 -12 -2 -22 1 -22 7 0 5 -6 16 -13 23 -7 7
-18 22 -25 33 -24 42 -13 -15 13 -67 14 -27 25 -54 25 -59 0 -5 -25 -45 -55
-90 -30 -45 -55 -84 -55 -88 0 -3 -7 -15 -15 -25 -12 -15 -17 -17 -29 -7 -21
17 -22 417 -2 444 17 22 46 12 46 -17 1 -25 45 -82 53 -69 6 10 -24 78 -43 97
-13 13 -13 59 1 73 13 13 32 45 52 89 34 71 85 96 119 57z m684 -91 c24 -45
44 -89 44 -97 0 -14 -15 -43 -57 -110 -7 -11 -20 -34 -28 -52 -21 -41 -53 -69
-64 -57 -18 19 -111 208 -111 225 0 10 14 38 30 62 17 25 30 49 30 54 0 6 11
22 25 37 19 20 33 26 56 24 27 -3 35 -13 75 -86z m-421 -4 c-2 -46 -4 -123 -4
-171 -1 -113 -15 -113 -77 0 l-44 82 47 85 c64 115 82 116 78 4z m73 70 c7 -7
12 -18 12 -25 0 -7 14 -35 30 -61 17 -27 30 -59 30 -72 0 -26 -91 -181 -102
-174 -4 3 -8 81 -8 175 0 173 4 191 38 157z m-1001 -215 c16 -56 2 -393 -17
-423 -11 -18 -29 -3 -55 47 -10 21 -24 45 -31 53 -6 8 -24 38 -39 67 l-26 51
39 69 c99 174 114 189 129 136z m-259 -92 c58 -115 59 -130 19 -206 -47 -87
-100 -150 -121 -142 -7 3 -25 28 -39 55 -14 27 -40 71 -57 98 -37 59 -38 99
-5 144 14 19 25 38 25 42 0 5 18 34 41 64 58 80 71 74 137 -55z m-687 30 c16
-30 29 -59 29 -66 0 -6 11 -22 25 -35 14 -13 25 -29 25 -35 0 -19 -100 -198
-118 -211 -20 -15 -33 -5 -33 22 0 10 0 60 1 111 1 62 -4 103 -14 128 -18 42
-21 95 -6 95 6 0 10 8 10 18 0 54 46 39 81 -27z m2120 -57 l56 -111 -58 -99
c-32 -54 -62 -105 -67 -113 -6 -12 -10 -11 -22 2 -25 28 -34 41 -55 82 -11 22
-30 56 -42 75 -13 19 -23 42 -23 52 0 24 130 230 143 225 6 -2 37 -53 68 -113z
m275 -109 c-6 -152 -11 -204 -22 -215 -19 -20 -31 -6 -84 97 -23 46 -46 85
-51 89 -17 10 -9 45 24 97 18 29 44 73 57 99 24 49 45 62 69 44 11 -9 12 -46
7 -211z m-2091 197 c18 -15 95 -162 95 -180 0 -4 -20 -41 -45 -82 -75 -128
-92 -142 -118 -92 -65 124 -87 169 -87 181 0 13 77 137 108 174 18 21 22 21
47 -1z m1480 -47 c17 -33 40 -76 53 -96 12 -20 22 -42 22 -48 0 -18 -134 -211
-145 -208 -9 3 -36 44 -52 77 -4 8 -22 38 -40 67 -32 50 -42 88 -25 95 4 2 27
35 51 73 79 127 90 130 136 40z m-994 -227 c10 -13 18 -33 19 -45 0 -13 4 -23
9 -23 15 0 74 -127 66 -140 -4 -6 -14 -9 -23 -5 -8 3 -66 6 -128 6 -92 0 -114
3 -118 16 -6 14 18 42 37 43 4 0 7 5 7 10 0 6 16 33 35 61 20 27 40 61 45 75
12 30 26 31 51 2z m1474 -70 c21 -40 46 -87 56 -103 30 -51 17 -57 -116 -56
-65 1 -124 6 -131 12 -9 7 -5 23 18 67 17 31 39 69 49 84 11 14 19 29 19 32 0
4 7 18 16 31 23 35 44 20 89 -67z m-2114 39 c14 -23 29 -49 33 -57 3 -8 15
-28 25 -45 11 -16 20 -38 20 -49 1 -17 -5 -18 -61 -12 -35 4 -89 6 -120 6 -46
-1 -58 2 -58 14 0 24 109 185 125 186 6 0 22 -19 36 -43z m1452 11 c40 -54 88
-158 85 -181 -3 -20 -9 -22 -75 -22 -39 0 -74 -3 -78 -7 -4 -4 -19 -2 -33 3
-14 5 -32 7 -39 4 -17 -6 -53 11 -53 25 0 5 13 29 29 52 16 24 45 69 65 101
43 66 64 72 99 25z m-1411 -226 c7 -7 5 -18 -8 -39 -11 -15 -28 -45 -38 -65
-22 -45 -46 -56 -64 -31 -38 52 -79 132 -71 140 12 12 168 8 181 -5z m1298
-156 l38 -74 -33 -55 c-18 -30 -36 -64 -40 -76 -3 -12 -17 -29 -31 -37 -13 -9
-24 -23 -24 -30 0 -16 -26 -19 -35 -4 -3 5 4 19 15 30 20 20 20 23 6 45 -21
33 -22 62 -1 45 8 -7 15 -9 15 -4 0 5 3 19 6 31 5 18 1 25 -20 33 -25 9 -26
12 -22 72 2 49 7 64 19 66 23 5 21 19 -3 25 -25 6 -27 43 -4 69 16 17 18 16
47 -22 16 -22 46 -74 67 -114z m122 141 c22 4 28 2 28 -12 0 -26 -69 -135 -86
-135 -15 0 -94 114 -94 135 0 20 8 22 67 14 31 -4 69 -5 85 -2z m-1651 -14 c8
-10 19 -27 25 -38 6 -11 25 -46 42 -77 39 -69 41 -106 7 -138 -14 -13 -25 -28
-25 -33 0 -23 -56 -97 -74 -97 -16 0 -17 5 -11 48 4 26 7 52 6 57 -1 6 -3 39
-5 75 -2 36 -7 96 -10 134 -5 52 -4 71 6 77 19 12 23 11 39 -8z m972 -197 c-2
-204 -5 -225 -34 -226 -3 0 -28 43 -55 96 -27 53 -52 98 -56 101 -22 13 -11
40 88 211 13 22 25 32 39 30 19 -3 20 -10 18 -212z m831 166 c42 -67 86 -161
86 -184 0 -13 -28 -67 -62 -120 -73 -113 -95 -124 -126 -60 -10 20 -35 67 -55
104 -20 36 -37 73 -37 83 0 14 37 93 50 105 3 3 21 29 39 58 42 66 70 70 105
14z m308 21 c9 -10 37 -62 63 -115 l47 -98 -39 -59 c-21 -33 -50 -80 -66 -106
-32 -55 -63 -58 -87 -10 -8 17 -32 60 -53 97 -43 78 -45 95 -14 151 86 153 89
157 111 157 13 0 30 -8 38 -17z m208 -1 c0 -11 -9 -27 -20 -37 -12 -10 -29
-38 -40 -62 -10 -24 -21 -43 -24 -43 -3 0 -16 18 -28 41 -13 22 -31 55 -40 72
-9 16 -15 34 -12 39 3 4 41 8 85 8 70 0 79 -2 79 -18z m106 1 c5 -10 9 -94 10
-186 1 -92 4 -170 7 -174 4 -3 20 6 37 21 27 22 41 26 96 26 36 0 81 7 100 15
33 14 38 13 61 -5 l25 -19 50 35 c58 39 87 49 123 40 39 -10 31 -42 -22 -95
-27 -25 -57 -57 -68 -71 -33 -41 -70 -60 -104 -54 -25 5 -31 3 -31 -11 0 -10
5 -15 14 -12 24 10 6 -31 -26 -58 -25 -21 -33 -23 -45 -13 -12 10 -17 9 -27
-2 -6 -8 -20 -20 -31 -26 -11 -6 -29 -29 -40 -50 -16 -31 -26 -40 -52 -42 -17
-2 -45 4 -62 12 -38 20 -81 20 -107 1 -10 -8 -31 -15 -45 -15 -15 0 -37 -8
-50 -19 -27 -20 -62 -14 -72 13 -8 20 56 132 83 146 25 13 53 78 46 106 -5 17
-11 20 -32 16 -24 -4 -26 -3 -19 19 5 13 15 29 24 36 13 10 20 6 38 -24 12
-20 27 -40 35 -44 20 -13 38 -11 38 6 0 20 -32 86 -53 109 -9 11 -27 40 -38
64 -20 40 -20 48 -8 84 7 22 25 55 39 73 14 18 34 51 44 74 20 44 48 54 62 24z
m-2059 -63 c14 -25 32 -52 39 -61 8 -9 18 -33 21 -53 5 -31 1 -42 -19 -64 -14
-15 -29 -38 -33 -52 -11 -37 -66 -109 -79 -104 -14 6 -29 30 -78 124 -21 41
-38 82 -38 91 0 9 12 34 26 55 15 21 33 54 41 72 19 47 38 36 34 -20 -1 -26 2
-49 9 -53 8 -5 8 -11 0 -19 -5 -7 -12 -39 -15 -70 -5 -61 10 -81 40 -56 14 11
14 15 0 36 -9 14 -11 25 -5 29 15 9 13 168 -2 184 -11 10 -8 12 11 9 15 -2 31
-18 48 -48z m327 -3 c39 -51 66 -118 55 -136 -36 -59 -56 -93 -81 -143 -16
-32 -34 -58 -41 -58 -13 0 -77 108 -77 130 0 7 -11 25 -25 42 -14 16 -25 36
-25 44 0 22 26 69 55 100 14 15 25 31 25 35 0 22 17 5 33 -31 9 -22 21 -40 27
-40 9 0 14 34 11 73 -3 27 16 20 43 -16z m131 -216 c3 -10 28 -56 55 -101 56
-94 57 -90 -16 -206 -24 -40 -44 -75 -44 -79 0 -16 -31 -36 -48 -31 -10 4 -32
34 -47 69 -16 34 -40 75 -52 90 -42 52 -40 69 18 164 70 116 87 135 110 123
10 -6 20 -19 24 -29z m1435 -46 c0 -7 -7 -16 -16 -19 -14 -5 -16 -16 -10 -60
5 -47 3 -56 -18 -79 -29 -32 -71 -44 -91 -27 -22 18 -19 34 20 94 19 30 35 59
35 64 0 5 11 21 25 36 21 23 28 26 40 16 8 -7 15 -18 15 -25z m-1820 -70 c-3
-50 -5 -125 -4 -167 1 -94 -12 -100 -49 -25 -14 30 -33 60 -42 67 -18 15 -20
73 -2 88 7 6 26 38 42 72 19 41 34 60 45 58 13 -3 14 -17 10 -93z m79 59 c11
-14 27 -50 36 -81 21 -70 8 -115 -57 -202 -18 -23 -18 -20 -18 143 0 95 4 166
9 166 5 0 19 -12 30 -26z m2390 -177 c18 -64 12 -91 -22 -95 -15 -2 -25 -8
-22 -13 10 -15 -4 -46 -23 -53 -9 -3 -35 -17 -57 -31 -22 -13 -47 -27 -56 -30
-8 -4 -23 -19 -32 -33 -33 -57 -80 -81 -112 -58 -14 10 -19 28 -20 69 -3 63 1
68 60 85 24 7 64 33 100 67 33 31 63 59 68 63 4 4 21 26 37 50 25 35 34 41 49
33 10 -6 24 -30 30 -54z m-2261 -64 c6 -16 24 -50 40 -78 49 -87 50 -87 -11
-82 -63 4 -77 11 -77 38 0 24 -16 25 -23 0 -4 -19 -67 -47 -67 -31 0 5 8 24
18 42 10 18 31 57 47 86 32 58 54 66 73 25z m-320 -5 c18 -20 35 -52 74 -140
7 -16 -1 -17 -95 -15 -56 2 -108 6 -114 10 -10 6 -4 23 22 63 19 30 35 59 35
64 0 9 39 40 50 40 4 0 16 -10 28 -22z m-1372 -116 c11 -7 32 -134 39 -237 7
-115 32 -150 250 -351 l110 -102 97 -188 c105 -206 127 -250 140 -276 10 -23
10 -108 0 -108 -13 0 -48 41 -66 77 -9 17 -25 34 -36 38 -11 3 -20 14 -20 23
0 10 -8 22 -18 28 -10 6 -33 40 -51 75 -18 35 -42 75 -52 88 -11 13 -19 28
-19 33 0 14 -98 129 -124 148 -11 8 -26 20 -31 28 -12 16 -79 57 -118 73 -24
10 -47 52 -35 64 3 3 30 -4 61 -14 53 -18 57 -19 57 -3 0 15 -30 41 -89 77
-57 35 -229 179 -245 205 -5 8 -29 34 -53 57 -47 46 -48 52 -32 121 14 57 34
82 60 75 14 -4 19 0 19 16 0 25 35 29 44 5 8 -22 -1 -34 -27 -35 -20 -1 -20
-1 3 -8 13 -4 27 -16 30 -28 5 -23 55 -83 68 -83 5 0 6 40 4 90 -5 111 2 134
34 112z m1824 -197 c0 -24 -5 -35 -15 -35 -20 0 -19 -30 1 -58 19 -27 26 -23
49 24 16 34 18 35 27 18 6 -10 22 -36 35 -56 l25 -37 -32 -58 c-18 -32 -43
-72 -56 -90 -13 -17 -24 -36 -24 -41 0 -6 -7 -12 -15 -16 -9 -3 -15 0 -15 8 0
7 -8 23 -19 35 -10 11 -33 50 -52 86 l-33 65 18 37 c25 53 89 153 99 153 4 0
7 -16 7 -35z m-274 -18 c6 -12 23 -44 38 -70 32 -59 32 -71 -5 -127 -16 -25
-33 -55 -39 -68 -21 -48 -28 -9 -24 126 2 75 4 143 4 150 0 19 14 14 26 -11z
m437 -229 c7 -24 -5 -383 -13 -392 -18 -18 -28 -3 -117 175 -11 23 -10 30 5
50 10 13 36 59 56 102 36 72 59 94 69 65z m-363 -119 c-8 -41 -10 -95 -7 -136
8 -83 -2 -106 -26 -61 -10 18 -28 52 -42 76 l-24 43 30 57 c75 141 92 146 69
21z m90 15 c0 -8 5 -14 10 -14 6 0 10 -6 10 -13 0 -7 9 -20 20 -30 24 -20 25
-35 4 -65 -8 -12 -27 -45 -42 -74 -27 -50 -50 -62 -44 -23 1 11 4 65 6 120 4
144 3 140 21 125 8 -7 15 -19 15 -26z m133 -222 c9 -8 17 -23 17 -34 0 -10 5
-18 10 -18 16 0 30 -44 16 -50 -17 -8 -176 0 -176 9 0 4 9 18 19 30 10 12 24
35 31 51 17 41 44 45 83 12z m3082 -904 c-4 -68 -9 -126 -12 -130 -2 -5 -15
-8 -27 -8 -26 0 -36 26 -56 155 -6 39 -13 78 -16 88 -5 15 2 17 57 17 l62 0
-8 -122z m2405 105 c0 -9 -5 -68 -11 -130 l-12 -113 -27 0 c-27 0 -28 2 -49
113 -30 157 -32 147 39 147 50 0 60 -3 60 -17z m-2842 -531 c-125 -132 -161
-272 -64 -248 43 11 84 53 91 95 14 84 86 197 135 213 22 7 50 -10 50 -30 -1
-30 -35 -95 -88 -165 -43 -56 -51 -73 -46 -95 10 -43 22 -53 45 -39 30 18 47
-5 26 -36 -31 -48 -93 -37 -111 18 -6 17 -11 32 -13 34 -1 2 -23 -11 -49 -28
-76 -50 -144 -40 -160 24 -16 65 63 213 163 305 50 46 58 50 71 36 14 -13 8
-22 -50 -84z m-1229 56 c5 -13 4 -35 -1 -50 -11 -32 -94 -111 -108 -103 -17
10 -11 30 15 55 29 27 33 60 8 60 -29 0 -83 -60 -83 -92 0 -26 7 -32 65 -58
36 -16 68 -36 71 -45 3 -8 17 -15 30 -15 17 0 24 -6 24 -20 0 -13 -7 -20 -19
-20 -12 0 -21 -9 -25 -26 -10 -39 -79 -107 -138 -136 -106 -52 -198 -44 -198
17 0 53 117 143 210 161 42 9 38 18 -16 39 -35 13 -49 25 -60 51 -19 45 -3 85
56 137 74 67 153 88 169 45z m1916 12 c4 -6 -16 -54 -43 -108 -27 -53 -57
-118 -67 -144 -14 -39 -22 -48 -41 -48 -13 0 -24 2 -24 4 0 3 12 38 26 78 24
67 44 106 96 196 20 32 41 41 53 22z m-1358 -138 c10 -6 9 -19 -2 -57 l-15
-48 38 41 c94 102 166 62 111 -62 -23 -53 -17 -77 12 -50 16 14 22 15 32 5 9
-10 5 -18 -21 -42 -36 -32 -73 -37 -93 -13 -11 13 -10 24 5 63 30 79 31 91 7
91 -24 0 -64 -51 -100 -127 -16 -34 -28 -50 -37 -46 -8 3 -29 2 -48 -1 -30 -6
-35 -11 -41 -44 -19 -106 -78 -182 -140 -182 -90 0 -87 112 5 179 22 15 53 34
69 41 27 11 59 65 46 78 -3 3 -5 0 -5 -6 0 -6 -17 -23 -37 -37 -66 -45 -123
-26 -123 40 0 70 103 161 190 167 51 4 45 -22 -9 -38 -79 -23 -143 -112 -94
-131 12 -5 32 10 74 55 44 49 59 59 67 49 8 -9 6 -30 -9 -76 -10 -35 -18 -65
-16 -67 1 -2 12 -1 23 2 15 4 23 19 31 57 13 62 52 167 61 167 4 0 12 -4 19
-8z m997 -8 c3 -9 6 -30 6 -48 l0 -33 39 37 c100 95 181 29 120 -98 -28 -57
-84 -94 -135 -90 -51 4 -54 32 -4 36 51 5 100 59 100 110 0 39 -50 29 -87 -18
-28 -34 -88 -160 -119 -245 -26 -73 -36 -89 -51 -87 -10 2 -20 6 -22 8 -2 1
25 84 59 183 56 162 61 183 51 212 -9 25 -8 34 1 41 20 12 35 9 42 -8z m-6387
-646 c-3 -40 -9 -85 -12 -100 l-7 -28 1316 0 1316 0 0 -350 0 -350 -1930 0
-1930 0 0 350 0 350 525 0 525 0 0 100 0 100 101 0 101 0 -5 -72z m2953 2 c0
-66 10 -90 24 -54 3 8 22 40 42 70 l36 54 148 0 148 0 41 -57 c23 -32 41 -64
41 -70 0 -32 23 -8 71 75 l30 52 133 0 133 0 46 -68 c32 -46 47 -77 47 -100
l0 -32 532 2 531 3 66 97 66 97 110 1 c98 0 114 -3 153 -25 l42 -24 0 25 c0
23 2 24 79 24 66 0 88 -4 128 -25 69 -36 83 -57 83 -121 l0 -54 138 0 137 0
21 33 c78 118 94 145 94 156 0 8 38 11 125 11 107 0 129 -3 157 -20 41 -25 48
-25 48 0 0 18 7 20 75 20 64 0 85 -5 135 -30 32 -16 61 -33 63 -38 3 -4 9
-193 13 -420 l7 -412 -1972 0 c-1085 0 -1970 4 -1967 8 3 5 6 163 7 351 l1
343 -24 25 c-20 22 -29 24 -71 19 -26 -3 -45 -1 -43 3 3 5 45 31 93 59 49 29
99 61 113 72 17 13 40 20 73 20 l47 0 0 -70z m4248 -30 l-3 -100 190 0 190 0
64 50 c35 28 73 50 86 50 12 0 57 -22 99 -50 l77 -50 152 0 153 0 -4 100 -4
100 151 0 151 0 0 -54 c0 -29 3 -74 6 -100 l7 -46 1108 0 1109 0 0 -350 0
-350 -1966 0 -1967 0 7 51 c4 28 20 90 36 139 29 86 30 92 30 299 l0 211 30 0
30 0 0 69 c0 38 3 83 6 100 l7 31 129 0 130 0 -4 -100z m5933 78 c46 -52 46
-152 1 -201 -22 -23 -32 -26 -57 -21 -43 9 -61 29 -74 79 -12 48 -6 96 18 138
13 22 22 27 54 27 28 0 45 -6 58 -22z m-661 -538 l0 -320 -780 0 -780 0 0 320
0 320 780 0 780 0 0 -320z m-7519 -594 c8 -18 7 -30 -5 -54 -19 -38 -73 -92
-91 -92 -24 0 -29 22 -8 39 19 15 43 52 43 65 0 19 -47 1 -76 -28 -54 -54 -44
-83 43 -121 23 -10 50 -26 59 -36 10 -11 25 -19 36 -19 11 0 18 -7 18 -20 0
-13 -7 -20 -19 -20 -12 0 -20 -9 -24 -28 -7 -37 -80 -107 -142 -137 -27 -13
-73 -27 -101 -31 -44 -5 -55 -3 -73 15 -29 29 -26 54 10 95 34 39 158 106 195
106 37 0 28 15 -16 30 -59 19 -80 44 -80 91 0 35 7 47 49 89 78 78 161 104
182 56z m1394 4 c4 -6 -7 -31 -24 -57 -17 -25 -43 -82 -58 -126 -35 -101 -95
-171 -157 -183 -78 -14 -127 29 -102 90 22 54 156 117 170 81 4 -10 -6 -20
-31 -30 -50 -21 -73 -43 -73 -70 0 -30 27 -39 56 -20 28 18 37 33 70 127 14
40 35 88 47 107 l21 34 -42 -7 c-72 -11 -93 -25 -90 -60 4 -43 -31 -43 -48 0
-23 56 14 95 108 113 62 13 146 13 153 1z m-838 -128 c10 -6 9 -19 -2 -57
l-15 -48 38 41 c94 102 166 62 111 -62 -23 -53 -17 -77 12 -50 16 14 22 15 32
5 9 -10 5 -18 -21 -42 -36 -32 -73 -37 -93 -13 -11 13 -10 24 5 63 30 79 31
91 7 91 -24 0 -64 -51 -100 -127 -16 -34 -28 -50 -37 -46 -8 3 -29 2 -48 -1
-30 -6 -35 -11 -41 -44 -19 -106 -78 -182 -140 -182 -90 0 -87 112 5 179 22
15 53 34 69 41 27 11 59 65 46 78 -3 3 -5 0 -5 -6 0 -6 -17 -23 -37 -37 -66
-45 -123 -26 -123 40 0 70 103 161 190 167 51 4 45 -22 -9 -38 -79 -23 -143
-112 -94 -131 12 -5 32 10 74 55 44 49 59 59 67 49 8 -9 6 -30 -9 -76 -10 -35
-18 -65 -16 -67 1 -2 12 -1 23 2 15 4 23 19 31 57 13 62 52 167 61 167 4 0 12
-4 19 -8z m917 2 c11 -4 13 -12 7 -27 -4 -12 -11 -35 -15 -50 -7 -28 -6 -28
26 9 41 46 90 69 118 54 26 -14 25 -45 -1 -109 -24 -56 -20 -72 13 -52 14 9
24 9 31 2 14 -14 -45 -71 -75 -71 -50 0 -59 33 -28 101 25 55 25 69 1 69 -25
0 -62 -45 -96 -115 -32 -65 -36 -69 -60 -51 -16 12 -16 16 3 92 20 76 48 154
56 154 3 0 11 -3 20 -6z m-1210 -655 c-140 -112 -178 -124 -207 -66 -9 17 -30
56 -47 85 l-32 52 187 0 188 0 -89 -71z m1086 67 c0 -2 -31 -29 -70 -59 -169
-136 -182 -137 -246 -19 l-45 82 180 0 c100 0 181 -2 181 -4z m-1630 -546 l0
-350 -1930 0 -1930 0 0 350 0 350 1930 0 1930 0 0 -350z m4060 0 l0 -350
-1930 0 -1930 0 0 350 0 350 1930 0 1930 0 0 -350z m1680 0 l0 -330 -750 0
-750 0 0 330 0 330 750 0 750 0 0 -330z"/>
<path d="M12691 14291 c-18 -18 -53 -99 -67 -157 -6 -24 -5 -25 13 -16 11 6
42 31 70 56 52 47 80 95 69 121 -8 21 -62 19 -85 -4z"/>
<path d="M13493 13726 c-113 -37 -190 -90 -214 -149 -12 -27 -11 -32 12 -49
76 -62 329 91 329 200 0 29 -31 29 -127 -2z"/>
<path d="M5372 13785 c-40 -14 -90 -37 -112 -51 -71 -47 -101 -122 -62 -157
67 -61 211 58 257 211 8 27 7 27 -83 -3z"/>
<path d="M17284 14067 c-249 -257 -726 -781 -847 -929 -34 -41 -37 -49 -25
-67 16 -26 31 -27 49 -2 8 10 93 108 189 217 225 255 770 890 770 898 0 19
-30 -7 -136 -117z"/>
<path d="M6545 13546 c-100 -65 -150 -147 -113 -184 40 -40 112 27 148 139 13
38 21 71 19 73 -2 2 -26 -11 -54 -28z"/>
<path d="M13582 11774 c-18 -8 -38 -25 -44 -39 -6 -13 -27 -31 -47 -39 -43
-17 -67 -57 -51 -87 13 -24 91 -27 110 -4 7 8 18 15 24 15 15 0 56 42 56 57 0
15 34 27 38 14 5 -14 42 -14 42 -1 0 6 -7 10 -15 10 -10 0 -15 10 -15 29 0 20
-8 35 -22 45 -27 19 -33 19 -76 0z"/>
<path d="M13230 11760 c0 -6 -11 -20 -25 -32 -30 -26 -34 -52 -6 -43 25 8 33
-16 25 -75 -7 -51 9 -78 20 -34 5 19 12 24 29 22 20 -3 23 2 29 62 7 76 -7
110 -47 110 -14 0 -25 -5 -25 -10z"/>
<path d="M8065 9460 c-147 -8 -210 -26 -210 -59 0 -21 5 -24 45 -26 25 -1 99
5 165 13 98 11 136 11 208 1 48 -6 90 -9 94 -6 3 4 -1 17 -10 31 -18 27 -95
57 -141 54 -17 -1 -85 -5 -151 -8z"/>
<path d="M7946 9092 c-9 -14 35 -54 51 -48 9 4 22 1 30 -6 18 -15 45 -79 37
-87 -4 -3 -9 0 -11 7 -7 18 -23 14 -23 -6 0 -10 -5 -23 -10 -28 -16 -16 39
-59 90 -72 25 -6 67 -10 94 -8 40 2 51 7 62 27 10 20 26 29 69 38 60 14 75 10
56 -12 -14 -17 -6 -44 22 -74 26 -29 31 -29 59 1 13 14 34 26 48 28 27 3 27 4
14 98 -11 77 -69 120 -164 120 -46 0 -110 -21 -110 -37 0 -3 19 -3 43 0 48 7
112 -17 112 -42 0 -8 -25 -21 -59 -32 -33 -10 -64 -25 -68 -33 -5 -9 -22 -23
-38 -31 -23 -12 -34 -13 -55 -3 -24 11 -35 38 -16 38 5 0 14 13 19 30 11 29
10 30 -30 41 -23 6 -52 9 -65 6 -19 -4 -21 -2 -11 11 10 12 7 19 -17 39 -22
20 -36 24 -62 20 -24 -4 -36 -2 -40 9 -6 16 -19 19 -27 6z"/>
<path d="M8635 8450 c-27 -4 -62 -5 -77 -3 -39 8 -50 -23 -18 -49 19 -16 34
-18 70 -14 25 3 71 9 102 12 44 5 59 11 63 25 4 10 3 23 0 29 -7 11 -64 11
-140 0z"/>
<path d="M9855 5695 c-5 -2 -27 -6 -47 -10 -62 -10 -93 -55 -38 -55 66 0 240
-55 350 -110 47 -23 170 -37 170 -18 -1 20 -23 44 -48 52 -12 4 -22 15 -22 25
0 13 -16 24 -57 38 -32 11 -71 25 -88 31 -108 40 -189 58 -220 47z"/>
<path d="M11210 6975 c-14 -8 -40 -14 -59 -15 -22 0 -44 -10 -68 -30 -18 -16
-38 -30 -43 -30 -6 0 -10 -7 -10 -16 0 -9 -9 -29 -21 -45 -20 -28 -20 -59 -1
-59 28 0 262 179 262 201 0 13 -31 10 -60 -6z"/>
<path d="M10654 4291 c-92 -33 -138 -77 -113 -107 16 -20 36 -18 94 10 55 26
78 47 94 89 13 33 0 35 -75 8z"/>
<path d="M6150 3449 c-49 -29 -73 -65 -78 -120 -4 -45 -3 -49 22 -58 14 -6 34
-8 43 -4 81 28 151 151 111 191 -18 18 -59 14 -98 -9z"/>
<path d="M5346 3363 c-10 -32 -20 -66 -22 -75 -4 -12 0 -18 10 -18 9 0 16 4
16 8 0 22 64 102 81 102 23 0 23 -2 5 -62 -21 -69 2 -68 39 1 21 39 37 57 53
59 26 4 27 -6 8 -52 -8 -18 -10 -39 -6 -46 10 -16 56 -6 64 15 4 12 0 14 -19
9 -28 -7 -30 0 -10 36 40 69 -3 95 -63 38 l-34 -33 7 33 c6 29 4 32 -16 32
-13 0 -41 -17 -63 -37 -24 -24 -36 -31 -32 -20 14 41 18 67 9 67 -5 0 -17 -26
-27 -57z"/>
<path d="M6806 3363 c-10 -32 -20 -66 -22 -75 -4 -12 0 -18 10 -18 9 0 16 4
16 8 0 22 64 102 81 102 23 0 23 -2 5 -62 -21 -69 2 -68 39 1 21 39 37 57 53
59 26 4 27 -6 8 -52 -8 -18 -10 -39 -6 -46 10 -16 56 -6 64 15 4 12 0 14 -19
9 -28 -7 -30 0 -10 36 40 69 -3 95 -63 38 l-34 -33 7 33 c6 29 4 32 -16 32
-13 0 -41 -17 -63 -37 -24 -24 -36 -31 -32 -20 14 41 18 67 9 67 -5 0 -17 -26
-27 -57z"/>
<path d="M7886 3363 c-10 -32 -20 -66 -22 -75 -4 -12 0 -18 10 -18 9 0 16 4
16 8 0 22 64 102 81 102 23 0 23 -2 5 -62 -21 -69 2 -68 39 1 21 39 37 57 53
59 26 4 27 -6 8 -52 -8 -18 -10 -39 -6 -46 10 -16 56 -6 64 15 4 12 0 14 -19
9 -28 -7 -30 0 -10 36 40 69 -3 95 -63 38 l-34 -33 7 33 c6 29 4 32 -16 32
-13 0 -41 -17 -63 -37 -24 -24 -36 -31 -32 -20 14 41 18 67 9 67 -5 0 -17 -26
-27 -57z"/>
<path d="M9037 3783 c-13 -21 -29 -48 -36 -60 l-12 -23 86 0 85 0 0 44 c0 51
-24 76 -72 76 -21 0 -33 -9 -51 -37z"/>
<path d="M9422 3408 c-16 -16 -15 -40 3 -64 21 -28 19 -54 -4 -54 -11 0 -23 5
-26 10 -3 6 -10 10 -16 10 -17 0 -9 -19 15 -35 18 -12 30 -13 50 -6 30 12 34
37 10 83 -18 35 -9 51 27 46 20 -3 25 -11 34 -62 5 -33 15 -61 22 -63 7 -3 24
19 38 47 27 54 45 58 45 10 0 -56 31 -84 45 -40 3 11 22 43 42 71 41 60 22 62
-22 1 -34 -47 -45 -51 -45 -19 0 33 -11 67 -22 67 -5 0 -21 -20 -36 -45 -15
-24 -30 -45 -34 -45 -4 0 -11 18 -14 40 -4 24 -14 45 -25 50 -25 14 -73 12
-87 -2z"/>
<path d="M13491 3551 c-11 -11 -27 -44 -36 -73 -13 -40 -26 -59 -51 -76 -38
-25 -45 -52 -14 -52 25 0 25 -12 -1 -106 -19 -71 -20 -100 0 -78 4 5 16 46 26
92 19 85 26 96 60 105 18 4 18 5 -2 6 -38 2 -27 32 33 87 46 43 55 56 52 80
-4 36 -38 44 -67 15z"/>
<path d="M13790 3396 c-19 -51 -31 -109 -25 -124 4 -11 15 0 38 38 53 89 91
96 69 13 -18 -65 0 -78 28 -22 28 54 49 79 68 79 15 0 15 0 -5 -87 -4 -19 -1
-23 19 -23 23 0 48 16 48 31 0 4 -9 5 -20 2 -24 -6 -25 3 -5 51 9 20 13 41 10
46 -13 20 -54 9 -78 -20 -14 -16 -27 -30 -29 -30 -2 0 -3 15 -3 33 0 26 -3 31
-20 29 -11 -2 -35 -19 -54 -39 -30 -32 -33 -33 -29 -12 3 13 9 32 13 42 4 10
3 17 -4 17 -6 0 -16 -11 -21 -24z"/>
<path d="M14805 3406 c-19 -14 -19 -15 -2 -50 9 -20 17 -43 17 -51 0 -17 -31
-20 -47 -4 -7 7 -13 7 -17 0 -4 -5 5 -18 19 -27 21 -14 31 -15 50 -6 29 13 32
40 10 83 -19 36 -13 49 25 49 27 0 29 -2 37 -62 9 -74 24 -80 56 -24 31 55 43
55 51 1 5 -29 12 -45 22 -45 8 0 14 4 14 9 0 5 18 36 40 69 22 33 40 63 40 67
0 13 -39 -27 -61 -62 -26 -42 -39 -42 -39 0 0 57 -14 63 -49 21 -17 -21 -31
-42 -31 -46 0 -5 -4 -8 -9 -8 -5 0 -12 20 -15 44 -5 34 -12 45 -29 50 -36 9
-62 7 -82 -8z"/>
<path d="M17959 3493 c-133 -120 -130 -299 4 -208 33 23 37 24 37 7 0 -38 61
-60 74 -26 9 23 8 24 -16 21 -15 -1 -23 5 -29 25 -4 16 -3 30 3 34 5 3 25 30
44 60 52 81 42 136 -15 83 -27 -26 -60 -94 -61 -126 0 -25 -48 -63 -79 -63
-17 0 -21 6 -21 30 0 41 23 83 77 141 54 57 40 75 -18 22z"/>
<path d="M17074 3495 c-45 -27 -75 -75 -66 -107 3 -11 23 -28 46 -38 l41 -18
-30 -7 c-73 -19 -145 -74 -145 -112 0 -21 39 -31 83 -21 53 12 113 55 132 96
9 17 20 32 25 32 24 0 5 17 -50 45 -33 16 -63 38 -66 48 -7 23 31 67 58 67 23
0 23 -11 -2 -38 -24 -25 -25 -32 -6 -32 8 0 27 16 42 36 22 28 25 40 17 52
-15 25 -34 25 -79 -3z"/>
<path d="M17394 3401 c-49 -22 -84 -64 -84 -101 0 -46 40 -49 89 -6 22 19 23
19 18 3 -4 -10 -7 -23 -7 -28 0 -5 -15 -15 -33 -23 -35 -14 -87 -69 -87 -91 0
-31 13 -45 42 -45 38 0 72 38 87 95 11 46 32 65 61 58 11 -3 22 7 34 36 20 43
62 89 72 78 4 -4 1 -26 -6 -51 -18 -66 8 -89 50 -44 22 24 19 38 -4 19 -22
-19 -29 4 -11 38 37 72 -8 100 -67 41 l-30 -31 6 36 c4 19 3 35 -2 35 -11 0
-26 -36 -42 -96 -5 -23 -17 -45 -25 -48 -18 -7 -19 9 -4 53 17 47 4 50 -39 8
-42 -41 -62 -47 -62 -17 0 25 33 59 71 72 16 5 29 14 29 19 0 13 -9 11 -56
-10z"/>
<path d="M18168 3388 c2 -21 -11 -74 -37 -145 -31 -88 -37 -112 -26 -117 10
-3 19 11 31 47 50 154 131 256 142 180 4 -26 -27 -62 -57 -66 -34 -5 -39 -27
-8 -27 70 0 138 132 81 154 -19 7 -70 -18 -82 -40 -7 -13 -10 -10 -15 15 -9
43 -34 41 -29 -1z"/>
<path d="M10773 2431 c-66 -24 -101 -50 -109 -79 -10 -37 8 -47 58 -33 53 16
103 53 123 91 8 16 15 31 15 35 0 10 -35 4 -87 -14z"/>
<path d="M8204 1611 c-43 -26 -75 -74 -81 -120 -5 -34 -2 -41 20 -56 22 -14
29 -14 59 -2 70 30 127 122 105 168 -16 31 -62 36 -103 10z"/>
<path d="M7410 1556 c-19 -51 -31 -109 -25 -124 4 -11 15 0 38 38 53 89 91 96
69 13 -18 -65 0 -78 28 -22 28 54 49 79 68 79 15 0 15 0 -5 -87 -4 -19 -1 -23
19 -23 23 0 48 16 48 31 0 4 -9 5 -20 2 -24 -6 -25 3 -5 51 9 20 13 41 10 46
-13 20 -54 9 -78 -20 -14 -16 -27 -30 -29 -30 -2 0 -3 15 -3 33 0 26 -3 31
-20 29 -11 -2 -35 -19 -54 -39 -30 -32 -33 -33 -29 -12 3 13 9 32 13 42 4 10
3 17 -4 17 -6 0 -16 -11 -21 -24z"/>
<path d="M8870 1556 c-19 -51 -31 -109 -25 -124 4 -11 15 0 38 38 53 89 91 96
69 13 -18 -65 0 -78 28 -22 28 54 49 79 68 79 15 0 15 0 -5 -87 -4 -19 -1 -23
19 -23 23 0 48 16 48 31 0 4 -9 5 -20 2 -24 -6 -25 3 -5 51 9 20 13 41 10 46
-13 20 -54 9 -78 -20 -14 -16 -27 -30 -29 -30 -2 0 -3 15 -3 33 0 26 -3 31
-20 29 -11 -2 -35 -19 -54 -39 -30 -32 -33 -33 -29 -12 3 13 9 32 13 42 4 10
3 17 -4 17 -6 0 -16 -11 -21 -24z"/>
<path d="M9950 1556 c-19 -51 -31 -109 -25 -124 4 -11 15 0 38 38 53 89 91 96
69 13 -18 -65 0 -78 28 -22 28 54 49 79 68 79 15 0 15 0 -5 -87 -4 -19 -1 -23
19 -23 23 0 48 16 48 31 0 4 -9 5 -20 2 -24 -6 -25 3 -5 51 9 20 13 41 10 46
-13 20 -54 9 -78 -20 -14 -16 -27 -30 -29 -30 -2 0 -3 15 -3 33 0 26 -3 31
-20 29 -11 -2 -35 -19 -54 -39 -30 -32 -33 -33 -29 -12 3 13 9 32 13 42 4 10
3 17 -4 17 -6 0 -16 -11 -21 -24z"/>
<path d="M11346 1565 c-16 -16 -13 -34 12 -72 7 -12 11 -27 7 -33 -8 -13 -42
-13 -50 0 -4 6 -15 6 -32 -1 -34 -13 -40 -5 -25 33 6 18 10 34 7 36 -2 3 -23
-14 -45 -37 -42 -43 -62 -48 -68 -17 -5 23 25 55 68 74 19 8 29 17 22 19 -36
13 -132 -65 -132 -106 0 -29 23 -43 53 -32 14 5 28 15 32 20 9 16 25 13 25 -3
0 -21 25 -26 49 -10 18 13 23 13 46 -2 21 -14 31 -15 51 -6 33 16 38 34 20 71
-23 43 -20 61 8 61 14 0 28 5 31 10 10 16 -62 12 -79 -5z"/>
<path d="M11482 1568 c-16 -16 -15 -33 4 -70 20 -39 6 -57 -31 -40 -20 9 -25
9 -25 -3 0 -21 35 -37 65 -29 33 8 42 44 20 78 -21 32 -13 56 19 56 27 0 31
-8 41 -82 8 -59 26 -62 50 -8 28 62 43 69 50 23 14 -82 17 -82 78 10 52 78 47
88 -11 20 l-40 -46 -7 47 c-9 56 -19 55 -59 -3 -30 -44 -46 -42 -46 6 0 12 -7
29 -16 37 -18 19 -75 21 -92 4z"/>
<path d="M15095 1666 c-16 -7 -43 -27 -58 -44 -40 -42 -34 -80 17 -108 l38
-22 -38 -12 c-22 -7 -56 -23 -76 -36 -32 -20 -38 -30 -38 -58 0 -42 16 -49 74
-32 60 18 100 48 120 91 9 19 21 35 26 35 6 0 10 3 10 8 0 7 -15 16 -76 46
-52 25 -61 42 -37 74 19 26 63 43 63 24 0 -5 -9 -21 -21 -36 -16 -20 -17 -26
-6 -26 23 0 68 60 65 84 -4 26 -24 30 -63 12z"/>
<path d="M15971 1660 c-50 -12 -67 -33 -53 -65 14 -31 33 -33 29 -3 -2 19 6
25 41 36 49 16 63 10 39 -16 -10 -10 -25 -41 -34 -68 -22 -65 -41 -94 -64 -94
-41 0 -33 42 12 62 16 7 29 16 29 20 0 16 -38 7 -71 -15 -63 -42 -41 -108 30
-92 40 9 76 51 102 120 12 33 30 72 40 87 11 14 19 29 19 32 0 8 -78 6 -119
-4z"/>
<path d="M15405 1564 c-73 -24 -119 -102 -80 -134 17 -14 44 -7 73 21 12 11
22 15 22 9 0 -19 -20 -50 -32 -50 -20 0 -79 -51 -89 -77 -13 -35 5 -63 41 -63
36 0 66 36 82 98 10 42 37 65 63 56 6 -2 21 16 34 40 46 87 94 103 63 20 -15
-39 -15 -46 -2 -54 21 -13 25 -13 51 9 13 11 21 23 17 27 -4 4 -15 1 -24 -7
-16 -13 -17 -11 -11 16 22 96 22 95 -8 95 -17 0 -37 -11 -56 -31 -30 -32 -36
-28 -19 15 7 21 6 26 -5 26 -13 0 -45 -83 -45 -116 0 -15 -28 -39 -37 -30 -3
3 -1 24 6 47 7 22 10 44 7 47 -4 3 -21 -11 -40 -31 -36 -40 -53 -46 -63 -22
-7 21 23 54 70 75 49 22 35 33 -18 14z"/>
</g>
</svg>
