<?xml version="1.0" standalone="no"?>
<!DOCTYPE svg PUBLIC "-//W3C//DTD SVG 20010904//EN"
 "http://www.w3.org/TR/2001/REC-SVG-20010904/DTD/svg10.dtd">
<svg version="1.0" xmlns="http://www.w3.org/2000/svg"
 width="2698.000000pt" height="1526.000000pt" viewBox="0 0 2698.000000 1526.000000"
 preserveAspectRatio="xMidYMid meet">
<metadata>
Created by potrace 1.16, written by Peter Selinger 2001-2019
</metadata>
<g transform="translate(0.000000,1526.000000) scale(0.100000,-0.100000)"
fill="#000000" stroke="none">
<path d="M17927 13888 c-2 -7 -29 -21 -58 -32 -145 -50 -143 -48 -153 -166 -4
-52 -3 -62 7 -50 19 23 67 54 117 74 47 19 87 36 130 55 68 29 126 48 137 44
17 -6 18 -460 2 -480 -9 -9 -9 -13 0 -13 17 0 13 -60 -5 -67 -8 -3 -28 4 -43
15 l-28 20 -59 -28 c-32 -16 -74 -42 -93 -58 -31 -28 -33 -32 -24 -68 6 -27
19 -46 42 -61 41 -28 73 -29 128 -3 82 37 103 76 103 190 0 44 5 82 10 85 8 5
8 11 1 19 -7 8 -10 97 -10 240 l1 227 53 25 c30 13 59 24 64 24 6 0 11 5 11
10 0 16 -327 13 -333 -2z"/>
<path d="M19377 13880 c8 -32 56 -60 102 -60 56 0 151 45 151 72 0 4 -58 8
-129 8 -125 0 -129 -1 -124 -20z"/>
<path d="M19834 13867 c-46 -48 -54 -68 -44 -111 10 -46 14 -50 63 -66 61 -19
130 2 184 57 40 42 43 49 43 99 l0 54 -107 -1 c-108 -1 -108 -1 -139 -32z"/>
<path d="M18980 13619 c-14 -3 -39 -9 -57 -13 -64 -16 -128 -107 -117 -165 8
-40 80 -76 138 -68 86 12 153 68 172 144 17 67 5 87 -60 99 -28 5 -63 6 -76 3z"/>
<path d="M18353 13423 c-13 -2 -23 -8 -23 -13 0 -5 -8 -11 -18 -14 -45 -15
-69 -118 -34 -148 9 -8 40 -20 69 -26 42 -9 58 -9 85 3 45 20 68 39 68 58 0 9
5 19 10 22 6 3 10 32 10 64 l0 57 -72 1 c-40 0 -83 -2 -95 -4z"/>
<path d="M17060 13273 c0 -41 -5 -74 -12 -82 -10 -11 -10 -14 0 -18 15 -6 17
-215 2 -244 -7 -13 -7 -19 0 -19 11 0 14 -287 4 -327 -6 -22 -12 -24 -132 -39
-46 -5 -59 -12 -103 -55 -49 -48 -50 -48 -47 -108 l2 -59 59 -6 c97 -12 142 0
195 51 l47 44 1 96 c1 65 6 98 14 103 10 6 9 12 -4 26 -16 15 -17 35 -14 166
2 117 6 151 18 158 12 8 12 11 -3 28 -18 20 -23 96 -8 120 12 20 88 -1 114
-32 13 -14 27 -26 33 -26 24 0 80 -78 100 -140 l12 -35 1 40 c1 57 -53 153
-118 211 -29 26 -66 70 -83 98 -16 28 -40 66 -54 85 l-24 34 0 -70z"/>
<path d="M17706 13102 c-4 -6 -28 -8 -59 -5 -41 4 -61 1 -93 -16 -60 -31 -77
-55 -84 -115 l-6 -54 51 -14 c63 -17 125 -2 175 42 30 27 34 37 38 91 4 57 -7
94 -22 71z"/>
<path d="M16199 12612 c-8 -10 -18 -26 -22 -35 -3 -9 -11 -17 -17 -17 -5 0
-10 -8 -10 -17 0 -15 1 -15 13 2 8 10 19 15 25 11 17 -10 16 -168 0 -184 -10
-10 -10 -17 0 -32 19 -31 16 -254 -4 -285 -15 -23 -15 -25 0 -31 14 -5 16 -30
16 -184 0 -206 0 -207 -75 -190 -50 11 -102 5 -144 -16 -36 -19 -48 -17 -56 9
-5 16 -8 18 -12 7 -3 -8 -10 -19 -17 -25 -14 -12 -96 -173 -96 -188 0 -6 6 -3
13 8 15 19 37 13 37 -10 0 -18 57 -65 80 -65 11 0 28 -9 38 -20 18 -20 19 -20
43 -2 13 11 37 22 53 26 30 7 77 36 107 66 39 39 49 69 49 151 0 62 4 87 16
100 15 16 15 20 0 41 -13 18 -16 51 -16 166 0 164 2 167 77 131 48 -22 173
-141 173 -164 0 -7 7 -18 15 -25 8 -7 15 -23 15 -36 0 -47 18 -32 30 27 10 47
10 65 1 83 -10 18 -9 38 4 101 9 44 21 86 28 94 10 12 9 14 -7 8 -21 -8 -36 6
-36 36 0 25 -37 105 -67 145 -20 26 -22 36 -13 47 10 12 8 15 -12 15 -34 0
-118 87 -118 123 0 22 -5 27 -24 27 -26 0 -52 38 -65 93 -6 26 -7 27 -22 9z
m192 -324 c71 -69 109 -125 109 -164 0 -40 -24 -28 -70 36 -24 33 -47 60 -52
60 -4 0 -8 11 -8 25 0 18 -5 25 -20 25 -21 0 -70 47 -70 67 0 32 49 10 111
-49z m27 -185 c44 -47 53 -63 48 -84 -4 -21 -1 -28 15 -32 15 -4 20 -12 17
-28 -5 -34 -27 -35 -34 -2 -3 16 -16 36 -28 44 -44 29 -148 148 -143 163 11
29 69 1 125 -61z"/>
<path d="M21146 11544 c-9 -25 -7 -217 3 -233 8 -12 12 -12 25 -2 13 11 28 10
88 -9 40 -12 82 -26 93 -31 11 -4 76 -25 143 -46 82 -25 127 -44 134 -56 5
-10 8 -21 5 -23 -2 -3 -44 -14 -93 -25 -49 -11 -112 -27 -140 -35 -28 -8 -60
-14 -71 -14 -11 0 -37 -7 -56 -15 -42 -17 -103 -20 -112 -5 -4 6 -14 1 -25
-13 -10 -13 -44 -31 -77 -42 -173 -55 -241 -78 -270 -91 -17 -8 -35 -14 -41
-14 -5 0 -23 -7 -38 -15 -16 -8 -37 -15 -46 -15 -9 0 -20 -4 -23 -10 -3 -5
-14 -10 -23 -10 -9 0 -29 -6 -44 -14 -15 -8 -40 -17 -57 -21 -17 -4 -33 -11
-36 -16 -4 -5 -13 -9 -22 -9 -8 0 -29 -6 -46 -14 -18 -8 -75 -31 -127 -50 -52
-20 -103 -41 -112 -46 -10 -6 -25 -10 -34 -10 -9 0 -28 -6 -42 -14 -35 -17
-87 -35 -141 -49 l-44 -11 -53 58 c-29 32 -68 86 -86 121 -18 35 -35 61 -38
59 -3 -3 -7 -73 -10 -156 l-5 -149 -45 -18 c-45 -18 -90 -33 -205 -66 -33 -10
-67 -21 -76 -26 -9 -4 -34 -11 -55 -15 -22 -3 -43 -10 -49 -14 -5 -4 -30 -12
-55 -18 -25 -6 -71 -18 -102 -27 -205 -56 -267 -71 -483 -119 -33 -7 -67 -16
-75 -20 -26 -11 -60 37 -62 87 -1 33 -3 28 -7 -22 -4 -42 -11 -66 -21 -71 -54
-27 -106 -37 -295 -60 -44 -5 -89 -14 -100 -19 -11 -5 -67 -12 -124 -15 -57
-3 -109 -10 -115 -16 -13 -13 -112 -13 -137 0 -18 10 -19 26 -19 425 l0 415
-380 0 -380 0 0 -406 c0 -274 -4 -412 -11 -426 -8 -14 -8 -23 0 -31 14 -14 15
-204 1 -212 -6 -4 -17 -2 -24 5 -23 19 -174 14 -214 -7 -89 -46 -132 -107
-132 -185 0 -61 -1 -62 -52 -58 -39 2 -35 -17 5 -23 17 -2 46 -9 62 -15 74
-26 145 -42 188 -42 40 0 46 3 49 22 2 12 12 27 23 33 43 22 84 57 104 89 19
30 21 49 21 198 0 133 3 168 15 178 17 14 672 11 693 -3 15 -12 17 -183 2
-192 -6 -4 -18 -1 -26 6 -10 8 -45 13 -99 12 -79 -1 -86 -3 -140 -38 -92 -61
-132 -143 -101 -206 28 -57 57 -72 148 -72 84 0 125 14 181 63 62 54 67 72 67
253 0 122 3 168 13 174 6 4 39 11 72 15 33 4 119 14 190 22 72 9 173 22 225
30 279 44 284 45 297 34 10 -8 13 -70 13 -268 0 -302 6 -287 -112 -300 -40 -5
-86 -13 -101 -19 -16 -6 -47 -11 -71 -11 -23 0 -68 -7 -99 -15 -32 -8 -87 -15
-122 -15 -35 0 -99 -7 -142 -15 -60 -12 -164 -15 -453 -16 -219 0 -367 -4
-355 -9 28 -12 751 -12 800 0 22 5 85 12 140 16 55 3 114 10 130 15 17 5 66
14 110 19 44 5 116 15 161 22 120 17 115 23 112 -139 l-3 -138 -25 3 c-91 12
-177 6 -220 -15 -84 -40 -140 -113 -140 -182 0 -55 57 -110 114 -112 125 -4
180 14 247 84 50 50 67 124 50 213 -6 34 -11 108 -11 165 1 147 2 148 180 180
30 5 62 14 70 18 9 5 40 12 70 16 30 4 60 10 65 14 6 3 35 11 65 18 123 26
156 34 170 42 9 5 36 12 60 16 24 4 51 11 60 16 8 4 33 12 55 17 22 6 65 18
95 27 30 8 72 20 93 26 21 5 45 13 55 18 34 17 120 41 146 41 25 0 26 -2 26
-63 0 -35 -2 -66 -5 -69 -3 -3 -29 1 -58 10 -168 49 -365 -99 -318 -239 35
-104 235 -108 344 -7 57 53 67 91 67 245 l0 142 46 21 c26 11 53 20 60 20 8 0
22 4 32 10 37 21 109 43 147 44 38 1 40 -1 43 -32 4 -44 22 -30 22 17 0 42 21
63 76 77 15 4 39 13 53 20 14 8 34 14 43 14 9 0 19 4 23 9 3 5 19 12 36 16 17
4 42 13 57 21 15 8 33 14 40 14 7 0 20 4 30 10 22 13 174 70 185 70 5 0 23 6
40 14 34 15 286 98 372 122 28 7 73 20 100 28 88 24 165 39 171 33 4 -3 -3
-22 -15 -42 -89 -151 117 -239 277 -118 40 30 62 80 70 163 l7 64 44 13 c25 7
99 18 165 23 67 6 148 14 181 17 83 7 86 1 83 -128 l-3 -104 -90 3 c-49 2
-102 -1 -117 -7 -37 -14 -104 -76 -123 -113 -19 -40 -19 -59 3 -97 35 -64 145
-77 237 -30 101 52 115 90 115 303 0 113 4 166 12 174 15 15 229 16 373 1 55
-5 129 -12 165 -15 71 -5 219 -29 290 -46 25 -6 59 -13 75 -15 17 -2 55 -11
85 -19 30 -9 80 -23 110 -31 30 -9 62 -19 70 -23 9 -4 30 -11 48 -14 17 -4 34
-12 37 -17 4 -5 14 -9 23 -9 9 0 29 -6 44 -14 15 -8 40 -17 57 -21 17 -4 31
-11 31 -16 0 -5 7 -9 15 -9 13 0 114 -46 155 -71 8 -5 26 -14 40 -19 14 -6 32
-23 41 -39 13 -23 22 -28 42 -24 16 3 32 -1 42 -11 9 -9 25 -16 36 -16 10 0
19 -7 19 -15 0 -8 5 -15 11 -15 6 0 17 -7 25 -15 17 -17 49 -21 39 -5 -3 6
-11 10 -16 10 -5 0 -20 9 -32 21 -12 11 -45 34 -73 50 -29 16 -59 41 -69 55
-13 20 -22 24 -41 20 -17 -5 -26 -2 -30 9 -4 8 -14 15 -24 15 -10 0 -25 6 -32
13 -7 8 -26 17 -41 21 -15 3 -27 11 -27 16 0 6 -7 10 -16 10 -9 0 -28 6 -42
13 -15 8 -42 21 -60 30 -19 9 -42 17 -52 17 -9 0 -23 7 -30 15 -7 8 -23 15
-35 15 -13 0 -36 6 -52 14 -40 20 -92 37 -138 46 -22 4 -53 12 -70 18 -47 16
-115 33 -170 42 -27 4 -75 13 -105 19 -137 27 -301 42 -498 45 -120 1 -217 7
-223 13 -6 6 -8 119 -7 294 l3 284 255 3 c150 1 288 -2 335 -9 44 -6 112 -14
150 -19 39 -4 90 -12 115 -18 66 -16 139 -32 185 -41 23 -4 47 -11 55 -16 7
-4 30 -12 49 -16 20 -4 52 -13 71 -19 61 -22 114 -42 147 -56 17 -8 38 -14 47
-14 9 0 16 -4 16 -10 0 -5 5 -10 11 -10 20 0 172 -71 177 -82 2 -5 10 -8 17
-8 8 0 23 -13 34 -29 15 -20 31 -30 60 -34 23 -3 51 -16 68 -31 15 -14 37 -26
48 -25 18 0 18 1 -2 9 -13 5 -23 14 -23 20 0 5 -7 10 -15 10 -9 0 -18 7 -21
15 -4 8 -13 15 -21 15 -8 0 -31 18 -52 40 -23 25 -45 39 -57 38 -10 -2 -66 20
-124 48 -138 68 -175 84 -192 84 -7 0 -22 7 -32 15 -11 8 -30 15 -42 15 -13 0
-25 4 -29 9 -3 5 -20 12 -38 16 -17 4 -52 13 -77 20 -113 35 -154 45 -177 45
-13 0 -33 5 -44 11 -11 6 -50 14 -87 19 -37 5 -101 13 -142 19 -165 22 -314
32 -483 31 -145 -1 -181 1 -190 13 -7 8 -86 38 -177 67 -91 28 -172 55 -180
60 -9 4 -31 11 -50 15 -19 4 -41 11 -50 16 -8 4 -69 24 -135 44 -66 20 -129
40 -140 44 -11 5 -67 23 -125 41 -58 17 -115 36 -128 41 -30 12 -29 12 -36 -7z
m719 -439 c39 -13 77 -25 85 -25 8 0 28 -7 44 -15 15 -8 35 -15 43 -15 8 0 37
-10 64 -21 l49 -21 0 -209 c0 -241 6 -229 -104 -229 -37 0 -110 -6 -164 -14
-87 -13 -164 -20 -200 -17 -10 1 -12 61 -10 283 l3 282 55 12 c30 6 57 12 60
13 3 0 37 -10 75 -24z m-221 -31 c3 -9 6 -130 6 -270 0 -241 -1 -255 -20 -274
-12 -12 -33 -20 -55 -20 -19 0 -61 -6 -93 -14 -31 -8 -91 -22 -132 -31 -41 -9
-97 -22 -125 -30 -27 -7 -67 -16 -87 -20 -33 -5 -37 -4 -31 12 4 10 16 31 27
46 15 20 22 48 24 99 l4 71 -26 -5 c-15 -3 -44 1 -65 8 -109 37 -270 -64 -271
-172 0 -33 6 -46 33 -71 17 -16 40 -33 50 -36 30 -11 19 -22 -50 -45 -38 -13
-77 -27 -88 -32 -11 -4 -67 -25 -125 -46 -58 -20 -109 -41 -114 -46 -6 -4 -16
-8 -24 -8 -8 0 -28 -6 -45 -14 -35 -14 -100 -40 -159 -62 -21 -8 -55 -21 -75
-29 -21 -8 -49 -16 -63 -18 l-25 -2 -6 115 c-3 70 -12 132 -22 159 -23 59 -72
143 -97 166 -31 28 -26 62 11 70 17 4 42 13 57 21 15 8 33 14 40 14 7 0 20 4
30 9 9 5 46 19 82 32 36 12 69 26 75 31 5 4 16 8 25 8 8 0 27 6 42 14 15 8 40
17 57 21 17 4 33 11 36 16 4 5 13 9 22 9 8 0 29 6 46 14 18 7 52 21 77 31 25
9 60 23 78 31 18 8 37 14 43 14 6 0 25 6 42 13 34 14 40 17 207 73 116 40 176
47 190 24 8 -12 10 -10 10 7 0 25 40 47 115 63 22 5 63 14 90 20 28 6 65 16
84 22 37 11 118 25 162 27 16 0 29 -5 33 -15z m-3966 -683 c1 -168 -1 -308 -6
-313 -27 -27 -669 -19 -697 9 -13 12 -15 63 -15 302 0 211 3 290 12 299 9 9
97 12 358 10 l345 -3 3 -304z m2228 107 c95 -72 182 -219 145 -243 -6 -3 -15
4 -21 16 -14 25 -42 58 -127 148 -61 64 -71 80 -56 94 12 12 30 7 59 -15z
m-176 -302 l0 -274 -34 -16 c-19 -9 -43 -16 -54 -16 -12 0 -23 -4 -27 -9 -3
-5 -20 -12 -38 -16 -38 -8 -126 -35 -147 -45 -9 -4 -31 -11 -50 -14 -19 -4
-44 -11 -55 -16 -11 -4 -40 -13 -65 -20 -25 -6 -70 -18 -100 -26 -30 -8 -75
-20 -100 -25 -25 -6 -54 -14 -65 -19 -11 -5 -40 -12 -65 -16 -24 -3 -51 -10
-60 -14 -17 -9 -95 -26 -183 -40 -32 -6 -67 -15 -78 -21 -29 -15 -64 -4 -77
26 -8 17 -12 100 -12 251 0 212 1 228 21 255 13 18 29 29 44 29 13 0 26 4 29
9 3 4 34 12 68 15 34 4 67 11 73 14 5 4 35 12 65 19 133 28 156 34 184 42 31
9 100 28 199 55 74 20 165 46 212 61 22 7 67 20 100 30 33 10 76 23 95 30 54
20 104 32 113 28 4 -2 7 -127 7 -277z m116 152 c61 -26 163 -128 191 -188 46
-101 47 -102 21 -122 -13 -10 -34 -21 -48 -24 -14 -3 -34 -10 -45 -15 -72 -32
-182 -62 -196 -54 -10 7 -13 408 -2 418 11 11 28 8 79 -15z m-1372 -1153 c15
-22 15 -28 2 -54 -35 -66 -148 -131 -231 -131 -57 0 -75 12 -75 51 0 60 149
158 241 159 39 0 49 -4 63 -25z"/>
<path d="M23856 11259 c-4 -8 -5 -73 -4 -145 l3 -129 27 3 c14 1 29 -2 33 -8
3 -5 13 -10 22 -10 53 0 222 -126 223 -166 0 -7 7 -14 15 -18 8 -3 15 -10 15
-16 0 -6 7 -18 15 -26 8 -9 15 -25 15 -37 0 -12 7 -31 15 -41 13 -17 15 -17
15 -4 0 9 -4 20 -10 23 -5 3 -10 19 -10 34 0 15 -7 36 -15 47 -8 10 -15 24
-15 30 0 15 -69 118 -81 122 -5 2 -9 7 -9 12 0 4 -40 50 -90 101 -49 51 -90
99 -90 106 0 7 -4 13 -9 13 -8 0 -16 15 -47 95 -9 22 -14 26 -18 14z"/>
<path d="M15529 10745 l-4 -280 -30 -9 c-16 -5 -36 -10 -42 -12 -10 -3 -13
-92 -13 -404 0 -355 -2 -401 -16 -407 -8 -3 -20 -1 -27 6 -26 26 -129 4 -186
-41 -35 -27 -61 -73 -61 -108 0 -24 9 -36 42 -60 52 -38 85 -38 162 0 106 53
101 27 97 460 -3 411 -3 412 52 391 24 -9 26 -15 30 -93 2 -46 9 -101 15 -123
8 -26 12 -187 14 -465 1 -265 4 -370 7 -280 4 87 11 154 19 167 17 30 15 109
-4 160 -16 40 -16 46 1 89 9 25 23 48 31 51 17 6 19 59 3 69 -7 4 -8 20 -4 43
3 20 8 61 10 91 4 48 3 51 -6 23 -24 -81 -54 -31 -45 75 5 56 4 79 -7 96 -23
35 -30 81 -14 95 17 14 33 -1 40 -39 l4 -25 2 26 c1 33 25 56 38 37 23 -37 33
-63 33 -89 0 -19 5 -29 15 -29 8 0 15 -4 15 -10 0 -5 6 -10 14 -10 17 0 10 34
-10 51 -23 19 -17 66 11 85 20 13 48 15 164 12 l140 -3 3 30 c3 28 6 30 41 29
20 -1 37 3 37 7 0 5 -6 9 -13 9 -19 0 -67 53 -67 73 0 12 -8 17 -30 17 -44 0
-150 105 -150 150 0 27 -3 31 -22 28 -19 -3 -22 -9 -22 -55 -1 -29 2 -53 6
-53 5 0 8 5 8 10 0 26 31 18 65 -15 47 -48 35 -67 -39 -63 -44 3 -51 6 -56 27
l-5 24 -12 -27 c-11 -22 -19 -26 -56 -26 -24 0 -52 6 -62 14 -14 10 -23 11
-37 3 -24 -16 -31 -5 -41 66 -10 72 -10 136 -2 225 5 42 3 67 -5 77 -6 8 -15
54 -19 102 -6 70 -9 30 -12 -192z"/>
<path d="M23635 10140 c-11 -4 -41 -16 -68 -25 -69 -24 -143 -102 -151 -159
-17 -112 37 -166 166 -166 37 0 76 4 86 10 9 5 33 16 52 25 98 44 156 154 136
260 -6 31 -11 35 -37 35 -16 0 -46 7 -66 15 -39 16 -86 18 -118 5z"/>
<path d="M22640 10006 c0 -72 -4 -96 -15 -106 -12 -10 -55 -12 -178 -8 -377
12 -772 -29 -1127 -117 -196 -49 -238 -60 -280 -73 -197 -65 -345 -115 -390
-132 -30 -12 -66 -25 -80 -30 -14 -5 -50 -18 -80 -30 -30 -12 -66 -25 -80 -30
-24 -7 -51 -18 -117 -46 -17 -8 -38 -14 -46 -14 -9 0 -18 -4 -22 -9 -3 -5 -19
-12 -36 -16 -17 -4 -42 -13 -57 -21 -15 -8 -34 -14 -43 -14 -8 0 -19 -4 -25
-9 -5 -4 -43 -19 -84 -32 -41 -12 -79 -26 -85 -30 -5 -4 -26 -10 -45 -14 -19
-4 -39 -11 -45 -15 -5 -4 -26 -11 -45 -15 -19 -4 -39 -11 -45 -15 -5 -4 -27
-11 -49 -14 -21 -4 -46 -11 -55 -16 -9 -5 -50 -19 -91 -30 -41 -12 -86 -25
-100 -29 -14 -5 -52 -16 -85 -25 -33 -9 -81 -24 -106 -32 -32 -9 -93 -14 -192
-14 -80 0 -152 -3 -161 -6 -9 -3 -16 -17 -16 -29 0 -31 -25 -55 -58 -55 -24 0
-59 -7 -212 -42 -25 -5 -74 -14 -110 -19 -36 -5 -85 -13 -110 -18 -25 -6 -66
-10 -91 -11 -25 0 -59 -5 -75 -10 -58 -20 -575 -53 -724 -46 -63 3 -131 2
-150 -2 -88 -20 363 -30 515 -11 44 5 141 14 215 19 74 5 153 14 175 19 22 6
60 11 85 11 25 0 61 5 80 11 19 5 67 14 105 19 74 9 136 21 251 47 106 24 104
27 104 -131 l0 -136 26 10 c34 13 535 13 570 0 18 -7 30 -7 39 0 20 17 510 9
510 -8 0 -12 -179 -81 -213 -82 -8 0 -28 -6 -45 -13 -18 -8 -59 -22 -92 -32
-33 -9 -78 -23 -100 -31 -22 -7 -51 -11 -65 -8 -18 4 -31 -1 -44 -15 -11 -12
-28 -21 -39 -21 -10 0 -40 -7 -66 -15 -25 -8 -75 -21 -111 -30 -36 -9 -87 -23
-114 -31 -26 -8 -57 -14 -68 -14 -10 0 -42 -7 -69 -16 -36 -12 -59 -14 -82 -7
-26 7 -35 6 -47 -10 -10 -12 -37 -22 -75 -28 -153 -22 -202 -31 -230 -39 -16
-5 -61 -12 -100 -15 -38 -3 -88 -10 -110 -16 -22 -5 -98 -14 -170 -19 -71 -6
-149 -13 -173 -16 -30 -4 -49 -2 -67 10 -22 15 -25 24 -27 84 l-1 67 -6 -70
c-3 -38 -10 -76 -14 -82 -6 -10 -64 -13 -233 -13 -143 0 -224 -4 -224 -10 0
-6 32 -11 73 -11 39 -1 144 -4 232 -8 l160 -6 3 -284 c2 -216 -1 -287 -10
-299 -11 -13 -45 -14 -253 -8 -132 4 -242 11 -245 15 -3 5 -48 12 -100 16 -52
4 -99 10 -105 15 -5 4 -37 10 -69 14 -33 4 -64 10 -70 15 -6 4 -32 11 -58 14
-26 4 -56 11 -65 16 -10 6 -35 13 -55 16 -21 3 -38 10 -38 15 0 6 -14 10 -30
10 -30 0 -90 35 -90 52 0 5 10 12 23 17 34 14 104 77 124 114 14 26 19 64 23
197 l5 165 64 -4 c45 -2 62 0 57 8 -4 6 -27 11 -51 11 -69 0 -75 12 -75 151 0
134 7 147 62 116 17 -9 34 -17 40 -17 21 0 107 -77 150 -135 72 -95 85 -166
28 -150 -18 4 -118 9 -140 5 -30 -4 36 -18 93 -19 31 -1 57 -4 57 -9 0 -4 10
-12 23 -17 19 -9 23 -19 27 -90 l5 -80 7 73 c4 39 10 77 13 82 3 6 45 10 92
10 105 0 101 13 -8 21 -43 3 -81 8 -84 11 -4 3 -7 109 -8 235 -1 161 -6 234
-14 244 -7 8 -16 33 -21 56 -10 46 -4 51 63 54 29 1 30 1 5 9 -14 4 -43 8 -64
9 -36 1 -46 9 -135 102 -127 135 -191 223 -191 263 0 9 -4 16 -10 16 -6 0 -10
-56 -10 -148 0 -102 -4 -152 -12 -160 -7 -7 -32 -12 -58 -12 -33 0 -41 -3 -30
-10 8 -5 27 -10 42 -10 54 0 58 -20 58 -290 0 -135 -4 -250 -8 -257 -4 -6 -23
-15 -42 -20 l-35 -10 33 -7 c44 -10 52 -31 52 -126 0 -90 -10 -104 -57 -79
-39 21 -158 15 -215 -10 -57 -26 -125 -91 -134 -129 -4 -15 -11 -33 -17 -39
-11 -15 -57 -17 -57 -3 0 6 -10 15 -22 20 -25 11 -60 32 -68 40 -14 15 -64 50
-71 50 -5 0 -9 -4 -9 -10 0 -5 7 -10 15 -10 7 0 18 -6 22 -12 9 -15 41 -36 66
-44 9 -4 17 -10 17 -15 0 -6 8 -13 18 -17 26 -10 102 -66 102 -74 0 -5 8 -16
18 -25 35 -34 80 -53 129 -53 26 -1 59 -7 73 -15 14 -8 37 -14 53 -15 15 0 27
-4 27 -10 0 -5 18 -13 40 -16 22 -4 40 -10 40 -15 0 -5 23 -11 50 -15 28 -4
50 -10 50 -15 0 -4 27 -11 60 -15 33 -4 60 -10 60 -14 0 -5 30 -12 68 -16 37
-3 69 -10 72 -15 3 -4 48 -11 100 -15 52 -4 98 -11 101 -16 3 -4 113 -11 245
-14 272 -7 264 -4 264 -91 0 -59 -17 -76 -52 -54 -27 16 -87 16 -145 0 -35
-10 -63 -30 -105 -71 -39 -39 -66 -58 -82 -58 -14 0 -28 -4 -31 -10 -3 -5 3
-10 15 -10 13 0 27 -12 38 -31 31 -58 59 -84 104 -97 37 -11 53 -11 102 2 59
16 92 36 155 95 21 20 43 31 62 31 16 0 29 5 29 10 0 6 -13 10 -29 10 -17 0
-32 4 -35 8 -2 4 -8 57 -12 118 -6 98 -5 111 11 124 13 11 68 18 194 27 265
18 403 32 429 43 13 6 42 10 65 10 23 1 62 5 87 11 25 6 74 14 109 19 35 5 77
14 95 19 28 8 70 17 191 41 88 17 306 74 515 135 142 41 168 49 200 60 19 7
100 34 180 60 80 25 154 50 165 55 11 4 49 18 85 30 36 12 72 25 80 30 9 4 30
11 48 14 17 4 34 12 37 17 4 5 14 9 23 9 9 0 30 7 46 15 15 8 33 15 38 15 6 0
24 6 41 14 18 7 50 20 72 29 22 8 60 23 85 32 89 34 116 44 170 61 30 9 71 22
90 29 19 7 62 20 95 29 33 10 80 24 105 32 25 8 55 14 68 14 13 0 31 4 41 10
10 5 43 14 72 19 30 6 88 18 129 26 214 45 588 85 791 85 110 0 245 -10 419
-31 177 -21 219 -28 239 -38 11 -6 33 -11 50 -11 16 0 42 -5 58 -11 15 -7 46
-15 68 -20 61 -12 126 -30 162 -45 17 -8 39 -14 50 -14 10 0 27 -7 37 -15 11
-8 26 -15 35 -15 29 0 91 -35 96 -55 3 -11 4 -137 3 -280 l-3 -260 -25 1 c-14
1 -40 8 -57 15 -29 12 -40 11 -90 -6 -145 -47 -206 -165 -125 -240 22 -21 37
-25 87 -25 82 0 148 33 196 98 l24 34 5 326 c5 297 7 327 22 330 15 3 84 -29
225 -102 18 -10 35 -21 38 -27 4 -5 15 -9 26 -9 11 0 22 -6 25 -14 3 -8 16
-17 30 -20 13 -4 24 -11 24 -16 0 -6 7 -10 15 -10 7 0 18 -6 22 -12 4 -7 25
-22 47 -33 21 -10 42 -30 47 -42 5 -13 14 -23 21 -23 7 0 24 -3 38 -6 23 -5
24 -5 5 7 -11 6 -35 29 -54 50 -22 25 -43 39 -58 39 -13 0 -26 6 -29 14 -3 8
-16 17 -30 20 -13 4 -24 11 -24 16 0 6 -7 10 -15 10 -9 0 -18 7 -21 15 -4 8
-15 15 -25 15 -11 0 -22 7 -25 15 -4 8 -14 15 -24 15 -11 0 -22 5 -25 11 -4 5
-17 14 -28 20 -12 5 -31 14 -42 21 -41 23 -50 28 -65 34 -45 17 -106 49 -112
58 -4 6 -8 50 -8 97 0 83 1 86 30 107 16 12 38 22 48 22 11 0 25 7 32 15 7 8
21 15 30 15 10 0 31 6 47 14 15 8 46 22 68 32 22 9 52 23 67 31 14 7 34 13 43
13 9 0 23 7 31 15 9 8 24 15 34 15 10 0 22 5 25 10 10 16 47 12 60 -6 18 -26
53 -10 47 21 -3 18 1 27 14 32 11 4 25 13 32 20 7 7 24 13 36 13 13 0 29 7 36
15 7 8 21 15 32 15 11 0 26 7 34 15 9 8 26 15 38 15 13 0 29 7 36 15 7 8 21
15 32 15 11 0 26 7 34 15 9 8 24 15 35 15 11 0 27 7 35 15 9 8 30 15 47 15
l32 0 -3 75 c-3 60 -7 75 -19 75 -9 0 -21 -8 -28 -17 -12 -16 -14 -16 -38 0
-34 22 -33 22 -40 -13 -5 -25 -12 -30 -34 -30 -16 0 -37 -7 -47 -15 -11 -8
-28 -15 -39 -15 -10 0 -25 -7 -33 -15 -9 -8 -25 -15 -37 -15 -12 0 -31 -7 -41
-15 -11 -8 -30 -15 -43 -15 -13 0 -23 -4 -23 -9 0 -5 -14 -13 -32 -16 -18 -4
-39 -11 -48 -15 -62 -29 -89 -40 -113 -46 -15 -3 -29 -10 -32 -14 -3 -5 -18
-2 -33 6 -15 7 -32 14 -39 14 -6 0 -13 4 -15 8 -4 11 -207 112 -224 112 -8 0
-14 4 -14 9 0 5 -15 13 -32 16 -18 4 -37 11 -43 15 -5 3 -39 17 -75 29 -36 13
-74 27 -85 31 -11 5 -45 15 -75 24 -157 43 -202 59 -212 76 -10 16 -14 16 -22
4 -10 -12 -24 -12 -106 2 -52 9 -115 18 -140 20 -100 10 -90 -13 -90 219 0
199 1 205 20 205 11 0 28 -4 38 -9 9 -4 35 -17 57 -27 104 -50 212 -206 225
-326 6 -62 6 -62 14 -25 5 21 6 106 4 190 -5 149 -6 153 -38 212 -18 33 -46
80 -62 104 -35 52 -27 65 34 58 66 -8 161 -27 183 -37 11 -5 39 -12 62 -15 24
-4 45 -10 48 -15 3 -4 25 -11 50 -14 24 -4 47 -11 50 -17 4 -5 16 -9 29 -9 12
0 31 -7 42 -15 10 -8 28 -15 40 -15 11 0 29 -7 40 -15 10 -8 28 -15 40 -15 11
0 29 -7 40 -15 10 -8 26 -15 35 -15 9 0 22 -7 29 -15 7 -8 23 -15 35 -15 13 0
25 -7 29 -15 3 -8 15 -15 26 -15 12 0 28 -7 36 -15 9 -8 24 -15 34 -15 10 0
20 -7 24 -15 3 -8 12 -15 21 -15 8 0 34 -13 57 -30 22 -16 45 -30 50 -30 5 0
16 -7 24 -15 17 -17 49 -21 39 -5 -3 6 -13 10 -21 10 -8 0 -14 4 -14 9 0 5
-10 13 -22 17 -13 4 -25 10 -28 13 -9 12 -127 81 -139 81 -6 0 -11 4 -11 9 0
5 -13 12 -30 16 -16 4 -30 10 -30 15 0 5 -13 11 -30 15 -16 4 -30 11 -30 16 0
5 -9 9 -19 9 -11 0 -26 7 -35 15 -8 8 -22 15 -31 15 -9 0 -29 6 -43 13 -15 8
-42 21 -60 30 -19 9 -41 17 -50 17 -9 0 -30 7 -46 15 -15 8 -35 15 -43 15 -8
0 -29 6 -46 14 -40 17 -106 34 -177 47 -30 6 -59 14 -64 20 -6 5 -26 9 -46 9
-20 0 -59 7 -86 15 -27 8 -58 15 -69 15 -40 0 -185 176 -185 224 0 9 -7 16
-15 16 -12 0 -15 -17 -15 -94z m-25 -160 l25 -16 0 -290 c0 -338 3 -326 -89
-313 -138 20 -662 2 -801 -27 -25 -5 -76 -14 -115 -20 -130 -20 -189 -30 -220
-40 -16 -5 -52 -14 -80 -20 -116 -26 -162 -38 -320 -86 -27 -8 -63 -19 -80
-24 -41 -11 -102 -33 -220 -77 -22 -9 -57 -21 -77 -29 -21 -8 -55 -20 -75 -28
-119 -44 -196 -73 -240 -92 -17 -8 -38 -14 -46 -14 -9 0 -19 -4 -22 -10 -3 -5
-14 -10 -23 -10 -9 0 -30 -7 -47 -16 -16 -8 -45 -16 -65 -17 l-35 -2 -5 175
-5 175 -355 5 c-195 3 -356 7 -358 8 -11 7 14 21 48 27 22 4 42 10 45 15 3 4
25 11 50 14 24 4 47 11 50 15 2 5 25 12 50 15 24 4 47 11 50 17 4 5 15 9 27 9
11 0 34 6 51 13 18 8 79 29 137 47 100 31 126 40 223 76 65 25 119 45 157 59
19 7 55 21 80 30 25 9 63 24 85 32 86 32 121 46 152 59 17 8 37 14 45 14 8 0
18 4 23 9 6 4 44 19 85 32 41 12 80 26 85 30 6 4 26 10 45 14 19 4 41 11 50
16 8 4 49 18 90 29 126 36 133 39 187 55 28 8 58 15 66 15 8 0 37 6 63 14 160
46 480 98 714 117 80 6 150 13 155 15 6 2 101 2 212 0 167 -3 207 -6 228 -20z
m166 -53 c34 -17 79 -53 110 -88 46 -52 56 -66 73 -102 11 -21 23 -46 27 -55
11 -23 11 -65 0 -72 -4 -3 -23 18 -42 47 -18 29 -66 86 -105 127 -96 99 -117
128 -110 145 7 19 6 19 47 -2z m-155 -618 c11 -15 14 -45 12 -120 l-3 -100
-30 2 c-16 0 -49 7 -73 14 -47 15 -102 5 -181 -33 -111 -53 -173 -177 -124
-248 24 -35 41 -47 98 -66 47 -15 54 -15 123 2 39 10 72 22 72 26 0 4 6 8 13
8 8 0 34 20 59 44 66 66 78 112 78 312 0 89 4 165 9 168 5 4 31 2 58 -4 26 -5
82 -14 123 -20 126 -18 141 -22 147 -36 4 -11 8 -12 19 -3 11 9 21 9 40 0 14
-6 37 -11 52 -11 15 0 40 -7 56 -15 15 -8 39 -15 53 -15 13 0 34 -5 46 -12 12
-6 35 -15 52 -19 48 -12 107 -34 203 -75 20 -9 51 -22 67 -30 73 -31 171 -80
188 -93 9 -8 17 -20 17 -28 0 -7 -8 -16 -17 -19 -21 -7 -76 -31 -116 -50 -16
-8 -35 -14 -42 -14 -7 0 -26 -6 -42 -14 -15 -8 -45 -22 -65 -32 l-38 -19 0
-160 c0 -177 -4 -192 -48 -169 -15 8 -34 14 -42 14 -8 0 -24 7 -34 15 -11 8
-28 15 -38 15 -9 0 -32 6 -50 14 -18 8 -60 22 -93 31 -33 10 -71 22 -85 27
-14 6 -47 14 -75 18 -27 5 -72 14 -100 20 -27 6 -71 16 -97 21 -26 6 -84 15
-130 20 -46 4 -119 13 -163 18 -101 13 -465 13 -570 1 -44 -5 -109 -12 -145
-15 -104 -9 -369 -56 -456 -81 -28 -8 -59 -14 -69 -14 -17 0 -51 -9 -175 -45
-146 -42 -331 -101 -365 -115 -11 -5 -45 -19 -75 -31 -30 -12 -69 -28 -87 -35
-17 -8 -35 -14 -41 -14 -5 0 -23 -7 -38 -15 -16 -8 -37 -15 -46 -15 -9 0 -20
-4 -23 -10 -3 -5 -14 -10 -23 -10 -9 0 -29 -6 -44 -14 -15 -8 -40 -17 -57 -21
-17 -4 -33 -11 -36 -16 -4 -5 -13 -9 -22 -9 -8 0 -29 -6 -46 -14 -125 -54
-163 -54 -139 -1 8 18 12 112 12 300 l0 274 33 15 c17 8 59 23 92 35 33 11 85
30 115 41 30 12 66 25 80 30 14 5 50 18 80 30 30 12 66 25 80 30 14 5 50 18
80 30 107 41 135 51 155 56 11 3 29 10 40 15 22 9 106 36 200 64 33 10 71 22
85 26 14 5 45 13 70 19 25 6 72 18 105 26 204 51 485 98 685 114 52 4 216 7
363 6 256 -1 269 -2 283 -21z m-3176 -300 c29 -35 -1 -40 -260 -43 -137 -2
-263 1 -282 6 -36 9 -50 38 -21 45 10 3 138 5 284 6 229 1 268 -1 279 -14z
m603 -4 c3 -11 2 -22 -1 -25 -3 -3 -131 -6 -284 -6 -263 0 -278 1 -278 18 0
10 3 22 7 25 3 4 129 7 279 7 261 0 272 -1 277 -19z m-3051 -147 c23 -15 62
-48 87 -74 40 -42 56 -67 102 -162 12 -24 11 -55 -1 -63 -6 -3 -13 2 -17 12
-8 23 -119 156 -168 203 -49 47 -78 88 -70 100 9 15 22 12 67 -16z m3053 -304
c0 -210 -1 -215 -20 -211 -11 2 -51 4 -90 4 -61 1 -76 -2 -112 -26 -50 -32
-93 -95 -93 -135 0 -17 10 -40 25 -56 14 -15 25 -31 25 -35 0 -16 -59 -38
-225 -86 -33 -9 -80 -23 -105 -31 -25 -8 -54 -14 -66 -14 -11 0 -24 -4 -30 -9
-5 -5 -31 -14 -59 -20 -27 -6 -79 -18 -115 -26 -114 -29 -193 -46 -255 -57
-33 -6 -69 -14 -80 -19 -11 -4 -54 -13 -95 -19 -41 -6 -118 -18 -170 -26 -254
-40 -623 -70 -666 -54 l-24 10 0 284 c0 206 3 287 12 292 15 10 124 22 288 33
74 5 148 14 163 20 16 6 52 11 81 11 28 0 78 7 109 15 32 8 73 15 91 15 18 0
55 7 82 15 57 17 120 20 129 5 4 -6 18 0 37 15 16 14 41 25 55 25 15 0 49 6
77 14 28 8 74 20 101 26 102 25 121 30 180 44 33 7 73 19 89 25 20 8 38 9 58
2 23 -8 30 -7 38 9 5 10 20 21 32 25 52 13 134 38 153 46 11 4 54 17 95 29 41
11 82 25 90 29 9 5 31 12 50 16 19 4 40 11 45 15 15 11 46 18 75 17 l25 -2 0
-215z m-2200 -1050 c15 -17 16 -24 7 -45 -12 -25 -13 -26 -114 -23 -112 3
-132 15 -76 45 88 47 154 55 183 23z"/>
<path d="M21065 9451 c-66 -17 -157 -89 -177 -139 -13 -33 -8 -117 8 -140 60
-86 236 -80 341 12 99 87 109 193 23 253 -26 18 -147 27 -195 14z m173 -67
c51 -35 16 -101 -88 -164 -44 -26 -69 -34 -122 -38 -74 -5 -98 5 -98 41 0 52
80 122 179 158 59 22 101 23 129 3z"/>
<path d="M18861 8224 c-1 -8 -29 -11 -88 -11 -79 1 -92 -1 -128 -25 -70 -45
-86 -69 -87 -128 0 -46 4 -56 29 -76 22 -19 40 -23 90 -24 69 0 108 16 161 68
30 28 35 40 39 95 3 34 0 73 -5 87 -6 14 -11 20 -11 14z"/>
<path d="M19289 8211 c-87 -28 -139 -87 -139 -158 0 -142 264 -117 319 30 6
16 11 51 11 78 0 45 -2 49 -24 49 -12 0 -50 2 -82 5 -32 2 -71 1 -85 -4z"/>
<path d="M15855 9641 c-3 -5 -19 -12 -35 -16 -17 -4 -30 -11 -30 -17 0 -6 -11
-8 -25 -6 -23 5 -30 -2 -26 -25 1 -4 -5 -23 -13 -42 -13 -30 -13 -40 -1 -69
16 -39 65 -66 118 -66 28 0 45 -9 83 -45 26 -25 52 -45 58 -45 6 0 -3 13 -20
28 -51 46 -67 92 -32 92 6 0 27 17 47 37 34 35 36 41 36 103 0 64 0 65 -27 62
-14 -2 -29 2 -33 7 -8 13 -92 15 -100 2z"/>
<path d="M16145 9181 c-2 -5 5 -11 16 -14 12 -3 19 -11 17 -18 -4 -13 -13 -19
-63 -39 -106 -43 -159 -88 -180 -153 -7 -22 -17 -33 -32 -35 -13 -2 -23 -6
-23 -9 0 -20 192 -223 232 -244 10 -6 19 -5 23 1 3 5 1 10 -6 10 -17 0 -92 78
-85 89 3 5 30 12 59 16 28 4 75 18 103 31 91 43 134 97 134 168 0 46 12 63 43
58 35 -6 15 15 -40 41 -77 36 -145 74 -152 85 -9 13 -40 22 -46 13z m146 -142
c37 -59 -51 -148 -192 -192 -59 -19 -92 -14 -118 17 -40 48 68 161 179 187 48
11 121 4 131 -12z"/>
<path d="M24355 8188 c-22 -6 -44 -12 -50 -14 -30 -12 -85 -58 -85 -73 0 -5
-7 -11 -15 -15 -10 -3 -15 -19 -15 -47 0 -92 109 -130 213 -75 48 26 87 59 87
75 0 5 7 11 15 15 18 7 21 101 3 112 -6 4 -28 11 -47 14 -20 4 -43 10 -51 12
-8 3 -33 1 -55 -4z"/>
<path d="M23768 7954 c-45 -24 -108 -103 -108 -136 0 -47 34 -86 83 -95 46
-10 142 3 164 21 75 61 82 73 89 131 7 53 5 59 -17 76 -30 23 -169 25 -211 3z"/>
<path d="M24040 6986 c0 -265 -3 -337 -13 -348 -8 -7 -44 -40 -81 -73 -37 -33
-88 -79 -114 -102 -26 -24 -50 -43 -54 -43 -3 0 -13 -6 -20 -13 -40 -40 -359
-266 -409 -291 -8 -3 -27 -15 -44 -26 -16 -10 -50 -29 -75 -42 -25 -13 -47
-25 -50 -29 -9 -9 -318 -165 -410 -206 -82 -37 -155 -67 -210 -88 -25 -10 -54
-21 -65 -26 -28 -12 -106 -39 -130 -46 -11 -3 -35 -12 -54 -20 -37 -17 -126
-12 -145 7 -5 5 -19 10 -29 10 -10 0 -33 6 -50 13 -63 27 -145 49 -156 43 -7
-5 -11 -43 -11 -100 l0 -93 -42 -15 c-24 -8 -70 -23 -103 -33 -33 -9 -78 -23
-100 -30 -22 -7 -69 -20 -105 -30 -36 -9 -85 -23 -110 -30 -107 -31 -160 -45
-342 -91 -35 -8 -86 -22 -114 -30 -28 -8 -59 -14 -68 -14 -9 0 -39 -7 -67 -16
-76 -25 -79 -22 -79 104 0 60 -3 111 -6 114 -3 3 -14 4 -25 1 -17 -5 -19 -15
-19 -124 0 -129 1 -128 -65 -140 -22 -5 -71 -15 -110 -24 -175 -39 -445 -91
-625 -121 -305 -50 -440 -70 -575 -84 -49 -6 -109 -15 -132 -20 -23 -6 -67
-10 -97 -10 l-56 0 0 141 0 140 -37 16 c-21 9 -51 19 -68 24 -28 7 -51 14
-135 44 -19 7 -62 21 -95 30 -33 10 -76 23 -95 30 -104 38 -202 65 -210 60 -6
-4 -10 -108 -10 -271 0 -203 -3 -266 -12 -269 -65 -23 -1100 -49 -1152 -29 -9
3 -16 15 -16 26 0 18 -2 18 -31 -6 -19 -17 -38 -24 -52 -21 -12 2 -114 9 -227
15 -135 8 -207 15 -212 23 -4 7 -8 44 -8 84 0 62 3 75 22 93 12 11 26 20 31
20 5 0 23 6 40 14 18 7 57 23 87 35 56 22 81 33 135 56 114 49 167 67 185 62
19 -5 20 -1 20 89 0 108 -3 111 -88 73 -26 -11 -58 -25 -72 -31 -14 -5 -38
-16 -55 -23 -16 -7 -50 -20 -75 -30 -25 -10 -60 -24 -77 -31 -18 -8 -48 -20
-65 -28 -18 -7 -53 -21 -78 -31 -25 -10 -60 -24 -77 -32 -65 -28 -99 -41 -143
-58 -25 -10 -60 -24 -77 -32 -18 -7 -47 -20 -65 -28 -18 -7 -49 -21 -70 -29
-20 -9 -41 -16 -47 -16 -7 0 -25 -10 -41 -22 -23 -16 -30 -30 -30 -55 0 -42
-18 -46 -125 -33 -44 5 -123 14 -175 20 -52 5 -111 14 -130 19 -19 6 -61 12
-93 14 -32 2 -63 9 -69 15 -7 7 -13 40 -16 74 -2 35 -10 77 -18 95 -8 17 -14
36 -14 42 0 6 -3 11 -8 11 -4 0 -16 16 -27 36 -11 20 -46 63 -78 97 -70 73
-117 131 -117 146 0 5 -9 15 -20 21 -20 11 -20 8 -20 -217 0 -125 -4 -234 -9
-242 -6 -9 -18 -12 -37 -7 -16 4 -56 11 -89 15 -34 4 -70 13 -82 19 -12 7 -40
12 -63 12 -22 0 -57 7 -77 15 -19 8 -50 15 -69 15 -18 0 -45 5 -61 11 -15 7
-48 15 -73 19 -55 9 -129 27 -191 46 -26 8 -60 14 -75 14 -16 1 -40 7 -54 15
-14 8 -38 14 -53 15 -15 0 -41 7 -57 15 l-30 16 0 289 c0 184 -4 290 -10 290
-6 0 -11 -107 -12 -287 l-3 -288 -25 2 c-28 2 -104 21 -135 34 -11 5 -38 13
-60 18 -97 23 -131 33 -146 41 -9 5 -34 12 -55 16 -22 3 -43 10 -49 14 -5 4
-26 11 -45 15 -19 4 -39 11 -45 15 -5 4 -29 11 -52 15 -24 4 -45 11 -49 16 -3
5 -15 9 -27 9 -12 0 -35 7 -51 15 -15 8 -36 15 -45 15 -9 0 -29 7 -45 15 -15
8 -35 15 -43 15 -8 0 -29 6 -46 13 -48 20 -98 38 -136 47 -18 5 -38 13 -44 19
-6 6 -20 11 -32 11 -11 0 -29 6 -40 14 -11 7 -31 16 -45 19 -50 11 -115 39
-135 57 -13 12 -25 16 -34 11 -8 -5 -24 -3 -40 4 -14 8 -46 21 -71 30 -25 10
-54 21 -65 26 -11 4 -45 18 -75 30 -116 47 -91 59 115 58 l160 -1 3 81 3 81
-291 0 -290 0 0 -40 c0 -33 -3 -40 -20 -40 -11 0 -28 4 -38 10 -31 17 -111 50
-121 50 -6 0 -11 5 -11 10 0 6 -7 10 -16 10 -9 0 -28 6 -42 14 -15 7 -58 28
-97 45 -121 56 -137 67 -160 107 -25 45 -84 69 -133 54 -25 -7 -56 6 -213 84
-101 50 -186 93 -189 96 -3 3 -30 18 -60 33 -70 35 -142 74 -155 84 -5 4 -32
19 -60 32 -27 14 -52 27 -55 30 -3 3 -27 17 -53 31 -53 27 -62 32 -124 73 -24
15 -49 27 -56 27 -7 0 -18 5 -24 11 -13 13 -30 23 -100 59 -26 14 -54 31 -61
38 -7 6 -21 12 -30 12 -13 0 -11 -5 8 -20 14 -11 34 -23 45 -26 11 -4 22 -10
25 -13 3 -4 34 -25 70 -46 99 -58 100 -59 100 -208 l0 -127 45 -12 c56 -15
140 -86 126 -107 -7 -11 -17 -9 -57 10 -27 13 -51 26 -54 29 -3 3 -17 13 -32
23 -16 10 -28 24 -28 32 0 9 -10 13 -28 13 -27 -1 -101 33 -130 60 -7 6 -20
12 -28 12 -8 0 -14 4 -14 9 0 5 -8 12 -17 15 -26 10 -77 38 -83 46 -9 13 -50
22 -50 11 0 -6 6 -11 14 -11 7 0 19 -7 26 -15 7 -8 21 -15 31 -15 11 0 19 -5
19 -11 0 -5 14 -15 30 -20 17 -6 30 -14 30 -19 0 -4 8 -10 18 -14 9 -3 31 -15
47 -26 17 -11 39 -24 50 -30 36 -18 59 -35 72 -51 6 -8 30 -21 53 -29 22 -7
43 -17 46 -21 2 -4 25 -18 52 -30 26 -13 52 -27 57 -31 6 -5 18 -14 28 -21 11
-7 21 -33 26 -62 6 -36 9 -41 10 -20 2 55 12 58 77 24 32 -17 74 -42 94 -54
19 -12 45 -25 58 -29 12 -4 22 -12 22 -17 0 -5 9 -9 19 -9 11 0 26 -6 33 -12
7 -7 49 -31 93 -52 44 -22 81 -43 83 -48 2 -4 12 -8 22 -8 9 0 23 -7 30 -15 7
-8 20 -15 30 -15 10 0 23 -7 30 -15 7 -8 20 -15 30 -15 10 0 23 -7 30 -15 7
-8 20 -15 30 -15 10 0 23 -7 30 -15 7 -8 17 -15 23 -15 5 0 65 -26 131 -59
114 -55 189 -91 369 -175 l77 -37 0 -160 c0 -123 -3 -161 -13 -165 -31 -11
-143 33 -375 147 -136 67 -248 126 -250 131 -2 4 -12 8 -22 8 -10 0 -22 4 -25
10 -3 5 -33 22 -65 37 -33 15 -60 31 -60 35 0 4 -9 8 -19 8 -11 0 -22 4 -25 9
-3 5 -43 28 -88 51 -46 23 -110 57 -143 75 -33 19 -82 46 -110 60 -27 14 -72
40 -100 56 -27 17 -62 35 -77 42 -16 6 -28 15 -28 19 0 4 -5 8 -11 8 -18 0
-150 83 -162 102 -7 10 -23 18 -39 18 -14 0 -33 6 -40 13 -7 6 -35 23 -61 37
-70 36 -87 46 -100 59 -6 6 -20 11 -32 10 -19 0 -19 -1 3 -11 12 -6 22 -14 22
-18 0 -5 11 -11 25 -14 14 -4 25 -11 25 -16 0 -6 6 -10 14 -10 8 0 21 -6 28
-12 19 -17 48 -36 76 -48 12 -5 34 -20 48 -34 35 -32 20 -39 -77 -40 -58 -1
-82 -5 -96 -18 -11 -10 -23 -18 -28 -18 -10 0 -33 -29 -45 -57 -11 -27 -63
-32 -86 -8 -17 17 -34 20 -34 6 0 -5 8 -11 18 -15 24 -8 50 -26 101 -68 24
-21 48 -38 54 -38 13 0 99 -42 113 -55 6 -5 28 -19 50 -30 21 -11 45 -26 52
-32 7 -7 19 -13 27 -13 7 0 15 -4 17 -8 4 -11 99 -68 126 -76 12 -4 22 -11 22
-16 0 -4 8 -10 18 -14 9 -3 31 -15 47 -26 17 -11 41 -25 55 -30 13 -6 27 -14
30 -18 3 -4 27 -18 53 -32 136 -70 127 -53 127 -252 0 -145 -2 -169 -16 -175
-9 -3 -19 -2 -23 3 -3 5 -17 15 -31 21 -14 7 -47 26 -75 42 -27 17 -59 35 -70
41 -11 6 -33 19 -50 30 -16 11 -39 24 -50 30 -11 6 -33 19 -50 30 -16 11 -39
24 -50 30 -11 6 -33 19 -50 30 -16 11 -39 24 -50 30 -11 6 -42 24 -70 41 -27
16 -61 35 -75 42 -14 6 -31 17 -38 24 -7 7 -18 13 -23 13 -9 0 -21 8 -53 37
-8 7 -25 15 -40 19 -14 3 -26 10 -26 14 0 4 -9 10 -20 13 -11 3 -20 1 -20 -4
0 -5 7 -9 15 -9 8 0 15 -4 15 -9 0 -5 14 -14 30 -20 17 -5 30 -15 30 -20 0 -6
6 -11 14 -11 8 0 21 -6 28 -12 16 -15 45 -34 73 -48 11 -6 34 -19 50 -30 17
-11 38 -23 48 -26 9 -4 17 -10 17 -14 0 -5 9 -12 21 -15 11 -4 40 -20 64 -36
24 -16 48 -29 54 -29 6 0 11 -4 11 -9 0 -5 10 -13 23 -17 12 -4 24 -10 27 -13
8 -12 105 -68 128 -75 12 -4 22 -11 22 -16 0 -4 8 -10 17 -14 10 -3 32 -15 48
-26 17 -11 42 -25 58 -31 15 -6 27 -15 27 -20 0 -5 6 -9 13 -9 18 0 47 -32 47
-52 0 -22 -18 -27 -59 -16 -108 30 -234 -48 -233 -144 1 -79 92 -111 188 -68
78 36 114 86 114 158 0 60 15 77 50 57 14 -8 39 -21 55 -29 17 -9 53 -29 80
-46 28 -16 59 -34 70 -40 11 -6 34 -19 50 -30 17 -11 37 -23 45 -27 8 -4 58
-33 111 -65 53 -32 102 -58 108 -58 6 0 11 -4 11 -10 0 -5 5 -10 11 -10 10 0
123 -63 179 -100 8 -6 26 -15 40 -21 13 -5 27 -13 30 -17 3 -4 25 -18 50 -30
25 -13 72 -39 105 -58 33 -18 69 -38 80 -44 11 -6 47 -25 80 -44 111 -61 170
-93 228 -125 31 -17 83 -45 115 -62 31 -18 75 -41 97 -52 22 -12 42 -23 45
-26 3 -4 41 -24 85 -45 44 -22 81 -43 83 -48 2 -4 11 -8 21 -8 9 0 21 -4 27
-10 19 -19 892 -460 911 -460 5 0 19 -10 31 -23 21 -22 22 -33 22 -181 l0
-158 -27 7 c-66 17 -140 17 -174 -1 -50 -25 -80 -51 -102 -87 -27 -44 -24 -84
9 -118 25 -26 34 -29 92 -29 92 0 160 41 193 118 16 37 19 70 19 226 0 119 4
186 11 193 10 10 69 -12 129 -48 8 -5 22 -12 30 -15 27 -10 85 -36 100 -45 8
-5 22 -12 30 -15 34 -13 78 -34 138 -63 34 -17 68 -31 75 -31 21 -1 57 -37 57
-59 0 -25 -18 -37 -33 -22 -18 18 -124 13 -160 -6 -50 -28 -87 -65 -103 -103
-18 -41 -12 -70 20 -105 21 -22 31 -25 92 -25 61 1 74 4 117 34 68 46 87 82
87 162 0 89 -1 89 145 24 11 -5 46 -20 77 -34 l57 -25 -2 -59 c-2 -53 1 -62
23 -80 20 -17 39 -21 98 -22 39 0 72 4 72 8 0 15 80 42 98 33 10 -4 32 -15 50
-24 19 -9 40 -17 49 -17 8 0 27 -6 41 -13 15 -8 42 -21 60 -30 19 -9 40 -17
47 -17 7 0 26 -6 42 -14 15 -8 48 -22 73 -31 25 -9 58 -23 73 -31 16 -8 36
-14 45 -14 9 0 26 -7 36 -15 11 -8 30 -15 42 -15 13 0 25 -4 29 -9 3 -5 19
-12 36 -16 17 -4 42 -13 57 -21 15 -8 34 -14 43 -14 8 0 19 -4 25 -9 5 -5 25
-14 44 -19 44 -13 95 -31 137 -49 17 -7 38 -13 46 -13 9 0 18 -4 21 -9 3 -5
23 -12 43 -16 21 -4 43 -10 48 -15 6 -4 22 -10 38 -14 36 -9 34 -26 -8 -65
-129 -117 -81 -261 88 -261 102 0 202 57 241 136 10 22 22 46 26 54 8 16 58
16 74 -1 6 -5 21 -9 35 -9 15 0 39 -7 55 -15 15 -8 37 -15 47 -15 10 0 36 -6
56 -14 36 -12 66 -21 208 -60 33 -10 81 -24 106 -32 26 -7 56 -14 67 -14 33 0
42 -20 30 -73 -12 -56 -5 -103 20 -132 20 -25 96 -55 137 -55 66 0 153 40 217
99 52 48 60 49 193 21 33 -7 70 -14 83 -16 30 -6 28 -29 -5 -73 -24 -30 -28
-46 -28 -98 0 -75 20 -101 99 -128 47 -16 59 -17 102 -5 130 34 204 97 238
203 6 20 63 24 112 7 16 -5 70 -14 119 -20 50 -7 137 -18 195 -26 58 -7 175
-20 260 -29 85 -8 173 -17 195 -20 22 -3 203 -12 402 -20 280 -11 409 -12 574
-4 117 6 223 8 236 4 22 -5 23 -9 23 -105 0 -97 -1 -100 -22 -100 -13 1 -34 7
-48 15 -36 21 -179 20 -227 -1 -88 -39 -109 -52 -158 -99 -35 -34 -57 -66 -68
-99 -21 -61 -21 -84 -2 -129 75 -180 400 -145 534 58 26 39 26 43 29 245 2
113 7 209 12 214 5 5 55 12 112 16 176 14 340 30 403 40 56 9 112 17 290 41
39 5 85 14 103 20 57 19 62 7 62 -163 0 -167 -3 -174 -66 -144 -47 22 -180 22
-231 0 -87 -38 -108 -51 -153 -95 -52 -49 -90 -123 -90 -173 0 -34 33 -103 59
-124 137 -111 419 -31 502 143 17 36 19 68 21 300 l3 260 35 17 c19 9 48 17
63 18 31 0 135 23 208 46 26 8 55 14 65 14 11 0 39 6 64 14 25 8 72 22 105 31
58 16 82 23 210 60 33 10 76 23 95 30 19 7 62 21 95 30 33 10 69 22 80 26 39
16 110 41 135 46 14 3 34 12 45 19 11 8 27 14 36 14 10 0 30 6 46 14 15 8 44
21 63 29 19 8 59 27 89 41 77 38 81 31 81 -116 0 -66 -5 -128 -11 -139 -10
-20 -11 -20 -30 -3 -31 28 -180 25 -242 -5 -56 -27 -137 -105 -137 -132 0 -10
-4 -21 -10 -24 -15 -9 -12 -60 6 -97 28 -60 58 -73 159 -73 99 0 151 18 211
73 69 63 69 63 69 313 0 209 1 228 19 248 11 12 23 21 28 21 5 0 25 10 46 23
20 13 52 29 71 35 32 11 35 10 67 -23 33 -35 33 -35 122 -35 67 0 93 4 102 15
7 8 16 15 20 15 14 0 80 63 80 77 0 7 5 13 10 13 6 0 10 28 10 65 0 50 -4 66
-17 74 -10 6 -13 11 -6 11 6 0 20 16 32 35 11 20 29 38 38 42 16 6 131 88 143
103 3 3 19 15 36 25 28 18 69 54 247 222 26 25 45 48 42 51 -2 3 -21 -11 -40
-31 -20 -21 -39 -37 -43 -37 -5 0 -27 -18 -51 -40 -23 -22 -45 -40 -47 -40 -3
0 -17 -13 -32 -29 -15 -15 -40 -37 -57 -47 -16 -10 -34 -24 -38 -31 -4 -7 -12
-13 -17 -13 -5 0 -24 -13 -42 -30 -18 -16 -38 -30 -45 -30 -7 0 -13 -4 -13
-10 0 -5 -11 -12 -24 -16 -13 -3 -36 -19 -52 -35 -15 -16 -32 -29 -37 -29 -4
0 -15 -6 -22 -12 -8 -7 -22 -20 -32 -28 -10 -9 -45 -16 -88 -18 -38 -3 -72 -7
-75 -11 -3 -3 -22 -17 -42 -31 -20 -14 -49 -44 -64 -67 -21 -33 -43 -51 -106
-82 -76 -38 -103 -42 -120 -17 -9 13 -8 759 1 800 3 16 15 34 26 40 10 6 25
17 33 24 7 6 22 12 33 12 10 0 19 4 19 8 0 4 27 20 60 35 32 15 62 32 65 37 3
6 15 10 26 10 10 0 19 3 19 8 0 4 21 19 47 32 26 14 54 31 61 38 7 6 20 12 28
12 8 0 14 3 14 8 0 4 20 18 45 32 25 14 45 28 45 32 0 5 15 8 34 8 28 0 35 -4
38 -22 4 -27 37 -37 50 -14 5 9 20 16 32 16 13 0 26 7 30 15 3 8 17 15 31 15
25 0 25 1 25 75 0 67 -2 75 -19 75 -10 0 -24 -7 -31 -15 -7 -8 -27 -15 -44
-15 -32 -1 -68 -23 -78 -51 -3 -8 -39 -35 -78 -60 -40 -24 -84 -52 -99 -61
-48 -31 -68 -43 -155 -87 -47 -24 -89 -47 -92 -52 -3 -5 -14 -9 -25 -9 -10 0
-19 -4 -19 -9 0 -5 -10 -13 -22 -16 -13 -4 -61 -25 -108 -47 -98 -46 -124 -58
-200 -87 -75 -30 -89 -36 -133 -55 -21 -9 -42 -16 -48 -16 -6 0 -25 -6 -42
-13 -45 -19 -97 -37 -132 -47 -16 -4 -41 -12 -55 -17 -45 -19 -199 -63 -405
-118 -33 -9 -76 -20 -95 -25 -19 -6 -75 -19 -125 -30 -49 -11 -108 -25 -130
-30 -22 -5 -64 -14 -93 -19 -65 -10 -72 -1 -72 93 l0 66 -524 0 c-468 0 -525
-2 -530 -16 -3 -9 -6 -80 -6 -159 0 -127 -2 -145 -17 -154 -30 -15 -221 -30
-562 -42 -223 -9 -328 -9 -340 -2 -14 9 -16 49 -16 394 l0 384 165 12 c91 7
216 15 277 19 l113 7 39 -36 c49 -44 62 -50 133 -67 51 -12 67 -11 135 5 99
24 162 56 224 117 57 56 83 68 142 68 23 0 58 5 77 10 19 6 64 15 100 19 62 8
93 14 260 47 203 40 427 90 540 120 118 32 167 46 214 60 26 7 57 14 67 14 10
0 20 4 23 9 3 5 23 12 43 16 47 8 132 33 154 45 9 5 34 12 55 16 22 3 44 10
49 14 6 4 26 11 45 15 19 4 40 11 45 15 6 4 26 11 45 15 19 4 41 11 50 15 8 5
56 23 105 40 50 18 104 38 120 45 17 7 55 23 85 35 53 21 94 40 216 96 30 14
65 24 77 22 20 -3 22 -9 22 -78 l0 -75 -35 3 c-19 1 -81 4 -137 5 -84 1 -104
-1 -120 -16 -11 -9 -24 -17 -30 -17 -5 0 -31 -21 -56 -46 -81 -80 -87 -178
-15 -237 35 -28 42 -30 123 -29 61 0 92 4 110 16 13 9 31 16 38 16 24 0 108
93 123 135 9 27 14 89 14 192 0 167 2 172 66 199 18 8 35 18 39 24 3 5 15 10
26 10 10 0 19 4 19 9 0 5 12 14 28 20 15 6 41 20 57 31 17 11 39 24 50 30 32
17 54 31 150 95 96 64 97 65 134 95 13 11 27 20 30 20 3 0 17 10 31 23 14 12
57 47 95 77 39 30 80 65 92 77 12 13 24 23 27 23 9 0 167 162 162 167 -2 3
-14 -5 -25 -16 -12 -12 -25 -21 -31 -21 -5 0 -10 -7 -10 -15 0 -8 -5 -15 -10
-15 -6 0 -27 -17 -48 -38 -20 -21 -68 -62 -107 -92 -38 -30 -81 -65 -95 -77
-14 -13 -28 -23 -31 -23 -5 0 -22 -13 -66 -50 -7 -5 -16 -10 -22 -10 -5 0 -11
-3 -13 -7 -5 -12 -66 -53 -78 -53 -5 0 -10 -4 -10 -10 0 -5 -11 -12 -25 -16
-14 -3 -25 -10 -25 -15 0 -5 -10 -14 -22 -19 -13 -6 -36 -19 -53 -30 -16 -11
-39 -24 -50 -30 -11 -6 -42 -24 -70 -40 -27 -17 -75 -43 -105 -58 -30 -15 -56
-30 -58 -34 -6 -14 -40 -8 -46 8 -3 9 -6 184 -6 390 l0 375 26 24 c15 14 31
25 37 25 5 0 43 20 84 45 40 25 76 45 78 45 3 0 34 20 71 45 36 25 68 45 70
45 3 0 32 20 64 45 32 25 61 45 64 45 2 0 20 14 38 30 18 17 36 30 40 30 5 0
16 8 26 18 29 27 114 97 124 100 5 2 28 23 52 45 23 23 72 70 109 104 37 35
67 67 67 73 0 5 7 10 15 10 8 0 15 4 15 10 0 5 32 41 71 81 38 39 68 73 66 75
-2 3 -67 -57 -144 -133 -150 -149 -192 -187 -259 -235 -24 -17 -44 -35 -44
-40 0 -4 -7 -8 -15 -8 -8 0 -15 -4 -15 -8 0 -10 -96 -82 -110 -82 -5 0 -10 -4
-10 -9 0 -8 -108 -84 -151 -106 -10 -5 -19 -13 -19 -17 0 -5 -4 -8 -9 -8 -6 0
-29 -13 -53 -29 -24 -16 -61 -39 -83 -51 -22 -12 -53 -30 -70 -40 -111 -69
-132 -68 -137 3 l-3 42 -210 69 c-115 38 -217 72 -225 76 -9 4 -31 11 -50 15
-19 4 -39 11 -45 15 -5 4 -26 11 -45 15 -19 4 -39 11 -45 15 -5 4 -26 11 -45
15 -19 4 -41 11 -50 16 -8 4 -48 18 -87 29 -40 12 -75 25 -78 30 -5 8 58 50
77 50 5 0 24 6 41 14 18 7 57 23 87 35 53 21 68 28 135 56 35 15 398 195 470
233 27 15 56 33 63 40 7 6 19 12 27 12 7 0 15 4 17 8 2 4 32 26 68 47 91 55
326 219 362 254 9 9 31 27 49 41 18 14 43 34 55 45 12 11 46 40 75 65 29 25
66 57 81 73 16 15 38 27 48 27 19 0 20 -8 20 -288 0 -198 -3 -291 -11 -299 -8
-8 -23 -5 -57 13 -53 28 -134 32 -178 9 -16 -8 -37 -15 -47 -15 -10 0 -23 -5
-30 -10 -7 -6 -33 -26 -58 -45 -66 -49 -89 -92 -89 -168 1 -61 21 -107 48
-107 6 0 18 -7 27 -17 13 -13 36 -16 106 -15 50 0 95 5 102 10 7 5 23 13 37
17 37 12 130 84 130 102 0 3 8 15 17 25 15 17 17 52 14 378 -1 232 1 366 8
378 13 25 47 34 62 16 6 -8 24 -14 40 -14 16 0 29 -4 29 -9 0 -5 14 -14 30
-20 17 -5 30 -15 30 -20 0 -6 6 -11 13 -11 8 0 34 -20 58 -44 67 -68 79 -82
79 -94 0 -7 4 -12 9 -12 5 0 13 -10 17 -22 3 -12 13 -28 20 -36 8 -7 14 -22
14 -33 0 -18 2 -19 15 -5 10 9 15 34 15 67 0 49 -1 51 -15 33 -14 -18 -16 -18
-45 16 -16 19 -30 41 -30 48 0 6 -4 12 -9 12 -5 0 -13 9 -16 21 -4 11 -19 33
-33 48 -15 15 -38 41 -52 57 -13 16 -50 57 -81 91 -59 63 -66 87 -32 115 21
17 70 -12 147 -87 59 -56 136 -167 136 -195 0 -10 3 -10 15 0 10 9 15 30 14
69 -1 31 -3 48 -6 39 -2 -10 -11 -18 -19 -18 -19 0 -63 50 -64 73 0 9 -4 17
-9 17 -5 0 -19 16 -32 36 -12 20 -40 55 -61 78 -46 50 -51 91 -13 119 24 17
26 17 49 0 13 -10 34 -34 47 -53 13 -19 27 -37 30 -40 3 -3 15 -23 25 -45 14
-29 20 -35 22 -22 2 10 -3 26 -12 36 -9 10 -16 27 -16 38 0 12 -7 23 -15 27
-8 3 -15 13 -15 22 0 9 -13 33 -29 53 -16 20 -29 45 -28 56 1 11 -6 21 -19 24
-11 3 -54 42 -94 86 -41 44 -78 82 -82 83 -4 2 -8 10 -8 17 0 7 -7 15 -15 19
-8 3 -15 14 -15 24 0 11 -7 25 -15 32 -8 7 -15 21 -15 32 0 18 -21 48 -34 48
-3 0 -6 -150 -6 -334z m-13190 -365 c3 -3 28 -17 55 -31 28 -14 52 -27 55 -30
3 -3 16 -11 30 -17 14 -7 48 -26 75 -43 28 -16 57 -32 65 -36 8 -3 22 -10 30
-15 8 -5 27 -14 43 -20 15 -6 27 -15 27 -20 0 -5 8 -9 19 -9 10 0 24 -7 31
-15 7 -8 21 -15 31 -15 10 0 20 -4 23 -9 3 -5 48 -29 98 -54 51 -25 102 -52
112 -60 19 -14 19 -16 -15 -58 -26 -34 -34 -52 -34 -85 0 -61 30 -83 113 -84
67 0 112 20 161 74 27 28 49 27 111 -6 19 -10 40 -18 47 -18 7 0 13 -4 13 -10
0 -5 7 -10 16 -10 9 0 28 -6 42 -14 32 -16 152 -71 202 -93 94 -40 85 -19 88
-196 l3 -157 -23 0 c-13 0 -52 14 -88 31 -119 56 -185 87 -200 93 -8 3 -22 10
-30 15 -32 20 -206 101 -218 101 -7 0 -12 5 -12 10 0 6 -5 10 -11 10 -14 0
-102 42 -109 52 -3 3 -18 10 -33 13 -15 4 -27 11 -27 15 0 4 -12 11 -27 15
-15 3 -30 10 -33 13 -3 4 -41 25 -85 46 -44 22 -81 43 -83 48 -2 4 -11 8 -21
8 -9 0 -22 5 -27 10 -9 9 -48 31 -169 95 -113 59 -110 56 -113 118 -3 59 -15
74 -26 35 -6 -22 -7 -22 -33 12 -15 19 -53 62 -85 96 -62 65 -79 112 -35 98
41 -12 110 -79 132 -129 l14 -30 1 31 c0 17 -7 37 -15 44 -8 7 -15 16 -15 21
0 9 -23 37 -92 113 -46 50 -49 69 -10 60 15 -4 29 -10 32 -13z m836 -437 c46
-22 58 -38 45 -62 -15 -28 -55 -52 -113 -67 -42 -11 -54 -10 -79 2 -38 19 -37
42 7 87 56 57 85 66 140 40z m-902 -249 c20 -8 36 -20 36 -25 0 -6 8 -10 18
-10 10 0 23 -5 29 -11 12 -12 33 -25 108 -64 28 -14 64 -35 80 -45 17 -11 50
-30 75 -42 25 -13 57 -32 73 -42 l27 -18 0 -159 c0 -153 -1 -159 -20 -159 -11
0 -37 11 -58 24 -20 12 -47 26 -59 30 -13 4 -23 12 -23 17 0 5 -5 9 -11 9 -10
0 -126 65 -179 100 -8 6 -27 15 -42 21 -16 6 -28 14 -28 19 0 4 -8 10 -17 14
-10 3 -31 15 -48 25 -16 11 -49 29 -73 41 -76 39 -93 72 -46 90 14 6 39 24 56
40 26 26 31 40 36 95 5 71 9 74 66 50z m1624 -78 c15 -8 42 -21 60 -30 19 -9
40 -17 47 -17 7 0 26 -6 42 -14 35 -18 85 -39 143 -61 25 -10 59 -24 77 -31
17 -8 38 -14 47 -14 8 0 20 -9 26 -19 6 -13 17 -17 30 -14 11 3 35 -2 54 -11
19 -9 41 -16 49 -16 9 0 19 -4 22 -10 3 -5 14 -10 23 -10 9 0 29 -6 44 -14 15
-8 40 -17 57 -21 17 -4 33 -11 36 -16 4 -5 16 -9 28 -9 12 0 35 -7 51 -15 15
-8 36 -15 45 -15 10 0 26 -7 37 -15 10 -8 31 -15 45 -15 14 0 34 -7 45 -15 10
-8 30 -15 44 -15 14 0 36 -7 50 -15 14 -8 33 -14 43 -15 11 0 33 -6 50 -14 18
-8 43 -16 57 -19 24 -5 38 -9 120 -37 19 -7 51 -16 70 -20 34 -8 53 -14 130
-40 19 -7 53 -15 75 -19 22 -4 50 -13 62 -19 12 -7 35 -12 51 -12 56 0 63 -21
60 -176 -3 -133 -4 -139 -23 -135 -51 9 -175 5 -187 -7 -6 -6 -20 -12 -31 -12
-23 0 -208 60 -221 72 -6 4 -19 8 -29 8 -10 0 -33 6 -50 13 -42 18 -93 36
-137 49 -19 5 -39 14 -45 19 -5 5 -18 9 -30 9 -12 0 -30 7 -41 15 -10 8 -28
15 -40 15 -11 0 -29 7 -40 15 -10 8 -27 15 -36 15 -17 0 -67 19 -121 46 -16 8
-35 14 -42 14 -7 0 -26 6 -42 14 -15 8 -48 22 -73 31 -25 10 -57 23 -72 31
-14 8 -34 14 -43 14 -9 0 -30 13 -46 29 -16 16 -32 25 -35 20 -6 -11 -28 -6
-94 23 -57 25 -108 47 -140 60 -14 5 -41 17 -60 25 -19 8 -48 21 -65 28 -70
29 -132 59 -157 77 l-28 19 0 129 c0 71 3 135 6 144 8 20 65 21 102 3z m-1116
-204 c2 -5 26 -19 53 -32 28 -14 52 -27 55 -30 3 -3 39 -23 80 -44 41 -21 156
-81 255 -133 99 -51 187 -96 195 -100 93 -40 160 -79 160 -93 0 -9 -15 -30
-32 -48 -52 -49 -58 -60 -58 -95 0 -21 9 -41 27 -60 24 -25 34 -28 90 -28 75
0 99 12 164 83 l45 49 86 -41 c48 -22 92 -41 97 -41 6 0 11 -4 11 -10 0 -5 8
-10 18 -10 10 0 26 -6 37 -14 11 -7 32 -16 48 -20 15 -3 27 -11 27 -16 0 -6 7
-10 16 -10 9 0 28 -6 42 -13 15 -8 42 -21 60 -30 19 -9 39 -17 47 -17 7 0 18
-7 25 -15 7 -8 20 -15 29 -15 8 0 45 -14 81 -31 75 -35 96 -45 202 -89 44 -18
80 -40 83 -49 4 -13 13 -16 36 -13 17 2 45 -3 62 -11 51 -25 104 -47 113 -47
24 0 54 -46 56 -84 1 -41 1 -41 5 -6 6 45 20 62 41 50 40 -21 84 -39 112 -45
16 -4 32 -11 35 -16 4 -5 14 -9 23 -9 9 0 29 -6 44 -14 15 -8 40 -17 57 -21
17 -4 31 -10 31 -15 0 -4 18 -10 40 -14 22 -3 40 -11 40 -16 0 -6 10 -10 23
-10 12 0 34 -6 49 -14 15 -8 40 -17 57 -21 17 -4 33 -11 36 -16 4 -5 15 -9 27
-9 11 0 32 -6 46 -14 33 -16 85 -35 131 -46 18 -5 38 -13 44 -19 6 -6 21 -11
33 -11 12 0 35 -6 51 -14 39 -19 92 -37 128 -44 17 -2 39 -11 50 -18 11 -8 32
-14 47 -14 15 0 29 -4 33 -9 3 -5 20 -12 38 -16 32 -7 114 -31 152 -46 20 -7
57 -19 195 -59 41 -12 86 -25 100 -30 14 -5 42 -12 63 -16 20 -3 40 -10 43
-15 3 -5 15 -9 27 -9 12 0 42 -6 67 -14 25 -8 70 -21 100 -29 30 -8 80 -22
110 -30 94 -26 143 -38 185 -46 56 -11 144 -42 151 -52 3 -5 32 -9 65 -9 33 0
76 -7 96 -15 19 -8 48 -15 64 -15 15 0 40 -5 56 -12 15 -6 51 -14 78 -18 28
-4 71 -12 98 -19 26 -6 68 -16 95 -22 26 -7 74 -15 107 -19 33 -4 73 -13 88
-19 16 -6 45 -11 65 -11 20 0 59 -7 86 -15 27 -8 66 -15 87 -15 21 0 50 -5 65
-10 15 -6 62 -15 103 -20 82 -9 189 -24 288 -41 34 -6 97 -14 140 -19 190 -19
303 -31 368 -41 39 -5 138 -14 220 -19 83 -6 204 -15 270 -20 66 -6 363 -12
659 -14 472 -4 540 -6 548 -19 4 -9 7 -152 6 -319 -3 -287 -4 -303 -22 -306
-10 -2 -30 2 -44 10 -16 8 -58 13 -111 13 -76 -1 -94 -4 -151 -32 -36 -17 -83
-50 -105 -72 l-39 -41 -81 0 c-44 0 -136 7 -205 15 -69 8 -152 15 -186 15 -76
0 -177 18 -186 33 -4 7 -8 99 -8 205 0 146 -3 193 -12 196 -42 11 -138 40
-168 51 -19 7 -82 28 -140 45 -58 18 -119 39 -137 47 -17 7 -38 13 -46 13 -8
0 -30 6 -48 14 -19 8 -45 16 -59 18 l-25 3 -5 -250 -5 -250 -65 1 c-36 1 -103
9 -150 18 -130 24 -232 44 -318 61 -42 9 -101 20 -131 26 -30 5 -57 12 -60 14
-4 2 -17 25 -30 52 -37 75 -79 131 -163 218 -79 83 -110 119 -121 145 -4 8
-11 22 -16 30 -11 19 -27 56 -39 95 -8 22 -11 -29 -11 -187 -1 -119 -4 -223
-7 -232 -8 -21 -63 -21 -111 -1 -19 8 -44 15 -55 15 -11 0 -41 7 -67 14 -25 8
-73 22 -106 31 -33 9 -80 23 -105 31 -25 8 -52 14 -61 14 -9 0 -30 7 -45 15
-16 8 -38 15 -49 15 -10 0 -37 6 -60 14 -22 8 -67 22 -100 31 -33 10 -67 21
-76 26 -9 4 -34 11 -55 15 -22 3 -43 10 -49 14 -5 5 -27 11 -48 15 -20 4 -40
11 -43 16 -3 5 -15 9 -27 9 -12 0 -35 7 -51 15 -15 8 -36 15 -45 15 -9 0 -29
7 -45 15 -15 8 -36 15 -45 15 -9 0 -27 6 -41 13 -14 8 -40 17 -58 20 -18 4
-43 14 -57 23 l-25 16 0 214 0 214 -578 0 c-473 0 -581 2 -597 14 -11 7 -35
17 -52 21 -18 3 -33 11 -33 16 0 5 -11 9 -24 9 -13 0 -29 7 -36 15 -7 8 -20
15 -29 15 -8 0 -45 14 -81 31 -61 29 -87 40 -167 75 -18 8 -48 20 -65 28 -18
8 -40 17 -48 20 -8 3 -22 10 -30 15 -8 5 -31 16 -50 24 -204 91 -210 95 -210
132 0 18 -4 37 -10 40 -5 3 -10 2 -10 -4 0 -7 -25 -8 -67 -5 -59 5 -91 17
-243 91 -96 46 -182 89 -190 94 -8 5 -19 11 -25 13 -5 2 -17 7 -25 10 -8 3
-22 10 -30 15 -8 5 -22 12 -30 15 -8 3 -22 10 -30 15 -8 5 -22 12 -30 15 -8 3
-22 10 -30 15 -8 5 -22 12 -30 15 -8 3 -22 10 -30 15 -8 5 -22 12 -30 15 -8 3
-24 11 -35 18 -29 16 -39 22 -155 80 -58 29 -107 55 -110 58 -6 6 -141 77
-187 99 -18 8 -33 19 -33 23 0 4 -9 8 -19 8 -11 0 -26 6 -33 13 -7 7 -37 24
-65 37 -29 14 -53 28 -53 32 0 5 -9 8 -19 8 -11 0 -22 4 -26 9 -3 6 -29 21
-58 36 -28 14 -65 35 -82 45 -16 11 -37 23 -45 26 -8 3 -19 8 -25 10 -5 2 -23
13 -40 24 -33 21 -55 33 -130 74 -88 48 -85 40 -85 211 0 83 3 155 7 158 9 9
41 9 45 0z m1076 -146 c25 -13 47 -23 137 -61 20 -9 52 -23 73 -32 20 -9 51
-22 67 -29 56 -23 110 -47 138 -61 16 -8 35 -14 42 -14 8 0 19 -9 25 -20 6
-12 16 -17 26 -13 14 5 35 -2 131 -43 17 -8 36 -14 41 -14 6 0 23 -6 39 -14
52 -27 101 -46 117 -46 28 0 36 -46 36 -207 0 -124 3 -153 13 -145 27 23 126
-26 170 -85 31 -41 -3 -57 -60 -28 -15 8 -47 22 -70 32 -27 11 -43 25 -43 36
0 19 -11 22 -27 6 -10 -10 -98 21 -238 86 -27 13 -66 30 -85 38 -19 9 -56 25
-82 36 -26 12 -52 21 -57 21 -6 0 -11 11 -11 25 0 18 8 29 28 37 57 25 92 80
92 143 0 48 -8 64 -30 58 -11 -3 -33 0 -50 6 -71 24 -184 -34 -219 -115 -25
-56 -38 -56 -131 -3 -8 5 -22 12 -30 15 -69 29 -99 48 -104 67 -3 12 -6 87 -6
168 0 171 7 187 68 156z m9547 -447 l0 -385 -40 -12 c-22 -6 -67 -19 -100 -28
-33 -9 -73 -21 -90 -25 -16 -5 -97 -25 -180 -45 -82 -19 -159 -38 -170 -41
-23 -6 -121 -28 -215 -48 -36 -8 -101 -22 -145 -32 -44 -9 -102 -17 -130 -18
l-50 -1 -3 354 c-2 370 -1 381 41 381 11 0 43 6 71 14 28 8 79 22 114 30 145
37 190 48 236 62 26 8 55 14 63 14 9 0 38 7 67 16 56 18 110 33 201 58 122 34
170 49 187 57 9 5 35 12 58 15 22 4 43 11 46 16 3 5 13 8 22 6 16 -3 17 -38
17 -388z m153 321 c15 -7 113 -39 277 -88 28 -9 66 -21 85 -29 19 -7 46 -15
60 -18 14 -3 40 -15 58 -26 l32 -20 0 -148 c0 -154 -9 -192 -47 -192 -8 0 -29
-6 -46 -13 -18 -8 -59 -22 -92 -31 -33 -10 -75 -24 -93 -32 -18 -8 -41 -14
-52 -14 -11 0 -34 -6 -52 -14 -18 -7 -60 -21 -93 -30 -33 -10 -75 -22 -94 -28
-26 -8 -35 -7 -42 3 -11 17 -12 683 -1 693 8 9 74 0 100 -13z m-6614 -134 c36
-35 68 -75 71 -90 4 -15 11 -27 16 -27 11 0 12 -57 0 -64 -4 -3 -22 14 -39 38
-18 24 -53 66 -79 93 -78 81 -85 91 -78 102 14 24 48 8 109 -52z m-4141 16
c18 -10 34 -21 37 -24 3 -3 28 -16 55 -30 28 -13 56 -30 63 -36 7 -7 18 -13
23 -13 5 0 38 -18 74 -40 36 -22 69 -40 74 -40 5 0 16 -6 23 -13 7 -6 38 -25
68 -40 30 -15 91 -47 135 -71 44 -25 103 -56 130 -70 28 -15 58 -31 68 -36 30
-17 50 -28 132 -70 77 -40 94 -49 133 -70 9 -5 171 -86 360 -180 188 -95 342
-175 342 -179 0 -3 -13 -21 -29 -38 -40 -44 -56 -95 -40 -125 21 -39 39 -51
88 -56 57 -5 128 24 161 65 41 52 52 55 106 28 27 -13 85 -40 129 -60 44 -20
92 -43 107 -51 14 -8 33 -14 42 -14 9 0 16 -4 16 -10 0 -5 5 -10 11 -10 5 0
31 -9 57 -21 26 -11 56 -24 67 -29 22 -9 142 -63 190 -85 17 -7 39 -16 50 -19
11 -4 30 -14 43 -24 22 -17 22 -23 27 -246 l5 -228 -37 7 c-21 4 -49 13 -63
20 -14 7 -32 16 -40 19 -8 3 -22 10 -30 15 -8 5 -22 12 -30 15 -8 3 -22 10
-30 15 -8 5 -22 12 -30 15 -8 3 -22 10 -30 15 -8 5 -114 58 -235 118 -121 59
-222 110 -225 113 -3 3 -54 30 -115 60 -60 30 -112 57 -115 60 -3 3 -39 22
-80 43 -41 21 -102 54 -135 72 -33 19 -67 37 -75 40 -8 4 -22 10 -30 15 -8 5
-37 21 -65 35 -47 24 -81 42 -230 125 -33 18 -89 49 -125 68 -36 19 -82 46
-102 59 -21 12 -42 23 -47 23 -5 0 -16 6 -23 13 -7 7 -24 18 -38 24 -14 7 -47
26 -75 43 -27 16 -62 35 -77 41 -16 6 -28 15 -28 20 0 5 -9 9 -19 9 -11 0 -23
5 -26 11 -4 5 -17 15 -28 20 -12 5 -38 19 -57 30 -19 12 -55 32 -80 46 -25 13
-58 33 -75 43 -31 20 -76 45 -135 76 -19 11 -37 22 -40 25 -3 3 -25 16 -50 30
-25 13 -46 27 -48 32 -2 4 -9 7 -15 7 -7 0 -40 18 -74 40 l-63 39 0 169 c0 93
3 172 7 175 11 12 33 8 66 -10z m3008 -54 c11 -6 41 -14 67 -19 26 -5 76 -17
112 -25 189 -48 431 -101 525 -115 33 -6 71 -14 85 -19 14 -5 51 -13 83 -16
40 -5 61 -12 69 -25 9 -15 17 -16 37 -8 47 17 116 0 160 -40 66 -62 95 -124
102 -222 5 -77 6 -72 7 56 2 161 9 180 57 165 17 -5 64 -12 106 -15 42 -3 89
-10 103 -16 15 -5 51 -10 80 -10 29 0 78 -5 107 -11 30 -7 76 -14 104 -18 40
-5 50 -10 55 -28 l5 -22 45 20 c39 18 52 19 99 10 30 -6 88 -11 130 -11 128
-1 223 -16 238 -37 19 -25 15 -476 -4 -494 -10 -10 -24 -10 -65 -1 -29 7 -91
17 -138 22 -202 24 -259 36 -285 60 -14 13 -25 19 -25 13 0 -26 -24 -24 -220
12 -47 8 -116 20 -155 26 -38 5 -74 14 -79 19 -6 6 -27 10 -47 10 -20 0 -59 6
-85 14 -54 16 -131 32 -212 46 -78 13 -102 34 -102 93 0 33 -2 38 -20 32 -10
-3 -37 -1 -59 6 -43 13 -113 0 -158 -29 -23 -14 -53 -13 -108 6 -38 13 -109
31 -160 41 -22 4 -50 13 -62 19 -12 7 -35 12 -50 12 -16 0 -33 4 -39 10 -5 5
-30 14 -54 19 -25 6 -70 17 -100 26 -30 9 -73 21 -95 27 -22 5 -59 19 -82 29
l-43 19 0 183 c0 101 3 187 7 190 10 10 42 8 64 -4z m8419 -42 c25 -7 58 -19
73 -25 16 -7 32 -12 37 -12 30 0 143 -46 151 -62 8 -16 2 -21 -48 -44 -32 -14
-72 -32 -90 -40 -17 -8 -35 -14 -40 -14 -9 0 -57 -20 -93 -39 -9 -5 -30 -12
-48 -15 -17 -4 -34 -11 -37 -16 -3 -5 -12 -7 -20 -3 -20 7 -22 289 -2 296 12
4 36 -1 117 -26z m-4186 -67 c9 0 30 -6 48 -14 18 -8 60 -22 93 -31 33 -10 67
-21 76 -26 9 -4 33 -11 53 -14 20 -4 38 -11 41 -15 3 -5 23 -11 45 -15 22 -4
42 -11 46 -16 3 -5 11 -9 19 -9 8 0 26 -5 40 -10 42 -16 15 -37 -63 -49 -83
-12 -346 -34 -427 -35 l-60 -1 -3 119 c-3 137 3 154 49 131 15 -8 35 -15 43
-15z m2184 -329 c1 -230 -1 -358 -8 -366 -6 -7 -35 -15 -65 -19 -31 -3 -75
-11 -98 -16 -53 -12 -162 -30 -247 -40 -36 -4 -96 -13 -135 -19 -71 -11 -230
-31 -410 -51 -55 -7 -156 -16 -225 -20 -69 -5 -172 -14 -230 -20 -58 -6 -135
-10 -170 -8 l-65 3 0 325 0 325 65 7 c275 29 654 84 990 144 47 9 99 18 115
20 17 3 59 11 95 19 36 7 101 21 145 30 44 9 103 23 130 30 28 7 64 12 80 12
l30 -2 3 -354z m-7404 337 c22 -6 45 -15 51 -20 5 -4 16 -8 25 -8 8 0 28 -7
44 -15 15 -8 33 -15 38 -15 6 0 24 -6 41 -13 42 -18 93 -36 137 -49 19 -5 39
-14 44 -19 6 -5 19 -9 29 -9 10 0 33 -6 50 -14 18 -8 43 -17 57 -20 14 -3 40
-15 59 -26 32 -21 33 -22 15 -41 -26 -29 -26 -122 1 -148 61 -61 189 -44 273
35 40 38 51 44 77 39 36 -7 125 -33 178 -51 20 -8 46 -14 56 -14 10 0 32 -7
47 -15 16 -8 37 -15 48 -15 10 0 39 -7 65 -15 25 -8 71 -21 101 -29 53 -14
162 -44 188 -52 16 -5 15 -24 -2 -66 -13 -29 -13 -38 0 -64 44 -90 195 -84
288 12 25 26 41 34 69 34 20 0 39 -4 42 -10 3 -5 21 -10 39 -10 19 0 56 -6 82
-14 61 -18 141 -34 221 -46 35 -5 72 -14 82 -20 11 -5 37 -10 58 -10 21 -1 56
-7 78 -15 22 -8 59 -15 82 -15 23 0 62 -6 85 -14 24 -8 54 -16 68 -18 17 -2
26 -10 28 -25 l3 -22 21 21 c14 14 27 18 46 14 15 -4 62 -11 104 -16 43 -5 82
-11 87 -15 14 -8 2 -35 -30 -69 -48 -50 -48 -127 1 -171 18 -16 36 -20 94 -20
60 1 80 5 118 28 59 34 91 79 98 137 5 45 5 45 48 48 23 2 80 -4 125 -12 46
-9 108 -16 138 -16 30 0 97 -7 149 -15 52 -8 129 -15 170 -15 41 0 134 -7 205
-15 72 -8 194 -15 272 -15 78 0 154 -4 168 -10 24 -9 26 -14 21 -52 -7 -55 17
-104 64 -130 29 -16 50 -19 120 -16 79 4 90 7 140 40 32 21 68 56 84 82 16 25
34 50 40 55 17 14 544 33 567 20 13 -7 19 -21 19 -44 0 -32 -3 -35 -29 -35
-17 0 -33 4 -36 10 -8 13 -139 13 -163 1 -9 -5 -36 -19 -60 -30 -128 -63 -171
-213 -80 -281 30 -22 42 -25 123 -24 81 0 95 3 135 28 112 70 132 108 140 266
l5 115 50 2 c28 2 130 10 227 19 143 13 181 14 193 4 13 -11 15 -59 15 -335 0
-254 -3 -325 -13 -333 -16 -13 -451 -33 -577 -26 -47 2 -229 9 -405 14 -177 5
-363 14 -415 20 -96 10 -250 23 -457 40 -62 5 -129 14 -150 19 -21 6 -63 11
-93 11 -30 0 -86 7 -125 15 -38 8 -88 15 -110 15 -22 0 -56 5 -75 10 -19 6
-69 15 -110 20 -71 8 -114 15 -247 41 -32 6 -83 15 -113 19 -30 4 -80 13 -110
19 -146 32 -187 40 -215 45 -199 34 -261 60 -215 88 11 7 20 17 20 22 0 5 7
17 15 26 18 20 31 107 21 144 -5 22 -10 25 -25 17 -13 -7 -24 -6 -40 5 -26 18
-96 15 -151 -7 -46 -18 -119 -93 -127 -130 -8 -39 -25 -52 -54 -40 -13 5 -45
13 -71 16 -26 3 -50 10 -53 16 -4 5 -21 9 -38 9 -18 0 -45 7 -61 15 -15 8 -38
15 -50 15 -11 0 -41 6 -66 14 -25 8 -68 21 -96 30 -29 9 -60 16 -70 16 -11 0
-32 7 -48 15 -15 8 -39 15 -53 15 -13 0 -34 5 -46 12 -12 6 -38 15 -57 19 -19
4 -51 12 -70 19 -81 27 -97 32 -130 40 -19 4 -46 12 -60 18 -14 5 -52 18 -85
27 -33 10 -74 24 -92 32 -17 7 -38 13 -46 13 -8 0 -28 7 -43 15 -16 8 -39 15
-51 15 -12 0 -24 4 -27 9 -4 5 -24 12 -46 16 -22 4 -42 10 -45 15 -3 4 -20 11
-39 14 -20 4 -48 13 -63 21 -15 8 -36 15 -45 15 -9 0 -19 4 -22 9 -4 5 -24 12
-46 16 -22 4 -42 11 -46 16 -3 5 -13 9 -22 9 -9 0 -30 7 -46 15 -15 8 -33 15
-40 15 -6 0 -23 6 -38 14 -15 8 -40 17 -57 21 -17 4 -33 11 -36 16 -4 5 -16 9
-29 9 -12 0 -31 7 -42 15 -10 8 -27 15 -37 15 -11 0 -31 6 -45 13 -15 8 -42
21 -60 30 -19 9 -41 17 -51 17 -9 0 -26 7 -37 15 -10 8 -28 15 -39 15 -33 0
-45 20 -45 73 0 45 -1 47 -16 32 -16 -15 -19 -14 -43 14 -14 17 -54 61 -87 98
-59 65 -70 93 -35 93 21 0 111 -77 111 -96 0 -8 4 -14 9 -14 5 0 14 -12 19
-27 l10 -28 1 33 c1 17 -3 32 -8 32 -5 0 -11 10 -15 23 -3 12 -18 36 -33 52
-15 17 -52 58 -84 91 -61 67 -90 124 -62 124 9 0 34 -5 57 -12z m9864 -91 l43
-20 -3 -339 c-3 -327 -4 -340 -23 -353 -11 -8 -25 -19 -32 -25 -7 -5 -17 -10
-22 -10 -6 0 -39 -14 -73 -31 -71 -35 -103 -49 -168 -74 -25 -9 -58 -23 -73
-31 -16 -8 -36 -14 -45 -14 -9 0 -26 -7 -36 -15 -11 -8 -27 -15 -37 -15 -9 0
-30 -7 -45 -15 -16 -8 -37 -15 -47 -15 -9 0 -26 -5 -36 -12 -10 -6 -26 -8 -34
-5 -15 5 -13 13 11 59 l27 53 5 339 5 338 35 18 c19 10 55 26 80 35 25 10 59
23 75 31 17 7 48 20 70 29 46 19 74 32 165 74 69 33 84 33 158 -2z m-6488 -63
c0 -24 -5 -55 -10 -70 -10 -26 -12 -27 -73 -20 -139 14 -205 24 -216 30 -18
11 -13 24 12 31 12 4 36 12 52 20 17 7 41 18 55 23 14 6 45 20 70 30 89 39
110 31 110 -44z m-2635 -105 c5 -5 21 -9 35 -9 35 0 63 -22 59 -45 -5 -24
-124 -84 -168 -85 -65 0 -90 48 -50 98 43 55 91 71 124 41z m4963 -1 c9 -9 12
-94 12 -319 0 -278 -2 -307 -17 -313 -29 -11 -332 -27 -453 -24 l-115 3 0 305
0 305 90 12 c50 6 161 16 249 22 87 5 161 13 164 16 10 10 58 5 70 -7z m-1822
-67 c26 -16 34 -17 38 -6 4 11 63 14 323 13 175 -1 428 5 561 11 134 7 255 10
268 7 l24 -6 0 -261 c0 -288 1 -286 -64 -255 -67 32 -163 13 -263 -52 l-52
-33 -233 6 c-128 4 -291 13 -361 21 -71 8 -161 14 -200 14 -40 0 -82 3 -94 6
-19 5 -21 9 -11 27 6 12 22 30 35 40 33 26 53 80 53 143 l0 54 -34 0 c-19 0
-38 5 -41 10 -10 16 -86 12 -137 -8 -95 -36 -151 -112 -141 -191 l6 -43 -64 7
c-120 14 -109 -12 -109 268 0 134 3 247 8 252 4 4 108 5 231 2 197 -6 228 -9
257 -26z m5359 7 c3 -13 4 -126 3 -253 l-3 -230 -30 2 c-16 1 -53 7 -80 14
-45 11 -58 10 -125 -11 -64 -20 -83 -32 -131 -80 -44 -44 -58 -65 -64 -98 -12
-75 12 -133 63 -153 12 -5 22 -17 22 -28 0 -15 -10 -23 -42 -31 -24 -6 -56
-15 -73 -20 -16 -5 -57 -16 -90 -25 -33 -9 -82 -22 -110 -30 -73 -20 -134 -35
-180 -44 -22 -5 -62 -14 -90 -21 -106 -26 -163 -39 -235 -54 -69 -14 -114 -23
-290 -57 -172 -33 -296 -45 -315 -29 -13 11 -15 60 -15 354 0 187 4 346 8 353
4 6 34 17 67 22 139 25 343 69 540 116 39 9 81 19 95 22 14 3 47 12 73 20 48
15 103 11 92 -7 -3 -6 -15 -10 -25 -10 -29 0 -125 -99 -139 -143 -18 -54 -6
-121 26 -151 29 -27 121 -57 155 -50 114 24 159 46 215 105 52 56 63 97 63
230 l0 119 40 20 c21 11 48 20 59 20 11 0 35 6 53 14 18 8 60 22 93 31 33 10
76 23 95 30 19 7 62 21 95 30 33 10 74 24 90 31 48 21 84 18 90 -8z m-1837
-697 c1 -135 -2 -249 -6 -253 -5 -5 -22 -3 -38 6 -76 37 -139 44 -221 25 -114
-27 -202 -84 -269 -175 l-46 -64 -54 0 c-29 0 -56 -5 -59 -10 -12 -19 17 -40
55 -40 41 0 70 -22 48 -37 -7 -4 -49 -11 -93 -14 -281 -22 -419 -30 -431 -25
-12 4 -14 63 -14 341 l0 335 23 9 c12 5 74 14 137 20 63 6 147 16 185 21 39 5
95 12 125 15 59 6 209 27 355 50 145 23 168 27 210 35 22 4 51 7 65 6 l25 -1
3 -244z m-68 -328 c14 -9 28 -22 32 -27 15 -22 7 -58 -18 -81 -26 -24 -31 -25
-190 -25 -171 0 -182 3 -151 43 16 22 98 65 167 88 70 23 129 24 160 2z
m-6205 -37 c22 -8 40 -20 40 -28 0 -10 -43 -14 -213 -16 -183 -2 -213 0 -218
13 -4 8 -4 22 0 30 8 21 331 22 391 1z m763 -3 c21 -42 13 -43 -278 -43 -177
0 -281 4 -285 10 -3 6 -3 19 0 30 6 19 16 20 280 20 251 0 275 -1 283 -17z
m-590 -185 c18 -18 17 -348 -2 -373 -13 -18 -16 -18 -47 -3 -19 9 -59 28 -89
41 -114 52 -187 86 -262 121 -42 20 -81 36 -87 36 -6 0 -11 5 -11 10 0 6 -9
10 -19 10 -36 0 -51 27 -51 94 0 34 3 66 7 69 3 4 128 7 278 7 197 0 274 -3
283 -12z m357 -11 c17 -9 38 -17 47 -17 9 0 20 -4 23 -10 3 -5 14 -10 23 -10
9 0 29 -6 44 -14 15 -8 40 -17 57 -21 17 -4 36 -15 41 -25 6 -10 10 -95 10
-187 0 -131 -3 -174 -14 -189 -12 -15 -17 -17 -27 -6 -31 30 -158 9 -207 -35
-17 -17 -37 -16 -70 0 -15 8 -43 21 -62 29 -37 16 -73 32 -152 68 l-48 22 0
202 c0 112 3 206 8 210 4 4 72 6 152 4 112 -3 152 -8 175 -21z m320 -117 c3
-5 16 -10 28 -10 12 0 35 -7 51 -15 15 -8 36 -15 45 -15 9 0 29 -7 45 -15 15
-8 36 -15 45 -15 9 0 29 -7 45 -15 15 -8 38 -15 50 -15 12 0 31 -7 42 -15 10
-8 29 -15 41 -15 12 0 37 -6 55 -14 18 -7 60 -21 93 -31 33 -9 71 -22 85 -27
14 -6 41 -14 60 -19 69 -16 126 -32 157 -45 17 -8 39 -14 48 -14 10 0 40 -7
69 -16 28 -9 71 -22 96 -30 25 -8 55 -14 67 -14 12 0 24 -4 28 -9 3 -6 25 -13
49 -16 85 -13 150 -40 157 -66 11 -37 10 -542 -1 -559 -8 -12 -15 -13 -52 -1
-24 7 -78 15 -120 17 -44 2 -90 10 -107 18 -16 9 -38 16 -49 16 -10 0 -27 7
-38 15 -10 8 -30 15 -42 15 -13 0 -36 6 -50 14 -32 16 -85 35 -130 46 -18 4
-38 12 -45 18 -7 5 -23 12 -37 15 -14 3 -50 15 -80 27 -30 12 -66 24 -80 27
-14 3 -34 12 -45 19 -11 8 -29 14 -40 14 -12 0 -25 4 -30 8 -6 5 -39 20 -75
32 -36 13 -76 30 -90 37 -14 7 -31 13 -38 13 -7 0 -20 4 -30 9 -35 19 -85 41
-95 41 -11 0 -69 25 -116 49 l-34 18 2 258 c1 142 4 262 7 267 7 11 52 10 59
-2z m7804 -144 c8 -9 10 -131 9 -431 l-3 -417 -35 -18 c-32 -17 -49 -24 -130
-58 -14 -6 -46 -20 -72 -31 -26 -12 -51 -21 -56 -21 -5 0 -23 -7 -38 -15 -16
-8 -37 -15 -46 -15 -9 0 -20 -4 -23 -10 -3 -5 -14 -10 -23 -10 -9 0 -30 -7
-46 -15 -15 -8 -35 -15 -43 -15 -8 0 -29 -6 -46 -13 -18 -8 -59 -22 -92 -31
-33 -10 -73 -22 -90 -28 -16 -5 -46 -14 -65 -18 -71 -18 -126 -33 -163 -46
-20 -8 -47 -14 -58 -14 -11 0 -41 -6 -67 -14 -49 -14 -136 -34 -262 -60 -136
-27 -139 -27 -150 -6 -6 12 -10 165 -10 414 l0 396 23 14 c12 9 56 23 97 32
128 28 266 61 365 89 33 9 80 21 105 27 25 5 49 14 55 19 5 5 17 9 27 9 10 0
57 13 105 29 49 16 103 32 120 36 18 3 35 11 38 16 4 5 16 9 28 9 12 0 35 7
51 15 15 8 34 15 42 15 7 0 28 6 46 14 18 8 53 22 78 31 25 9 58 23 73 31 16
8 35 14 42 14 7 0 26 6 42 14 68 35 149 74 154 75 4 0 12 -5 18 -13z m-6309
-99 c50 -23 154 -123 163 -156 7 -29 -14 -37 -61 -23 -56 15 -123 32 -165 41
-21 5 -40 11 -43 14 -12 11 -16 115 -6 134 13 24 44 22 112 -10z m1165 -158
c55 -18 109 -35 120 -40 41 -15 247 -79 258 -79 6 0 21 -10 34 -22 26 -24 32
-95 11 -116 -14 -14 -99 -16 -148 -2 -19 5 -78 14 -130 20 -175 19 -279 36
-294 49 -12 11 -16 34 -16 106 0 52 3 101 6 110 8 19 17 18 159 -26z m-1155
-39 c8 -4 33 -10 55 -14 40 -7 91 -21 133 -37 13 -5 22 -17 22 -29 0 -11 9
-37 21 -58 l21 -37 -5 42 c-4 30 -1 46 10 54 15 13 26 12 208 -26 160 -32 233
-46 286 -54 56 -8 141 -26 189 -40 l25 -6 2 -270 c2 -149 -1 -276 -6 -283 -7
-11 -19 -11 -73 3 -56 14 -71 14 -124 2 -59 -14 -93 -29 -127 -56 -15 -13 -24
-13 -65 2 -26 9 -55 17 -66 17 -10 0 -41 7 -70 16 -28 9 -71 22 -96 30 -25 8
-54 14 -65 14 -12 0 -25 4 -30 9 -6 5 -30 14 -55 19 -79 18 -134 33 -155 42
-11 5 -33 11 -50 15 -55 12 -103 38 -109 59 -11 40 -6 566 5 587 9 17 17 19
57 13 26 -3 54 -10 62 -14z m1160 -230 c47 -6 120 -15 163 -20 67 -7 127 -16
233 -36 12 -2 24 -14 28 -26 8 -30 8 -622 0 -642 -7 -19 -29 -20 -88 -4 -35 9
-59 9 -115 -2 -57 -11 -83 -11 -129 -1 -31 6 -82 16 -112 21 -30 6 -75 16
-100 24 l-45 13 -3 332 c-1 207 1 339 8 351 8 15 15 17 42 10 18 -5 71 -14
118 -20z m1533 -14 c21 -16 23 -54 3 -62 -8 -3 -61 -2 -118 3 -80 6 -103 11
-103 23 0 36 178 66 218 36z m2045 -8 c18 -18 17 -752 0 -765 -20 -15 -122
-34 -383 -69 -220 -30 -402 -48 -490 -48 l-90 -1 -3 399 c-1 264 1 403 8 410
6 6 36 13 68 17 178 20 263 31 317 40 171 29 549 41 573 17z m-2889 -58 c74
-5 175 -14 225 -20 50 -5 107 -11 126 -13 l35 -2 5 -74 c5 -72 6 -74 48 -112
51 -44 84 -53 184 -47 53 3 89 12 131 32 60 29 157 116 157 141 0 38 35 43
405 54 198 7 397 16 443 22 136 16 122 61 122 -406 l0 -403 -22 -6 c-13 -4
-167 -10 -343 -12 -437 -7 -956 20 -1335 70 -63 8 -153 20 -200 26 -47 6 -103
15 -125 20 -22 5 -52 11 -67 15 l-28 5 0 349 c0 192 3 357 7 366 5 14 14 16
52 11 25 -3 106 -10 180 -16z m789 -46 c45 -9 16 -50 -69 -94 -24 -12 -53 -27
-64 -33 -11 -6 -52 -12 -91 -15 -64 -4 -73 -2 -92 19 -26 27 -27 40 -7 79 27
52 42 56 177 53 68 -2 133 -6 146 -9z"/>
<path d="M9490 6733 c1 -69 16 -93 59 -93 19 0 34 -6 37 -15 4 -10 20 -15 44
-15 24 0 40 -5 44 -15 3 -8 16 -15 29 -15 14 0 30 -7 37 -15 7 -8 23 -15 35
-15 12 0 28 -7 35 -15 7 -8 18 -15 25 -15 7 0 15 -7 19 -15 3 -8 14 -15 25
-15 10 0 21 -7 25 -15 3 -8 12 -15 19 -15 8 0 20 7 27 15 7 8 25 15 40 15 15
0 33 -7 40 -15 7 -8 25 -15 39 -15 15 0 36 -7 47 -15 37 -28 44 -19 44 58 0
103 -6 117 -44 117 -18 0 -41 7 -52 15 -10 8 -32 15 -49 15 -16 0 -39 7 -49
15 -11 8 -32 15 -47 15 -15 0 -40 7 -55 15 -16 8 -41 15 -56 15 -16 0 -28 5
-28 10 0 6 -12 10 -27 10 -16 0 -41 7 -57 15 -15 8 -41 15 -56 15 -16 0 -35 7
-44 15 -9 9 -33 15 -60 15 l-46 0 0 -57z"/>
<path d="M9520 5910 c-14 -16 -30 -29 -37 -30 -15 0 -27 -79 -18 -119 l7 -31
74 0 c44 0 74 4 74 10 0 6 8 14 18 17 9 4 30 19 45 35 16 15 35 28 43 28 13 0
13 2 0 16 -9 8 -16 28 -16 44 0 21 -6 29 -25 34 -14 4 -25 11 -25 16 0 6 -26
10 -58 10 -52 0 -60 -3 -82 -30z"/>
<path d="M9960 5765 c-19 -13 -45 -24 -57 -24 -21 -1 -23 -5 -23 -64 0 -93 34
-114 155 -98 33 5 72 5 87 0 31 -9 36 -2 12 16 -15 10 -14 15 5 50 12 22 21
58 21 81 0 34 -4 43 -25 52 -45 21 -135 14 -175 -13z"/>
<path d="M23896 4515 c-11 -8 -28 -15 -38 -15 -10 0 -18 -5 -18 -10 0 -6 -8
-14 -17 -17 -40 -16 -103 -112 -103 -158 0 -31 26 -75 59 -100 21 -16 42 -20
111 -20 101 0 140 14 211 77 49 44 72 95 66 146 -3 25 -10 48 -16 50 -6 2 -11
10 -11 18 0 8 -6 14 -14 14 -7 0 -19 7 -26 15 -17 21 -177 21 -204 0z m216
-42 c26 -23 24 -91 -5 -124 -29 -34 -113 -89 -137 -89 -10 0 -20 -5 -22 -11
-2 -6 -33 -13 -68 -16 -56 -4 -69 -2 -92 17 -32 25 -35 50 -10 88 25 39 84 92
103 92 9 0 19 7 23 15 3 8 16 15 28 15 13 0 32 7 42 15 27 21 114 20 138 -2z"/>
</g>
</svg>
