<?xml version="1.0" standalone="no"?>
<!DOCTYPE svg PUBLIC "-//W3C//DTD SVG 20010904//EN"
 "http://www.w3.org/TR/2001/REC-SVG-20010904/DTD/svg10.dtd">
<svg version="1.0" xmlns="http://www.w3.org/2000/svg"
 width="2362.000000pt" height="1420.000000pt" viewBox="0 0 2362.000000 1420.000000"
 preserveAspectRatio="xMidYMid meet">
<metadata>
Created by potrace 1.16, written by Peter Selinger 2001-2019
</metadata>
<g transform="translate(0.000000,1420.000000) scale(0.100000,-0.100000)"
fill="#000000" stroke="none">
<path d="M14160 8520 l0 -5500 2380 0 2380 0 0 5500 0 5500 -2380 0 -2380 0 0
-5500z m2390 4325 c0 -74 0 -75 22 -64 11 6 39 11 62 11 31 -1 46 -7 64 -27
19 -23 22 -37 22 -111 0 -77 2 -84 20 -84 15 0 20 -7 20 -25 0 -24 -2 -25 -65
-25 -63 0 -65 1 -65 25 0 16 6 25 15 25 12 0 15 15 15 73 0 78 -9 97 -48 97
-52 0 -62 -15 -62 -95 0 -68 2 -75 20 -75 15 0 20 -7 20 -25 0 -24 -2 -25 -70
-25 -68 0 -70 1 -70 25 0 18 5 25 20 25 19 0 20 7 20 150 0 127 -2 150 -15
150 -9 0 -15 9 -15 25 0 23 4 25 45 25 l45 0 0 -75z m1284 54 c28 -22 45 -70
38 -107 -3 -13 -25 -43 -50 -67 -33 -32 -47 -54 -51 -82 -5 -32 -10 -38 -34
-41 -24 -3 -27 0 -27 28 0 47 24 94 63 124 19 15 38 34 41 42 8 20 -13 62 -34
69 -26 8 -66 -13 -79 -42 -8 -17 -17 -23 -27 -19 -9 3 -19 6 -23 6 -19 0 4 53
36 80 42 37 106 41 147 9z m-2425 -117 c106 -191 100 -189 101 -44 l0 122 -25
0 c-20 0 -25 5 -25 25 0 24 2 25 70 25 68 0 70 -1 70 -25 0 -18 -5 -25 -20
-25 -19 0 -20 -7 -20 -171 l0 -170 -36 3 c-36 3 -39 6 -116 143 -44 77 -81
142 -84 144 -2 2 -4 -50 -4 -117 0 -115 1 -122 20 -122 15 0 20 -7 20 -25 0
-26 -1 -26 -67 -23 -56 2 -68 6 -71 21 -3 12 4 20 17 24 20 5 21 12 21 149 0
137 -1 144 -20 144 -15 0 -20 7 -20 25 0 24 3 25 59 25 l60 0 70 -128z m396 3
c39 -19 57 -50 59 -102 l1 -38 -92 -3 c-51 -1 -93 -6 -93 -11 0 -5 10 -21 21
-36 19 -24 27 -26 68 -23 25 2 52 6 59 9 8 2 19 -4 25 -14 14 -21 3 -31 -55
-48 -108 -34 -195 55 -169 171 20 90 98 132 176 95z m1176 -1 c34 -17 59 -66
59 -114 l0 -30 -95 0 c-86 0 -94 -2 -88 -17 18 -50 82 -70 135 -42 16 9 23 8
29 -2 22 -35 -1 -55 -74 -65 -89 -12 -147 42 -147 136 0 62 20 104 63 130 39
24 78 25 118 4z m533 6 c35 -13 66 -66 66 -112 l0 -38 -90 0 c-97 0 -104 -5
-74 -49 14 -19 23 -22 63 -19 25 3 54 8 63 12 11 5 20 1 27 -13 10 -17 7 -23
-14 -37 -34 -22 -113 -29 -145 -12 -93 49 -93 214 0 260 40 20 67 22 104 8z
m-1517 -37 c-4 -24 0 -60 11 -97 l18 -59 28 97 c27 91 31 97 54 94 23 -3 28
-13 52 -98 l27 -95 18 60 c10 33 17 77 16 98 l-1 37 45 0 c41 0 45 -2 45 -25
0 -14 -6 -25 -12 -25 -8 0 -28 -48 -48 -113 -33 -103 -37 -112 -62 -115 -24
-3 -28 1 -43 55 -9 32 -21 76 -28 97 l-11 39 -13 -39 c-6 -21 -19 -65 -28 -97
-15 -54 -19 -58 -43 -55 -25 3 -29 12 -61 116 -21 69 -40 112 -48 112 -7 0
-13 11 -13 25 0 23 3 25 51 25 l52 0 -6 -37z m1193 25 c0 -9 3 -9 12 0 7 7 29
12 50 12 36 0 38 -2 38 -31 0 -30 -1 -31 -35 -26 -48 8 -65 -18 -65 -100 0
-61 1 -63 25 -63 20 0 25 -5 25 -25 0 -24 -2 -25 -70 -25 -68 0 -70 1 -70 25
0 16 6 25 15 25 12 0 15 16 15 85 0 69 -3 85 -15 85 -9 0 -15 9 -15 25 0 23 4
25 45 25 28 0 45 -4 45 -12z m-2367 -686 c9 -8 17 -21 17 -29 0 -18 -37 -16
-44 3 -4 10 -15 14 -33 12 -41 -4 -38 -38 4 -52 70 -24 94 -74 53 -111 -32
-29 -85 -25 -116 8 -25 27 -25 47 1 47 8 0 19 -9 25 -21 8 -14 19 -19 38 -17
43 5 35 36 -17 61 -58 29 -71 49 -51 84 24 42 83 49 123 15z m1425 -69 c1 -51
7 -93 12 -93 6 0 10 -7 10 -15 0 -11 -12 -15 -42 -17 -69 -2 -82 1 -100 23
-40 48 -6 129 54 129 21 0 28 5 28 19 0 11 -5 21 -12 23 -20 7 2 29 25 26 20
-3 22 -9 25 -95z m-1168 -57 c0 -107 -13 -128 -78 -124 -34 2 -47 7 -47 18 0
11 11 15 39 15 22 0 41 5 43 13 3 8 -5 12 -24 12 -34 0 -46 8 -62 37 -17 34
-13 62 13 88 19 19 34 24 70 23 l46 -1 0 -81z m591 63 c24 -24 25 -80 1 -108
-11 -14 -29 -23 -50 -23 -24 -1 -32 -6 -32 -20 0 -10 5 -18 10 -18 6 0 10 -7
10 -15 0 -10 -10 -15 -34 -15 -34 0 -61 20 -38 28 8 2 12 31 12 82 0 51 -4 80
-12 82 -28 10 7 25 58 26 42 0 60 -4 75 -19z m1504 11 c6 0 24 2 41 6 39 7 55
-11 62 -71 2 -25 9 -48 13 -51 21 -13 6 -24 -31 -24 -29 0 -40 4 -40 15 0 8 5
15 10 15 13 0 13 77 0 85 -6 3 -19 3 -30 0 -16 -5 -20 -15 -20 -46 0 -21 5
-39 10 -39 6 0 10 -7 10 -15 0 -10 -11 -15 -35 -15 -24 0 -35 5 -35 15 0 8 5
15 10 15 15 0 12 66 -4 79 -25 21 -46 2 -46 -40 0 -21 5 -39 10 -39 6 0 10 -7
10 -15 0 -11 -11 -15 -40 -15 -38 0 -52 12 -30 25 14 9 13 92 -2 97 -6 2 -8
10 -4 16 5 8 27 11 69 7 34 -2 67 -5 72 -5z m765 -78 c0 -94 -8 -115 -48 -125
-29 -7 -84 12 -79 27 2 6 23 11 47 11 24 0 45 5 47 12 3 7 -7 11 -26 11 -44
-1 -71 27 -71 74 0 53 27 78 85 78 l45 0 0 -88z m255 71 c9 -8 15 -33 15 -59
0 -24 5 -44 10 -44 6 0 10 -7 10 -15 0 -11 -11 -15 -40 -15 -40 0 -54 15 -25
26 19 8 20 54 1 79 -22 30 -46 12 -46 -35 0 -22 5 -40 10 -40 6 0 10 -7 10
-15 0 -11 -11 -15 -40 -15 -29 0 -40 4 -40 15 0 8 5 15 10 15 14 0 13 87 -2
92 -6 2 -9 9 -5 15 10 16 115 14 132 -4z m193 -63 c3 -113 -26 -149 -106 -128
-46 12 -35 33 18 33 24 0 45 5 47 11 2 6 -10 11 -28 11 -63 0 -92 82 -47 130
18 19 31 23 68 21 l45 -3 3 -75z m-2688 -360 c37 -37 22 -112 -27 -131 -76
-29 -131 69 -75 134 21 24 77 22 102 -3z m1422 3 c39 -45 29 -112 -21 -133
-75 -31 -136 66 -79 127 26 28 78 31 100 6z m203 -4826 c104 -49 180 -139 205
-246 38 -161 -50 -337 -204 -408 l-61 -28 -700 -3 c-495 -2 -715 0 -752 8 -30
6 -79 29 -112 51 -180 120 -214 376 -70 533 55 60 117 101 176 115 21 5 349 9
748 8 l710 -2 60 -28z"/>
<path d="M15821 6769 c-25 -5 -68 -24 -97 -43 -208 -139 -183 -448 45 -555
l56 -26 720 0 720 0 50 24 c64 32 124 93 155 156 19 40 24 66 24 135 1 79 -1
89 -35 150 -23 43 -52 78 -85 103 -90 69 -70 67 -828 66 -375 -1 -701 -5 -725
-10z m243 -203 c15 -13 26 -28 26 -35 0 -18 -38 -13 -59 8 -24 24 -61 17 -61
-10 0 -14 16 -26 55 -44 51 -22 55 -26 55 -58 0 -69 -86 -98 -135 -44 -14 14
-25 31 -25 37 0 18 39 11 50 -10 13 -24 52 -26 71 -4 11 14 10 19 -10 35 -13
11 -32 19 -42 19 -27 0 -59 35 -59 65 0 61 85 87 134 41z m322 3 c19 -11 34
-25 34 -30 0 -19 -31 -21 -51 -4 -48 45 -119 7 -119 -63 0 -66 73 -108 114
-66 23 22 20 32 -9 36 -44 5 -27 23 23 23 l47 0 3 -52 c3 -48 1 -53 -17 -53
-13 0 -21 7 -21 17 0 15 -1 15 -18 0 -11 -10 -35 -17 -59 -17 -98 0 -138 127
-63 201 35 36 87 39 136 8z m196 -69 l48 -85 0 71 c0 56 -3 73 -16 78 -25 10
-6 26 32 26 34 0 47 -20 23 -35 -6 -4 -8 -14 -4 -23 3 -9 3 -51 -1 -94 -9
-106 -26 -105 -88 2 -26 44 -49 80 -51 80 -3 0 -5 -29 -5 -65 0 -51 3 -65 15
-65 8 0 15 -7 15 -15 0 -11 -11 -15 -40 -15 -29 0 -40 4 -40 15 0 8 5 15 10
15 6 0 10 35 10 85 0 50 -4 85 -10 85 -5 0 -10 7 -10 16 0 11 8 14 32 12 29
-3 37 -11 80 -88z m258 75 c0 -8 -4 -15 -10 -15 -17 0 -12 -123 6 -148 21 -31
64 -26 81 8 19 38 17 127 -3 138 -25 14 -7 32 32 32 33 0 48 -20 24 -35 -5 -3
-10 -37 -10 -74 0 -58 -3 -72 -25 -95 -18 -20 -34 -26 -64 -26 -59 0 -81 33
-81 121 0 37 -4 71 -10 74 -24 15 -9 35 25 35 24 0 35 -5 35 -15z m306 -10
c34 -47 0 -105 -61 -105 -33 0 -35 -2 -35 -35 0 -24 5 -35 15 -35 8 0 15 -7
15 -15 0 -11 -11 -15 -40 -15 -29 0 -40 4 -40 15 0 8 5 15 10 15 6 0 10 35 10
85 0 50 -4 85 -10 85 -5 0 -10 7 -10 16 0 25 127 15 146 -11z"/>
<path d="M8505 12860 c-119 -18 -182 -118 -141 -223 20 -53 60 -81 160 -111
91 -29 123 -48 137 -83 13 -36 -5 -80 -42 -98 -33 -18 -98 -19 -132 -4 -26 12
-57 57 -57 83 0 13 -11 16 -50 16 l-50 0 0 -35 c0 -24 5 -35 15 -35 8 0 24
-18 34 -39 42 -82 176 -107 281 -53 64 32 90 74 90 145 0 92 -37 131 -163 173
-112 37 -133 49 -145 82 -32 92 121 150 191 72 15 -16 27 -37 27 -45 0 -11 12
-15 50 -15 l50 0 0 35 c0 23 -5 35 -14 35 -7 0 -26 16 -40 35 -41 54 -117 78
-201 65z"/>
<path d="M10020 12835 c0 -33 2 -35 35 -35 l35 0 0 -235 0 -235 -35 0 c-33 0
-35 -2 -35 -35 l0 -35 90 0 90 0 0 34 c0 25 -5 35 -20 39 -17 4 -20 14 -20 56
0 49 1 51 28 51 22 0 44 -18 110 -90 81 -87 85 -90 128 -90 44 0 44 0 44 35 0
30 -3 35 -24 35 -17 0 -44 21 -91 72 l-66 71 63 64 c40 41 71 63 85 63 20 0
23 5 23 35 l0 35 -80 0 -80 0 0 -35 c0 -21 5 -35 12 -35 7 0 -10 -23 -37 -50
-41 -42 -55 -50 -80 -48 l-30 3 1 183 0 182 -73 0 -73 0 0 -35z"/>
<path d="M10885 12852 c-77 -26 -121 -66 -157 -140 -30 -61 -33 -75 -32 -157
0 -70 5 -101 21 -137 26 -56 85 -117 137 -142 49 -23 140 -31 193 -17 60 16
132 70 160 118 l25 42 -37 18 c-34 16 -37 16 -46 1 -39 -70 -101 -108 -176
-108 -134 0 -229 142 -193 289 39 165 218 226 325 112 24 -25 38 -31 72 -31
42 0 43 0 43 35 0 25 -4 35 -16 35 -9 0 -34 16 -57 35 -72 62 -169 79 -262 47z"/>
<path d="M8893 12785 c-31 -13 -33 -17 -33 -65 l0 -50 -35 0 c-32 0 -35 -2
-35 -30 0 -26 3 -30 29 -30 l29 0 4 -142 c3 -91 9 -153 18 -171 30 -61 195
-60 176 1 -6 17 -14 20 -52 19 -30 -1 -48 3 -54 13 -5 8 -10 75 -10 148 l0
132 50 0 c49 0 50 1 50 30 0 29 -1 30 -50 30 l-49 0 -3 64 -3 64 -32 -13z"/>
<path d="M8023 12671 c-18 -5 -44 -16 -58 -25 -24 -16 -25 -16 -25 4 0 19 -5
21 -67 18 l-68 -3 -3 -32 c-3 -31 -1 -33 27 -33 l31 0 0 -135 0 -135 -31 0
c-28 0 -30 -2 -27 -32 l3 -33 98 -3 97 -3 0 36 c0 32 -2 35 -30 35 l-30 0 0
119 0 119 43 21 c50 24 96 20 124 -11 14 -16 19 -42 22 -134 l3 -114 -31 0
c-29 0 -31 -3 -31 -35 l0 -35 95 0 95 0 0 35 c0 30 -3 35 -24 35 -24 0 -24 1
-27 128 -4 136 -13 165 -62 196 -29 19 -84 26 -124 17z"/>
<path d="M9220 12664 c-78 -34 -114 -96 -114 -200 0 -62 3 -78 29 -120 75
-122 256 -126 338 -8 52 75 47 207 -10 275 -53 63 -164 87 -243 53z m145 -66
c55 -25 82 -129 51 -202 -32 -78 -126 -102 -184 -48 -29 27 -52 84 -52 127 1
32 36 101 61 119 28 19 87 21 124 4z"/>
<path d="M9692 12659 c-142 -70 -141 -319 0 -388 69 -33 148 -25 208 21 23 18
49 54 50 69 0 4 -13 12 -29 19 -28 11 -32 10 -58 -20 -59 -66 -154 -44 -188
44 -39 101 16 206 108 206 33 0 51 -6 71 -25 19 -18 38 -25 67 -25 38 0 39 1
39 35 0 28 -4 35 -19 35 -10 0 -39 11 -62 25 -57 32 -127 33 -187 4z"/>
<path d="M11415 12670 c-39 -12 -94 -65 -113 -110 -8 -19 -14 -62 -14 -95 0
-73 18 -119 62 -163 72 -69 203 -69 279 1 90 83 77 277 -24 346 -39 26 -138
37 -190 21z m143 -76 c34 -23 52 -67 52 -124 0 -93 -46 -150 -120 -150 -73 0
-120 59 -120 150 0 59 11 86 48 117 32 28 106 31 140 7z"/>
<path d="M7540 12635 c0 -32 2 -35 30 -35 l30 0 0 -135 0 -135 -31 0 c-28 0
-30 -2 -27 -32 l3 -33 98 -3 97 -3 0 36 c0 32 -2 35 -30 35 l-30 0 0 170 0
170 -70 0 -70 0 0 -35z"/>
<path d="M8740 11775 c0 -18 5 -25 20 -25 19 0 20 -7 20 -150 0 -143 -1 -150
-20 -150 -15 0 -20 -7 -20 -25 0 -24 2 -25 65 -25 63 0 65 1 65 25 0 18 -5 25
-20 25 -19 0 -20 7 -20 175 l0 175 -45 0 c-41 0 -45 -2 -45 -25z"/>
<path d="M10430 11775 c0 -18 5 -25 20 -25 19 0 20 -7 20 -174 l0 -173 79 -1
c66 -1 83 2 105 19 73 57 75 184 4 233 -26 18 -90 21 -119 6 -18 -10 -19 -7
-19 65 l0 75 -45 0 c-41 0 -45 -2 -45 -25z m195 -167 c35 -31 42 -83 16 -125
-22 -35 -68 -51 -100 -33 -18 9 -21 20 -21 84 0 66 2 74 23 84 34 16 54 14 82
-10z"/>
<path d="M11322 11778 c2 -15 11 -24 26 -26 22 -3 22 -5 22 -153 0 -142 -1
-149 -20 -149 -15 0 -20 -7 -20 -25 0 -24 3 -25 55 -25 52 0 55 1 55 25 0 14
-4 25 -10 25 -5 0 -10 16 -10 35 0 50 19 45 83 -25 45 -48 62 -60 86 -60 26 0
31 4 31 25 0 18 -5 25 -19 25 -16 0 -91 70 -91 86 0 15 67 84 83 84 11 0 17 8
17 25 0 23 -3 25 -50 25 -48 0 -50 -1 -50 -29 0 -38 -35 -81 -66 -81 l-24 0 0
120 0 120 -51 0 c-47 0 -50 -2 -47 -22z"/>
<path d="M7770 11765 c0 -17 5 -25 18 -25 14 0 29 -35 73 -167 l55 -168 41 -3
40 -3 42 148 c24 81 46 153 50 161 4 7 28 -56 56 -148 l48 -160 42 0 42 0 54
170 c43 136 57 170 71 170 13 0 18 8 18 25 0 24 -2 25 -65 25 -63 0 -65 -1
-65 -25 0 -18 5 -25 19 -25 17 0 15 -11 -24 -130 -23 -72 -45 -133 -48 -136
-3 -3 -19 41 -37 98 -70 229 -61 213 -107 216 l-40 3 -43 -153 c-24 -84 -46
-156 -50 -161 -3 -4 -24 48 -45 115 -21 68 -40 129 -43 136 -2 6 3 12 12 12
10 0 16 9 16 25 0 24 -2 25 -65 25 -63 0 -65 -1 -65 -25z"/>
<path d="M9005 11672 c-89 -30 -123 -150 -66 -230 42 -60 146 -62 191 -4 20
25 20 27 4 39 -14 10 -22 8 -46 -12 -37 -31 -59 -31 -95 -1 -23 20 -28 32 -28
69 0 80 75 127 120 77 26 -28 65 -27 65 3 0 34 -98 74 -145 59z"/>
<path d="M9290 11669 c-76 -16 -121 -121 -84 -195 11 -21 32 -47 47 -58 34
-25 101 -28 141 -6 35 18 66 78 66 125 0 43 -32 110 -57 120 -39 16 -80 21
-113 14z m77 -54 c66 -46 37 -175 -39 -175 -46 0 -78 39 -78 95 0 76 62 119
117 80z"/>
<path d="M11135 11672 c-89 -30 -123 -150 -66 -230 42 -60 146 -62 191 -4 20
25 20 27 4 39 -14 10 -22 8 -46 -12 -37 -31 -59 -31 -95 -1 -23 20 -28 32 -28
69 0 80 75 127 120 77 26 -28 65 -27 65 3 0 34 -98 74 -145 59z"/>
<path d="M8488 11645 c-51 -48 -60 -155 -17 -209 23 -29 80 -48 118 -40 54 12
82 27 79 43 -4 17 -18 18 -79 6 -29 -6 -40 -3 -62 16 -14 13 -27 33 -29 44 -3
19 3 20 90 23 89 3 92 4 92 26 0 39 -20 84 -45 100 -39 26 -115 21 -147 -9z"/>
<path d="M9510 11645 c0 -16 6 -25 15 -25 12 0 15 -16 15 -85 0 -69 -3 -85
-15 -85 -9 0 -15 -9 -15 -25 0 -24 3 -25 60 -25 57 0 60 1 60 25 0 16 -6 25
-15 25 -12 0 -15 15 -15 74 0 84 10 99 62 94 42 -4 58 -34 58 -110 0 -51 -2
-58 -20 -58 -15 0 -20 -7 -20 -25 0 -24 2 -25 65 -25 59 0 65 2 65 21 0 12 -8
23 -20 26 -18 5 -20 14 -20 79 0 71 1 74 29 89 34 17 74 8 85 -20 3 -9 6 -46
6 -81 0 -57 -2 -64 -20 -64 -15 0 -20 -7 -20 -25 0 -24 2 -25 65 -25 63 0 65
1 65 25 0 18 -5 25 -20 25 -18 0 -20 7 -20 85 0 78 -2 88 -25 110 -28 29 -80
33 -126 10 -27 -14 -32 -14 -51 0 -26 18 -75 20 -115 4 -19 -7 -29 -7 -31 0
-2 6 -21 11 -43 11 -35 0 -39 -3 -39 -25z"/>
<path d="M10078 11650 c-37 -28 -51 -72 -46 -135 5 -65 32 -100 87 -115 64
-17 152 16 132 49 -8 12 -16 12 -53 2 -50 -14 -91 -4 -107 28 -25 46 -18 51
85 51 95 0 96 0 90 23 -3 12 -6 30 -6 39 0 9 -12 30 -26 47 -23 27 -32 31 -79
31 -37 0 -60 -6 -77 -20z"/>
<path d="M10793 11660 c-25 -10 -27 -18 -15 -38 7 -10 15 -10 36 -2 15 5 36
10 46 10 24 0 50 -26 50 -49 0 -15 -10 -19 -57 -23 -46 -4 -61 -10 -80 -32
-29 -34 -29 -68 0 -102 18 -21 32 -27 65 -27 23 0 48 6 57 13 10 8 15 9 15 1
0 -6 17 -11 40 -11 36 0 40 3 40 25 0 16 -6 25 -15 25 -12 0 -15 17 -15 89 0
85 -1 91 -26 110 -29 22 -99 28 -141 11z"/>
<path d="M9450 10610 c0 -5 5 -10 10 -10 6 0 10 -30 10 -70 0 -40 -4 -70 -10
-70 -5 0 -10 -4 -10 -10 0 -5 14 -10 30 -10 29 0 42 14 19 22 -6 2 -9 27 -7
63 l3 60 30 -72 c17 -40 34 -71 40 -70 5 2 20 30 33 63 34 85 42 88 42 16 0
-35 -4 -62 -10 -62 -5 0 -10 -4 -10 -10 0 -5 10 -10 23 -10 21 0 22 3 22 90 0
85 -1 90 -21 90 -18 0 -27 -13 -49 -75 -15 -41 -29 -75 -30 -75 -2 0 -15 34
-30 75 -26 70 -30 75 -56 75 -16 0 -29 -4 -29 -10z"/>
<path d="M9580 8910 c0 -5 4 -10 9 -10 5 0 21 -36 36 -80 35 -106 55 -109 81
-10 10 39 21 70 24 70 3 0 16 -31 29 -70 31 -99 51 -96 81 10 13 44 27 80 31
80 5 0 9 5 9 10 0 6 -13 10 -30 10 -28 0 -42 -14 -20 -22 9 -3 -15 -105 -29
-121 -4 -4 -18 26 -30 68 -17 58 -26 75 -40 75 -14 0 -22 -15 -36 -67 -10 -38
-21 -72 -25 -76 -9 -11 -41 108 -34 127 5 12 -1 16 -25 16 -17 0 -31 -4 -31
-10z"/>
<path d="M9928 8906 c-64 -48 -30 -166 47 -166 55 0 95 57 81 115 -14 55 -85
84 -128 51z"/>
<path d="M10095 8830 c0 -85 1 -90 22 -90 19 0 21 4 16 41 -6 39 -5 41 18 37
18 -2 26 -12 33 -40 7 -27 15 -38 28 -38 10 0 18 5 18 10 0 6 -4 10 -8 10 -13
0 -34 74 -22 78 6 2 10 17 10 32 0 35 -23 50 -77 50 l-38 0 0 -90z"/>
<path d="M10265 8829 l0 -91 48 5 c64 6 92 33 92 88 0 55 -38 89 -98 89 l-42
0 0 -91z"/>
<path d="M7369 7066 c-103 -27 -190 -103 -237 -205 -22 -46 -27 -71 -27 -141
0 -76 3 -92 32 -151 39 -79 102 -140 181 -177 l57 -27 2325 0 2325 0 57 27
c79 37 142 98 181 177 28 58 32 75 32 151 0 76 -4 93 -32 151 -39 79 -102 140
-181 177 l-57 27 -2305 2 c-1805 1 -2315 -1 -2351 -11z m1885 -237 c33 -26 34
-49 1 -49 -16 0 -25 6 -25 16 0 11 -8 14 -32 12 -49 -5 -45 -37 6 -55 22 -7
48 -21 58 -30 40 -36 9 -99 -53 -109 -31 -5 -41 -2 -68 23 -38 36 -39 53 -6
53 15 0 25 -6 25 -15 0 -22 48 -31 67 -12 22 21 6 40 -47 56 -60 18 -79 72
-40 111 26 26 80 26 114 -1z m320 4 c20 -10 36 -26 36 -35 0 -23 -28 -23 -51
-2 -49 44 -126 -7 -115 -75 9 -61 73 -92 110 -55 23 22 20 34 -9 34 -16 0 -25
6 -25 15 0 11 12 15 50 15 l50 0 0 -55 c0 -48 -2 -55 -20 -55 -11 0 -20 5 -20
10 0 7 -6 7 -19 0 -33 -17 -95 -12 -119 10 -33 31 -47 90 -32 134 23 71 91 95
164 59z m197 -63 l44 -81 3 58 c2 34 -1 59 -7 61 -6 2 -11 12 -11 23 0 16 7
19 40 19 28 0 40 -4 40 -14 0 -8 -4 -18 -10 -21 -6 -3 -10 -48 -10 -101 0 -93
0 -94 -24 -94 -20 0 -32 14 -68 78 l-43 77 -3 -60 c-2 -36 1 -61 7 -63 6 -2
11 -10 11 -18 0 -10 -12 -14 -40 -14 -29 0 -40 4 -40 15 0 8 5 15 10 15 6 0
10 33 10 80 0 47 -4 80 -10 80 -5 0 -10 9 -10 20 0 16 7 20 33 20 32 0 36 -5
78 -80z m418 -7 l46 -83 3 62 c2 48 0 64 -12 70 -31 18 -18 38 24 38 33 0 40
-3 40 -20 0 -11 -4 -20 -10 -20 -6 0 -10 -38 -10 -95 0 -92 -1 -95 -22 -95
-18 0 -32 17 -66 80 -24 44 -45 80 -48 80 -2 0 -4 -29 -4 -65 0 -51 3 -65 15
-65 8 0 15 -7 15 -15 0 -11 -12 -15 -45 -15 -33 0 -45 4 -45 15 0 8 5 15 10
15 14 0 13 153 -1 167 -18 18 0 34 33 31 27 -3 37 -13 77 -85z"/>
<path d="M10545 298 c-75 -41 -72 -156 4 -188 73 -30 146 19 146 97 0 38 -5
49 -33 74 -34 31 -80 38 -117 17z m101 -32 c57 -48 20 -146 -55 -146 -17 0
-39 10 -55 26 -77 78 27 192 110 120z"/>
<path d="M12651 264 c-31 -39 -29 -107 4 -139 29 -30 55 -32 86 -6 21 16 24
28 24 81 0 49 -4 64 -19 76 -31 23 -72 17 -95 -12z"/>
<path d="M12956 268 c-10 -14 -16 -44 -16 -75 0 -68 25 -98 74 -89 42 8 56 31
56 91 0 66 -20 95 -65 95 -24 0 -39 -7 -49 -22z"/>
<path d="M11880 219 c0 -5 5 -9 10 -9 6 0 10 -30 10 -69 0 -39 -4 -73 -10 -76
-20 -12 -9 -25 20 -25 17 0 30 5 30 10 0 6 -4 10 -10 10 -5 0 -10 9 -10 20 0
15 7 20 28 20 37 0 62 28 62 68 0 44 -22 61 -80 60 -28 0 -50 -4 -50 -9z"/>
</g>
</svg>
