<?xml version="1.0" standalone="no"?>
<!DOCTYPE svg PUBLIC "-//W3C//DTD SVG 20010904//EN"
 "http://www.w3.org/TR/2001/REC-SVG-20010904/DTD/svg10.dtd">
<svg version="1.0" xmlns="http://www.w3.org/2000/svg"
 width="2232.000000pt" height="1532.000000pt" viewBox="0 0 2232.000000 1532.000000"
 preserveAspectRatio="xMidYMid meet">
<metadata>
Created by potrace 1.16, written by Peter Selinger 2001-2019
</metadata>
<g transform="translate(0.000000,1532.000000) scale(0.100000,-0.100000)"
fill="#000000" stroke="none">
<path d="M9050 15070 l0 -40 85 0 85 0 0 -245 0 -245 50 0 50 0 0 245 0 245
85 0 85 0 0 40 0 40 -220 0 -220 0 0 -40z"/>
<path d="M10460 15070 l0 -39 88 -3 87 -3 3 -242 2 -243 45 0 45 0 0 245 0
245 85 0 85 0 0 40 0 40 -220 0 -220 0 0 -40z"/>
<path d="M12020 15070 l0 -40 85 0 85 0 0 -245 0 -245 45 0 45 0 0 245 0 245
85 0 85 0 0 40 0 40 -215 0 -215 0 0 -40z"/>
<path d="M9560 14750 l0 -210 45 0 45 0 0 210 0 210 -45 0 -45 0 0 -210z"/>
<path d="M9834 14946 c-62 -27 -104 -106 -104 -198 0 -92 36 -160 105 -196 41
-21 141 -21 182 1 39 21 80 73 85 107 3 23 -1 25 -40 28 -37 3 -43 0 -51 -21
-20 -53 -92 -74 -140 -41 -74 52 -64 211 15 249 46 22 98 6 119 -36 13 -25 21
-29 55 -29 35 0 40 3 40 23 0 33 -44 92 -83 111 -42 19 -140 21 -183 2z"/>
<path d="M10943 14944 c-34 -17 -73 -69 -73 -98 0 -25 86 -23 95 2 6 22 45 42
79 42 32 0 63 -29 71 -66 l6 -31 -82 -6 c-46 -4 -97 -14 -117 -24 -104 -51
-86 -192 28 -223 50 -14 88 -7 135 25 l35 24 0 -24 c0 -23 4 -25 45 -25 l45 0
0 152 c0 176 -14 223 -74 252 -44 21 -151 21 -193 0z m172 -263 c-12 -58 -90
-90 -146 -61 -24 13 -26 62 -2 81 17 15 133 29 147 18 4 -4 5 -21 1 -38z"/>
<path d="M11369 14932 c-27 -17 -52 -44 -63 -66 -38 -81 -29 -198 20 -264 82
-107 268 -86 321 36 18 42 11 52 -37 52 -30 0 -40 -5 -45 -20 -3 -11 -18 -29
-32 -40 -78 -61 -176 27 -159 145 8 51 44 100 81 109 34 9 93 -18 107 -48 9
-22 18 -26 55 -26 41 0 44 2 37 23 -26 87 -72 121 -169 125 -63 3 -74 1 -116
-26z"/>
<path d="M12515 14946 c-68 -30 -105 -101 -105 -203 0 -114 48 -181 145 -203
138 -31 245 58 245 203 0 138 -72 217 -197 217 -32 -1 -71 -7 -88 -14z m134
-71 c71 -36 80 -193 14 -245 -72 -56 -163 6 -163 113 0 63 18 106 54 128 37
23 58 24 95 4z"/>
<path d="M12955 14941 c-67 -41 -95 -100 -95 -198 0 -78 26 -141 70 -173 43
-30 126 -45 179 -30 50 13 108 64 117 103 6 26 5 27 -34 27 -28 0 -45 -6 -54
-18 -18 -26 -51 -42 -88 -42 -42 0 -67 15 -85 50 -31 59 -29 60 125 60 111 0
142 3 146 14 3 8 1 40 -5 71 -13 68 -49 121 -97 141 -49 20 -142 18 -179 -5z"/>
<path d="M10180 14770 l0 -40 130 0 130 0 0 40 0 40 -130 0 -130 0 0 -40z"/>
<path d="M11730 14770 l0 -40 130 0 130 0 0 40 0 40 -130 0 -130 0 0 -40z"/>
<path d="M3043 14075 c-37 -16 -53 -42 -53 -87 0 -51 23 -76 88 -93 91 -25
102 -32 102 -59 0 -50 -93 -65 -128 -21 -25 31 -72 35 -72 6 0 -33 42 -71 88
-82 93 -21 172 25 172 100 0 54 -17 70 -106 99 -70 24 -79 30 -79 52 0 52 104
60 120 9 7 -20 49 -27 60 -9 10 16 -24 69 -55 85 -36 19 -95 19 -137 0z"/>
<path d="M5335 14082 c-6 -4 -27 -33 -49 -66 l-38 -59 -39 62 c-35 56 -41 61
-74 61 -26 0 -34 -3 -29 -12 4 -7 29 -45 55 -84 l48 -71 -55 -81 c-30 -45 -54
-84 -54 -87 0 -3 15 -5 33 -5 29 0 37 6 66 55 19 31 37 58 41 60 4 3 25 -22
46 -55 35 -53 43 -60 72 -60 17 0 32 2 32 5 0 3 -22 39 -50 80 -27 41 -50 79
-50 85 0 6 23 45 51 86 28 42 49 77 47 79 -10 9 -44 14 -53 7z"/>
<path d="M7125 14083 c-26 -6 -45 -31 -45 -61 0 -15 -7 -26 -20 -29 -11 -3
-20 -13 -20 -23 0 -10 9 -20 20 -23 18 -5 20 -14 20 -106 0 -101 0 -101 25
-101 24 0 24 1 27 103 3 97 4 102 26 105 32 5 30 42 -3 42 -14 0 -25 4 -25 9
0 23 14 41 31 41 14 0 19 7 19 25 0 25 -10 29 -55 18z"/>
<path d="M8244 14076 c-66 -30 -104 -124 -84 -212 20 -90 67 -127 158 -126 61
0 94 18 122 65 26 42 25 47 -6 47 -16 0 -37 -12 -54 -30 -53 -57 -138 -30
-160 51 -17 61 8 132 52 155 40 20 82 10 111 -28 18 -22 30 -29 50 -26 l27 3
-17 34 c-10 19 -30 43 -45 54 -34 25 -113 32 -154 13z"/>
<path d="M6040 13910 l0 -170 30 0 30 0 0 170 0 170 -30 0 -30 0 0 -170z"/>
<path d="M6160 13910 l0 -170 30 0 30 0 0 170 0 170 -30 0 -30 0 0 -170z"/>
<path d="M8510 13910 l0 -170 30 0 30 0 0 170 0 170 -30 0 -30 0 0 -170z"/>
<path d="M9010 13910 l0 -170 30 0 c29 0 30 1 30 50 0 28 4 50 9 50 5 0 26
-22 47 -50 33 -43 43 -50 72 -50 l34 0 -26 35 c-14 19 -38 51 -52 70 l-26 34
47 56 47 55 -33 0 c-28 0 -42 -8 -76 -47 l-42 -48 -1 93 0 92 -30 0 -30 0 0
-170z"/>
<path d="M13390 13910 l0 -170 25 0 c24 0 25 2 25 69 0 81 11 115 40 131 17 9
26 8 46 -5 22 -14 24 -21 24 -105 l0 -90 31 0 31 0 -4 104 c-2 83 -7 108 -21
124 -25 28 -73 35 -110 17 -17 -8 -32 -15 -34 -15 -1 0 -3 25 -3 55 0 52 -1
55 -25 55 l-25 0 0 -170z"/>
<path d="M14040 13910 l0 -170 30 0 c21 0 30 5 30 17 0 15 1 15 18 0 21 -19
83 -22 113 -7 46 25 65 130 33 191 -28 55 -102 71 -146 31 -17 -14 -18 -11
-18 46 l0 62 -30 0 -30 0 0 -170z m160 20 c25 -25 28 -101 4 -124 -19 -20 -68
-21 -84 -1 -6 8 -14 32 -17 54 -5 33 -1 44 20 65 31 31 50 33 77 6z"/>
<path d="M15199 14018 c0 -35 -3 -58 -5 -51 -3 7 -20 17 -39 23 -72 24 -135
-35 -135 -125 0 -46 23 -101 48 -114 31 -16 93 -13 114 6 17 15 18 15 18 0 0
-12 9 -17 30 -17 l30 0 0 170 0 170 -30 0 -30 0 -1 -62z m-24 -93 c66 -65 -9
-180 -77 -118 -26 23 -25 96 2 123 26 26 46 25 75 -5z"/>
<path d="M17400 13910 l0 -170 30 0 30 0 0 170 0 170 -30 0 -30 0 0 -170z"/>
<path d="M7780 14020 c0 -23 -4 -30 -20 -30 -13 0 -20 -7 -20 -20 0 -13 7 -20
20 -20 19 0 20 -7 20 -89 0 -102 10 -121 66 -121 30 0 34 3 34 25 0 18 -5 25
-20 25 -18 0 -20 7 -20 80 0 73 2 80 20 80 13 0 20 7 20 20 0 13 -7 20 -20 20
-16 0 -20 7 -20 30 0 27 -3 30 -30 30 -27 0 -30 -3 -30 -30z"/>
<path d="M13230 14020 c0 -20 -5 -30 -15 -30 -8 0 -15 -9 -15 -20 0 -11 7 -20
15 -20 12 0 15 -16 15 -83 0 -100 14 -127 65 -127 19 0 36 4 39 9 10 16 -5 41
-25 41 -17 0 -19 8 -19 80 0 79 0 80 25 80 18 0 25 5 25 20 0 15 -7 20 -25 20
-21 0 -25 5 -25 30 0 27 -3 30 -30 30 -27 0 -30 -3 -30 -30z"/>
<path d="M15440 14020 c0 -20 -5 -30 -15 -30 -8 0 -15 -9 -15 -20 0 -11 6 -20
14 -20 10 0 15 -23 18 -91 5 -103 15 -119 75 -119 26 0 33 4 33 20 0 13 -10
24 -25 30 -24 9 -25 14 -25 85 0 73 1 75 25 75 18 0 25 5 25 20 0 15 -7 20
-25 20 -21 0 -25 5 -25 30 0 27 -3 30 -30 30 -27 0 -30 -3 -30 -30z"/>
<path d="M16240 14020 c0 -23 -4 -30 -20 -30 -13 0 -20 -7 -20 -20 0 -13 7
-20 20 -20 18 0 20 -7 20 -88 0 -101 12 -122 68 -122 27 0 32 4 32 25 0 18 -5
25 -20 25 -18 0 -20 7 -20 80 0 73 2 80 20 80 13 0 20 7 20 20 0 13 -7 20 -20
20 -16 0 -20 7 -20 30 0 27 -3 30 -30 30 -27 0 -30 -3 -30 -30z"/>
<path d="M16850 14024 c0 -17 -6 -28 -20 -31 -11 -3 -20 -13 -20 -23 0 -10 9
-20 20 -23 18 -5 20 -14 20 -90 0 -98 11 -117 66 -117 30 0 34 3 34 25 0 18
-5 25 -20 25 -24 0 -32 28 -28 101 3 47 6 54 26 57 14 2 22 10 22 22 0 12 -8
20 -22 22 -17 2 -24 11 -26 31 -3 21 -9 27 -28 27 -19 0 -24 -5 -24 -26z"/>
<path d="M3624 13986 c-46 -20 -64 -52 -64 -114 0 -100 40 -137 143 -133 57 2
108 91 52 91 -14 0 -29 -8 -34 -19 -13 -23 -40 -31 -68 -20 -43 16 -47 117 -6
147 25 18 41 15 69 -13 28 -28 64 -33 64 -9 0 29 -21 56 -55 70 -42 17 -61 17
-101 0z"/>
<path d="M3882 13984 c-40 -21 -62 -60 -62 -113 0 -74 26 -114 85 -130 63 -17
123 12 139 67 6 19 4 22 -21 22 -17 0 -33 -8 -40 -19 -17 -28 -49 -32 -78 -9
-20 15 -25 28 -25 64 0 75 58 110 98 59 12 -16 30 -25 47 -25 23 0 25 3 20 23
-19 62 -101 92 -163 61z"/>
<path d="M4150 13988 c-59 -32 -88 -127 -57 -187 35 -68 134 -87 188 -35 16
15 29 34 29 41 0 20 -48 15 -70 -7 -25 -25 -41 -25 -74 1 -48 38 -35 49 59 49
l85 0 0 29 c0 67 -35 107 -101 117 -19 2 -45 -1 -59 -8z"/>
<path d="M4393 13981 c-28 -18 -33 -26 -33 -61 0 -45 17 -61 87 -79 48 -13 60
-26 43 -46 -18 -21 -58 -18 -72 5 -14 22 -68 28 -68 7 0 -71 150 -98 195 -34
36 51 6 98 -76 117 -55 13 -66 24 -49 45 18 21 58 18 72 -5 16 -26 58 -27 58
-2 0 54 -101 88 -157 53z"/>
<path d="M4660 13993 c-30 -11 -60 -47 -60 -71 0 -37 26 -60 87 -78 39 -11 53
-20 53 -34 0 -34 -51 -40 -77 -10 -22 26 -63 27 -63 2 0 -36 44 -64 100 -64
63 0 100 28 100 78 0 39 -13 50 -81 72 -42 13 -54 22 -54 37 0 29 45 32 70 5
18 -20 50 -27 58 -12 11 17 -15 54 -48 67 -35 15 -59 17 -85 8z"/>
<path d="M6443 13985 c-45 -19 -66 -65 -61 -133 4 -47 10 -60 37 -84 36 -32
84 -37 119 -12 20 14 22 14 22 -4 0 -50 -68 -75 -108 -39 -20 18 -62 23 -62 8
0 -59 108 -93 179 -56 41 21 51 61 51 201 l0 124 -30 0 c-22 0 -30 -5 -30 -17
0 -12 -3 -14 -8 -6 -7 11 -55 33 -70 33 -4 -1 -21 -7 -39 -15z m94 -61 c21
-21 25 -32 20 -65 -7 -51 -22 -69 -58 -69 -67 0 -84 130 -19 153 26 9 30 8 57
-19z"/>
<path d="M6733 13985 c-55 -23 -79 -87 -63 -161 12 -54 49 -84 106 -84 86 0
124 39 124 128 0 64 -28 108 -77 121 -47 13 -51 13 -90 -4z m84 -50 c42 -30
33 -128 -14 -146 -69 -26 -110 81 -55 144 18 21 41 22 69 2z"/>
<path d="M7428 13986 c-16 -8 -28 -11 -28 -5 0 5 -11 9 -25 9 l-25 0 0 -125 0
-125 25 0 c24 0 25 2 25 73 0 86 15 121 53 125 23 3 27 8 27 33 0 33 -12 36
-52 15z"/>
<path d="M7560 13983 c-30 -15 -35 -24 -38 -56 -4 -49 9 -64 74 -83 60 -17 71
-28 54 -49 -18 -21 -58 -18 -72 5 -16 24 -68 28 -68 5 0 -9 11 -27 25 -40 20
-21 34 -25 80 -25 46 0 60 4 80 25 48 47 20 107 -55 120 -21 4 -46 12 -56 20
-15 11 -16 15 -5 29 19 22 58 20 73 -4 16 -26 58 -27 58 -2 0 52 -91 85 -150
55z"/>
<path d="M8814 13989 c-40 -12 -64 -39 -74 -86 -12 -52 3 -113 35 -140 38 -34
113 -32 154 3 38 32 41 64 7 64 -13 0 -30 -9 -37 -19 -37 -51 -96 -25 -106 46
-5 35 -2 45 20 67 33 33 52 33 81 1 28 -30 66 -34 66 -6 0 20 -46 71 -64 71
-6 0 -20 2 -31 4 -11 3 -34 1 -51 -5z"/>
<path d="M9444 13989 c-40 -11 -64 -39 -74 -84 -12 -54 -1 -102 30 -135 23
-25 36 -30 75 -30 87 0 125 39 125 128 0 64 -28 108 -77 121 -21 6 -40 11 -43
10 -3 0 -19 -5 -36 -10z m66 -49 c44 -24 43 -127 -2 -151 -63 -34 -116 72 -67
135 22 28 39 32 69 16z"/>
<path d="M9755 13993 c-11 -3 -26 -10 -32 -15 -9 -7 -13 -7 -13 1 0 6 -13 11
-30 11 l-30 0 0 -125 0 -125 30 0 30 0 0 83 c0 53 5 90 13 101 16 22 65 25 78
5 5 -8 9 -53 9 -101 l0 -88 30 0 30 0 0 99 c0 90 -2 102 -22 124 -24 26 -59
37 -93 30z"/>
<path d="M10106 13990 c-37 -11 -66 -38 -66 -62 0 -25 41 -24 63 2 27 32 68
24 81 -16 6 -20 2 -22 -48 -26 -74 -6 -106 -28 -106 -73 0 -47 29 -75 78 -75
21 0 48 7 60 16 20 14 22 14 22 0 0 -10 9 -16 25 -16 l25 0 0 103 c0 95 -2
105 -22 124 -28 25 -73 34 -112 23z"/>
<path d="M10385 13984 c-19 -10 -31 -11 -33 -5 -2 6 -15 11 -28 11 l-24 0 0
-125 0 -125 30 0 29 0 3 92 c3 87 4 93 28 105 20 10 29 10 45 -1 17 -12 20
-26 23 -105 l3 -91 31 0 30 0 -4 105 c-3 88 -7 108 -23 124 -29 28 -74 34
-110 15z"/>
<path d="M11005 13993 c-32 -8 -65 -44 -65 -71 0 -37 26 -60 87 -78 46 -13 54
-19 51 -37 -4 -31 -51 -35 -75 -8 -22 27 -63 28 -63 3 0 -35 42 -62 97 -62 65
0 103 27 103 75 0 40 -12 51 -81 73 -42 13 -54 22 -54 37 0 29 49 33 72 6 17
-21 48 -28 56 -13 8 12 -11 50 -30 60 -25 13 -74 21 -98 15z"/>
<path d="M11243 13985 c-17 -7 -39 -27 -47 -44 -31 -58 -12 -166 32 -190 31
-16 93 -13 114 6 17 15 18 14 18 -40 0 -57 0 -57 30 -57 l30 0 0 165 0 165
-30 0 c-21 0 -30 -5 -30 -16 0 -14 -1 -14 -16 0 -8 9 -21 16 -29 16 -7 0 -19
2 -27 5 -7 2 -27 -2 -45 -10z m92 -60 c66 -65 -9 -180 -77 -118 -26 23 -25 96
2 123 26 26 46 25 75 -5z"/>
<path d="M11813 13989 c-32 -9 -63 -42 -63 -66 0 -20 45 -15 65 7 22 24 48 26
69 4 28 -28 20 -44 -23 -44 -79 0 -121 -29 -121 -83 0 -56 97 -91 142 -50 17
15 18 15 18 -1 0 -13 7 -17 28 -14 26 3 27 5 30 75 3 84 -11 149 -36 162 -30
15 -76 20 -109 10z"/>
<path d="M12098 13986 c-16 -8 -28 -11 -28 -5 0 5 -14 9 -30 9 l-31 0 3 -122
3 -123 28 -3 27 -3 0 83 c0 92 10 115 50 120 19 2 25 9 25 27 0 30 -12 35 -47
17z"/>
<path d="M12244 13989 c-40 -11 -64 -39 -74 -86 -12 -52 3 -113 35 -140 38
-33 122 -32 159 2 14 13 26 31 26 40 0 21 -37 19 -67 -5 -33 -26 -49 -25 -78
5 -40 39 -32 45 60 45 l85 0 0 41 c0 31 -6 47 -29 70 -16 16 -36 29 -44 29 -9
0 -21 2 -29 4 -7 2 -27 0 -44 -5z"/>
<path d="M12623 13989 c-62 -18 -96 -96 -74 -169 16 -54 52 -80 112 -80 70 0
110 37 116 107 11 106 -59 170 -154 142z m77 -59 c14 -14 20 -33 20 -62 0 -49
-6 -60 -37 -77 -57 -29 -106 56 -72 122 23 42 57 49 89 17z"/>
<path d="M12935 13993 c-11 -3 -26 -10 -34 -17 -11 -8 -15 -8 -18 2 -3 6 -16
12 -29 12 l-24 0 0 -125 0 -125 30 0 29 0 3 92 c3 87 4 93 28 105 20 10 29 10
45 -1 17 -12 20 -26 23 -105 l3 -91 30 0 31 0 -4 105 c-2 89 -6 107 -23 124
-22 21 -60 31 -90 24z"/>
<path d="M13723 13985 c-55 -23 -79 -87 -63 -161 13 -57 49 -84 114 -84 42 0
58 5 80 25 14 13 26 31 26 40 0 21 -37 19 -67 -5 -33 -26 -49 -25 -78 5 -40
39 -32 45 60 45 l85 0 0 38 c0 47 -22 80 -66 98 -41 17 -50 17 -91 -1z"/>
<path d="M14403 13993 c-32 -6 -72 -51 -79 -90 -18 -97 29 -163 117 -163 42 0
55 5 79 28 74 75 35 210 -65 225 -16 2 -40 3 -52 0z m76 -69 c29 -37 27 -89
-4 -119 -29 -30 -49 -31 -75 -5 -14 14 -20 33 -20 65 0 77 58 111 99 59z"/>
<path d="M14676 13990 c-37 -11 -66 -38 -66 -62 0 -25 41 -24 63 2 27 32 68
24 81 -16 6 -20 2 -22 -48 -26 -74 -6 -106 -28 -106 -73 0 -47 29 -75 78 -75
21 0 48 7 60 16 20 14 22 14 22 0 0 -10 9 -16 25 -16 l25 0 0 103 c0 95 -2
105 -22 124 -28 25 -73 34 -112 23z"/>
<path d="M14948 13986 c-16 -8 -28 -11 -28 -5 0 5 -11 9 -25 9 l-25 0 0 -125
0 -125 30 0 30 0 0 88 c0 94 8 112 47 112 19 0 23 5 23 30 0 34 -11 37 -52 16z"/>
<path d="M15663 13989 c-62 -18 -96 -96 -74 -169 16 -54 52 -80 112 -80 70 0
110 37 116 107 11 106 -59 170 -154 142z m77 -59 c23 -23 28 -96 8 -122 -54
-68 -139 25 -97 105 23 42 57 49 89 17z"/>
<path d="M16020 13983 c-31 -16 -35 -23 -38 -60 -4 -48 15 -66 80 -78 46 -9
66 -29 48 -50 -18 -21 -58 -19 -72 5 -16 24 -68 28 -68 5 0 -9 11 -27 25 -40
20 -21 34 -25 80 -25 46 0 60 4 80 25 47 46 19 106 -57 120 -20 4 -45 13 -55
20 -15 11 -15 15 -4 29 19 22 58 20 73 -4 16 -26 58 -27 58 -2 0 52 -91 85
-150 55z"/>
<path d="M16453 13989 c-32 -9 -63 -42 -63 -66 0 -20 45 -15 65 7 22 24 48 26
69 4 28 -28 20 -44 -23 -44 -50 0 -99 -18 -111 -40 -16 -30 -12 -64 10 -88 26
-27 94 -30 122 -5 17 15 18 15 18 -1 0 -13 7 -17 28 -14 26 3 27 5 30 78 4 84
-10 145 -36 159 -30 15 -76 20 -109 10z"/>
<path d="M16732 13984 c-12 -8 -22 -10 -22 -5 0 6 -13 11 -30 11 l-30 0 0
-125 0 -125 30 0 30 0 0 88 c0 94 8 112 47 112 19 0 23 5 23 30 0 34 -14 38
-48 14z"/>
<path d="M17203 13985 c-18 -8 -33 -10 -33 -5 0 6 -13 10 -30 10 l-30 0 0
-165 0 -165 30 0 c30 0 30 0 30 57 0 54 1 55 18 40 21 -19 83 -22 114 -6 25
13 48 68 48 114 0 58 -25 104 -64 120 -42 18 -42 18 -83 0z m66 -61 c41 -52
17 -134 -39 -134 -59 0 -82 89 -35 135 31 32 48 31 74 -1z"/>
<path d="M17575 13990 c-34 -11 -55 -35 -55 -62 0 -24 35 -23 60 2 33 33 80
20 80 -21 0 -13 -12 -18 -56 -21 -67 -6 -98 -31 -96 -78 1 -46 27 -70 76 -70
23 0 52 7 64 16 20 14 22 14 22 0 0 -10 9 -16 25 -16 25 0 25 0 25 99 0 89 -2
103 -22 125 -26 29 -78 39 -123 26z"/>
<path d="M18255 13993 c-11 -3 -26 -10 -32 -15 -9 -7 -13 -7 -13 1 0 6 -13 11
-30 11 l-30 0 0 -125 0 -125 30 0 30 0 0 83 c0 53 5 90 13 101 16 22 65 25 78
5 5 -8 9 -53 9 -101 l0 -88 30 0 30 0 0 99 c0 90 -2 102 -22 124 -24 26 -59
37 -93 30z"/>
<path d="M18493 13993 c-12 -2 -34 -18 -48 -34 -44 -53 -29 -180 24 -209 29
-15 83 -12 109 6 20 14 22 14 22 -1 0 -54 -56 -79 -101 -46 -36 26 -69 28 -69
3 0 -33 37 -55 98 -60 52 -4 62 -1 90 23 l32 27 0 144 0 144 -25 0 c-17 0 -25
-6 -25 -17 0 -14 -2 -15 -17 -1 -21 18 -59 26 -90 21z m74 -58 c27 -19 37 -63
23 -101 -18 -47 -57 -59 -92 -27 -26 23 -25 96 2 123 24 24 38 25 67 5z"/>
<path d="M3290 13891 c0 -83 3 -102 20 -123 24 -32 65 -40 107 -23 18 8 33 10
33 4 0 -5 14 -9 30 -9 l30 0 0 125 0 125 -30 0 -30 0 0 -81 c0 -95 -10 -119
-48 -119 -45 0 -52 16 -52 112 l0 88 -30 0 -30 0 0 -99z"/>
<path d="M5551 13918 c51 -187 47 -178 79 -178 30 0 36 14 66 133 9 38 15 28
39 -56 19 -68 22 -72 51 -75 l31 -3 31 119 c18 66 32 123 32 126 0 4 -12 6
-27 4 -26 -3 -29 -8 -47 -87 -21 -93 -25 -91 -51 17 -16 68 -19 72 -46 72 -25
0 -30 -5 -43 -51 -9 -28 -18 -66 -22 -85 -8 -42 -13 -39 -25 18 -25 113 -28
118 -59 118 l-29 0 20 -72z"/>
<path d="M10560 13983 c0 -5 19 -63 42 -129 36 -104 40 -124 29 -138 -7 -9
-22 -16 -32 -16 -14 0 -19 -7 -19 -25 0 -22 4 -25 33 -25 22 0 41 8 55 23 17
18 122 283 122 309 0 4 -13 8 -28 8 -28 0 -30 -4 -56 -90 -15 -49 -29 -90 -31
-90 -2 0 -16 41 -31 90 -26 86 -28 90 -56 90 -15 0 -28 -3 -28 -7z"/>
<path d="M11470 13906 c0 -92 13 -141 40 -156 29 -16 92 -12 112 7 17 15 18
15 18 0 0 -11 8 -17 25 -17 l25 0 0 125 c0 125 0 125 -24 125 -23 0 -24 -3
-28 -84 -5 -93 -16 -116 -57 -116 -44 0 -51 16 -51 112 l0 88 -30 0 -30 0 0
-84z"/>
<path d="M17760 13984 c0 -4 18 -58 41 -121 44 -123 46 -159 6 -165 -14 -2
-23 -11 -25 -25 -3 -20 1 -23 32 -23 59 0 66 11 155 258 l30 82 -32 0 c-31 0
-32 -2 -56 -83 -13 -45 -27 -85 -31 -90 -3 -4 -18 33 -33 83 -26 87 -28 90
-57 90 -17 0 -30 -3 -30 -6z"/>
<path d="M19192 13925 c-32 -23 -123 -52 -186 -60 -31 -4 -56 -12 -56 -17 0
-5 14 -23 31 -40 22 -22 29 -38 26 -55 -3 -18 3 -28 30 -44 l35 -22 73 38 c41
20 82 46 92 58 11 12 0 7 -26 -11 -24 -18 -50 -32 -58 -32 -24 0 -13 35 18 52
18 11 38 36 50 63 31 69 17 101 -29 70z"/>
<path d="M12470 13273 c0 -37 -3 -44 -12 -35 -19 19 -73 14 -94 -9 -25 -28
-24 -101 1 -129 20 -22 74 -27 93 -8 9 9 12 9 12 0 0 -7 7 -12 15 -12 13 0 15
20 15 120 0 100 -2 120 -15 120 -11 0 -15 -12 -15 -47z"/>
<path d="M7990 13196 c0 -95 3 -116 15 -116 11 0 15 19 17 86 l3 86 60 -86
c33 -47 66 -86 73 -86 9 0 12 30 12 116 0 88 -3 115 -12 112 -8 -3 -15 -33
-18 -83 l-5 -78 -55 79 c-81 115 -90 112 -90 -30z"/>
<path d="M8727 13290 c-35 -27 -50 -83 -36 -132 14 -54 44 -78 96 -78 57 0 93
33 93 85 0 35 0 35 -45 35 -33 0 -45 -4 -45 -15 0 -10 10 -15 30 -15 43 0 39
-34 -7 -59 -27 -14 -67 0 -82 28 -16 29 -13 93 5 119 20 29 77 30 101 2 19
-21 43 -27 43 -10 0 6 -11 22 -25 35 -31 32 -91 34 -128 5z"/>
<path d="M10083 13286 c-25 -22 -28 -30 -28 -91 0 -61 3 -69 28 -91 38 -33
105 -33 135 -1 12 13 22 29 22 35 0 18 -30 15 -37 -4 -8 -20 -45 -34 -72 -27
-25 7 -51 51 -51 88 0 28 16 66 34 77 21 15 66 8 83 -12 19 -21 43 -27 43 -10
0 6 -11 22 -25 35 -33 34 -93 34 -132 1z"/>
<path d="M11210 13195 c0 -96 3 -115 15 -115 11 0 15 11 15 40 0 40 0 40 39
40 54 0 85 27 85 75 0 53 -30 75 -100 75 l-54 0 0 -115z"/>
<path d="M13102 13294 c-27 -19 -29 -64 -4 -87 9 -8 36 -20 60 -27 52 -14 64
-36 32 -62 -25 -20 -57 -16 -77 9 -6 8 -19 13 -28 11 -15 -3 -14 -6 5 -30 41
-53 150 -30 150 32 0 36 -20 57 -69 70 -21 5 -45 17 -52 26 -11 14 -10 19 9
34 23 19 54 17 73 -6 13 -16 39 -19 39 -4 0 5 -10 18 -22 30 -26 24 -84 27
-116 4z"/>
<path d="M13789 13281 c-25 -26 -29 -37 -29 -86 0 -49 4 -60 29 -86 24 -23 38
-29 73 -29 75 1 103 41 99 143 -2 45 -50 87 -101 87 -33 0 -48 -6 -71 -29z
m125 -23 c9 -12 16 -41 16 -64 0 -55 -26 -87 -70 -87 -44 0 -70 32 -70 87 0
59 22 86 70 86 29 0 43 -6 54 -22z"/>
<path d="M8225 13230 c-28 -31 -25 -108 4 -132 31 -24 83 -23 106 2 23 25 12
37 -19 21 -34 -19 -70 -11 -74 17 -3 21 0 22 52 22 55 0 56 1 56 28 0 16 -8
36 -18 45 -26 24 -85 22 -107 -3z"/>
<path d="M8370 13240 c0 -15 39 -152 44 -158 15 -14 34 12 46 62 7 31 16 54
19 50 3 -3 13 -29 21 -57 24 -79 42 -73 68 21 26 94 26 92 8 92 -8 0 -18 -22
-26 -60 -7 -33 -16 -58 -19 -55 -3 4 -13 30 -21 58 -22 74 -45 74 -61 2 -7
-31 -16 -58 -19 -60 -4 -3 -13 22 -20 55 -8 38 -18 60 -26 60 -8 0 -14 -5 -14
-10z"/>
<path d="M8924 13233 c-17 -17 -17 -18 0 -21 9 -2 23 2 31 8 19 16 55 3 55
-21 0 -15 -7 -19 -35 -19 -60 0 -86 -43 -52 -87 12 -16 51 -17 78 -3 13 7 19
7 19 0 0 -5 5 -10 10 -10 15 0 13 143 -2 158 -18 18 -84 15 -104 -5z"/>
<path d="M9070 13165 c0 -69 3 -85 15 -85 11 0 15 13 15 53 0 50 19 97 40 97
25 0 40 -34 40 -91 0 -33 4 -59 10 -59 6 0 10 24 10 53 0 55 20 97 45 97 22 0
35 -34 35 -94 0 -43 3 -56 15 -56 19 0 21 103 2 140 -14 28 -59 39 -83 19 -11
-9 -18 -9 -26 -1 -16 16 -61 15 -76 0 -9 -9 -12 -9 -12 0 0 7 -7 12 -15 12
-12 0 -15 -16 -15 -85z"/>
<path d="M9351 13224 c-45 -57 -12 -144 55 -144 36 0 90 40 65 48 -7 2 -18 -1
-24 -7 -18 -18 -65 -13 -77 8 -16 30 -14 31 50 31 56 0 60 2 60 23 0 67 -87
94 -129 41z"/>
<path d="M10454 13233 c-17 -17 -17 -18 0 -21 9 -2 23 2 31 8 19 16 55 3 55
-21 0 -15 -7 -19 -35 -19 -60 0 -86 -43 -52 -87 12 -16 51 -17 78 -3 13 7 19
7 19 0 0 -5 5 -10 10 -10 15 0 13 143 -2 158 -18 18 -84 15 -104 -5z"/>
<path d="M10796 13234 c-60 -59 -5 -172 69 -144 33 12 39 9 30 -19 -8 -27 -40
-36 -76 -21 -35 15 -46 9 -24 -14 21 -20 83 -20 110 0 17 13 20 29 23 114 3
86 2 100 -12 100 -9 0 -16 -5 -16 -12 0 -9 -3 -9 -12 0 -17 17 -74 15 -92 -4z"/>
<path d="M10971 13224 c-45 -57 -12 -144 55 -144 36 0 90 40 65 48 -7 2 -18
-1 -24 -7 -18 -18 -65 -13 -77 8 -16 30 -14 31 50 31 56 0 60 2 60 23 0 67
-87 94 -129 41z"/>
<path d="M11395 13230 c-16 -17 -16 -20 -2 -20 9 0 28 5 42 12 21 9 29 9 42
-4 21 -21 9 -38 -28 -38 -45 0 -69 -17 -69 -48 0 -16 5 -33 12 -40 15 -15 53
-16 79 -2 13 7 19 7 19 0 0 -5 7 -10 15 -10 19 0 21 103 2 140 -17 34 -84 41
-112 10z"/>
<path d="M11834 13238 c3 -7 14 -46 26 -85 13 -45 26 -73 35 -73 8 0 21 26 33
63 l19 62 18 -63 c23 -79 42 -79 66 -1 30 102 31 109 15 109 -16 0 -21 -12
-32 -73 -10 -56 -20 -53 -36 11 -18 73 -42 82 -58 20 -21 -85 -26 -87 -41 -23
-10 41 -20 61 -32 63 -10 2 -15 -2 -13 -10z"/>
<path d="M12086 13228 c-9 -12 -16 -42 -16 -65 0 -54 26 -83 75 -83 50 0 75
28 75 85 0 58 -25 85 -79 85 -30 0 -44 -6 -55 -22z"/>
<path d="M13345 13226 c-25 -38 -16 -104 17 -129 22 -16 31 -18 57 -9 28 10
31 9 31 -8 0 -30 -36 -44 -71 -29 -34 14 -48 6 -29 -16 18 -22 93 -20 113 3
24 26 25 212 2 212 -8 0 -15 -5 -15 -12 0 -9 -3 -9 -12 0 -22 22 -76 15 -93
-12z"/>
<path d="M4300 7360 l0 -4580 4580 0 4580 0 0 4580 0 4580 -4580 0 -4580 0 0
-4580z"/>
<path d="M15760 11060 l0 -760 939 0 939 0 5 -30 c4 -16 4 -66 0 -110 -5 -73
-4 -84 15 -110 14 -18 22 -44 22 -69 0 -22 5 -52 10 -67 6 -15 12 -74 13 -131
2 -84 6 -106 19 -114 14 -8 14 -13 2 -46 -17 -50 -17 -78 1 -93 8 -7 15 -24
15 -39 0 -14 4 -32 9 -40 13 -20 2 -48 -20 -54 -22 -6 -25 -33 -6 -56 19 -22
38 -96 31 -115 -3 -8 1 -29 10 -46 11 -24 13 -37 4 -55 -8 -18 -7 -30 5 -54
14 -28 14 -36 1 -67 -15 -35 -15 -35 26 -74 46 -44 50 -60 15 -60 -32 0 -32
-18 0 -30 23 -9 24 -13 20 -67 -12 -154 -14 -210 -6 -219 16 -17 29 -71 21
-84 -5 -8 -3 -22 5 -34 12 -16 12 -21 1 -30 -21 -17 -28 -72 -11 -86 8 -7 15
-29 15 -50 0 -26 6 -42 20 -51 18 -13 19 -17 7 -58 -7 -24 -21 -47 -30 -53 -9
-5 -17 -15 -17 -21 0 -9 -11 -12 -34 -9 -25 3 -35 -1 -40 -13 -12 -33 41 -64
59 -35 5 8 11 7 21 -1 21 -17 17 -73 -6 -94 -21 -19 -27 -45 -11 -45 5 0 11 7
15 15 6 17 42 20 51 5 4 -6 -3 -27 -15 -47 -18 -31 -19 -38 -7 -52 8 -9 18
-26 21 -38 6 -18 2 -25 -18 -35 -25 -11 -36 -38 -17 -38 5 0 22 -5 38 -11 25
-9 26 -12 11 -20 -10 -6 -18 -15 -18 -21 0 -6 8 -20 18 -31 17 -19 16 -20 -29
-13 -42 6 -47 5 -52 -15 -4 -15 1 -27 16 -40 12 -10 25 -18 28 -19 9 0 29 -49
29 -70 0 -11 -8 -20 -22 -22 -14 -2 -24 -13 -29 -30 -8 -31 -3 -33 35 -18 16
6 26 17 26 30 0 15 7 20 25 20 30 0 31 -14 9 -70 -23 -57 -14 -73 36 -65 36 6
39 5 33 -12 -4 -10 -17 -33 -30 -52 -12 -18 -20 -37 -17 -42 8 -13 42 -11 47
4 3 6 6 1 6 -12 1 -14 6 -39 12 -56 10 -26 9 -36 -6 -59 -10 -15 -29 -32 -41
-36 -50 -19 -68 -100 -23 -100 11 0 36 -7 57 -16 l37 -16 -32 -15 c-17 -9 -34
-25 -36 -35 -7 -24 19 -88 36 -89 6 0 2 -4 -11 -9 -31 -13 -37 -34 -17 -64 25
-38 56 -33 94 14 34 43 54 44 49 3 -2 -20 4 -29 30 -43 l33 -18 -26 -20 c-28
-22 -47 -104 -26 -116 7 -5 8 -13 2 -25 -14 -26 -1 -39 44 -41 70 -5 83 -1
101 28 9 16 33 35 53 42 20 7 52 23 71 35 19 12 46 26 60 30 14 4 41 20 60 34
36 28 145 99 215 141 22 13 63 40 90 61 28 20 73 49 102 64 29 15 60 35 70 44
10 9 42 31 70 49 29 17 62 41 73 52 35 35 57 31 295 -51 50 -17 104 -35 120
-39 17 -5 76 -25 132 -44 55 -19 122 -38 147 -41 26 -4 49 -11 52 -16 3 -5 52
-9 109 -9 90 0 106 -3 117 -19 21 -29 73 -51 140 -58 35 -3 75 -12 90 -19 15
-8 31 -14 36 -14 18 0 32 56 28 116 -4 60 -15 93 -43 126 -19 21 -10 48 14 48
19 0 63 -41 63 -57 0 -5 11 -20 25 -33 19 -17 25 -20 29 -9 38 126 37 118 38
518 0 223 -3 396 -9 402 -11 11 -80 -37 -88 -63 -4 -10 -20 -25 -36 -34 -35
-17 -44 -39 -54 -117 -5 -41 -13 -62 -27 -72 -16 -11 -22 -29 -27 -92 -4 -49
-10 -78 -18 -78 -19 0 -62 73 -69 118 -4 23 -11 45 -16 48 -5 3 -15 30 -23 60
-16 65 -43 140 -56 155 -5 6 -12 33 -16 60 -3 27 -12 58 -19 69 -6 11 -15 45
-19 75 -3 30 -10 69 -15 85 -5 17 -14 72 -20 124 -6 52 -14 99 -19 105 -5 6
-11 23 -15 38 -3 15 -17 43 -30 63 l-25 36 -18 -26 c-10 -14 -47 -63 -81 -108
-35 -45 -80 -106 -99 -134 -19 -29 -39 -53 -43 -53 -5 0 -12 -9 -15 -20 -3
-11 -12 -26 -18 -32 -7 -7 -25 -32 -41 -55 -16 -24 -33 -43 -37 -43 -5 0 -9
-5 -9 -10 0 -6 -26 -44 -57 -84 -32 -41 -92 -120 -133 -176 -41 -56 -82 -109
-91 -118 -8 -9 -38 -46 -65 -82 -27 -36 -52 -66 -56 -68 -5 -2 -8 -9 -8 -15 0
-7 -16 -28 -35 -47 -19 -19 -35 -38 -35 -42 0 -19 -51 -5 -88 24 -67 54 -245
201 -272 225 -89 78 -252 208 -288 231 -78 48 -99 73 -127 152 -66 184 -145
434 -175 550 -12 47 -28 105 -36 130 -8 25 -18 65 -23 90 -5 25 -19 81 -31
125 -30 109 -52 203 -110 465 -11 47 -24 103 -29 125 -21 83 -104 442 -114
490 -5 28 -15 70 -22 95 -7 25 -16 69 -20 99 -4 30 -13 68 -20 85 -7 17 -16
50 -20 74 l-7 42 1916 0 1916 0 0 760 0 760 -2900 0 -2900 0 0 -760z m5780 0
l0 -740 -2880 0 -2880 0 0 740 0 740 2880 0 2880 0 0 -740z"/>
<path d="M17640 11560 c0 -100 3 -120 15 -120 8 0 15 5 15 10 0 7 6 7 19 0 30
-16 59 -12 81 10 27 27 28 110 2 133 -22 20 -73 22 -90 5 -9 -9 -12 -2 -12 35
0 35 -4 47 -15 47 -12 0 -15 -20 -15 -120z"/>
<path d="M20420 11633 c0 -37 -3 -44 -12 -35 -19 19 -73 14 -92 -7 -20 -22
-24 -88 -7 -119 14 -27 55 -38 87 -23 15 6 24 7 24 1 0 -6 7 -10 15 -10 13 0
15 20 15 120 0 100 -2 120 -15 120 -11 0 -15 -12 -15 -47z"/>
<path d="M16980 11555 c0 -94 3 -115 15 -115 11 0 15 19 17 88 l3 87 60 -87
c33 -48 66 -88 73 -88 9 0 12 30 12 115 0 70 -4 115 -10 115 -6 0 -10 -35 -10
-86 0 -50 -4 -83 -9 -79 -5 3 -35 41 -65 85 -78 111 -86 108 -86 -35z"/>
<path d="M18567 11659 c-42 -25 -59 -116 -32 -169 19 -37 43 -50 92 -50 56 1
93 38 93 94 0 24 -3 26 -45 26 -33 0 -45 -4 -45 -15 0 -10 10 -15 30 -15 38 0
39 -21 3 -50 -29 -22 -66 -21 -91 4 -19 19 -26 82 -13 115 22 52 93 61 119 16
5 -10 17 -15 28 -13 17 3 16 7 -13 36 -25 25 -40 32 -70 32 -21 0 -46 -5 -56
-11z"/>
<path d="M19580 11555 c0 -70 4 -115 10 -115 6 0 10 18 10 40 0 40 0 40 39 40
53 0 91 31 91 75 0 47 -37 75 -101 75 l-49 0 0 -115z"/>
<path d="M17837 11593 c-27 -31 -26 -104 3 -133 25 -25 71 -26 101 -1 32 26
16 39 -21 18 -35 -21 -70 -9 -70 23 0 18 7 20 55 20 51 0 55 2 55 23 0 12 -7
33 -16 45 -19 28 -83 31 -107 5z"/>
<path d="M18187 11593 c-27 -31 -26 -104 3 -133 46 -46 130 -6 130 63 0 51
-33 87 -79 87 -23 0 -44 -7 -54 -17z"/>
<path d="M18760 11595 c-19 -22 -4 -31 26 -15 28 16 57 5 62 -24 3 -12 -4 -16
-27 -16 -55 0 -81 -16 -81 -50 0 -40 37 -59 81 -43 16 6 29 7 29 2 0 -5 5 -9
10 -9 15 0 13 143 -2 158 -17 17 -83 15 -98 -3z"/>
<path d="M18910 11525 c0 -68 3 -85 15 -85 11 0 15 16 17 66 2 49 7 70 20 77
31 20 48 -8 48 -79 0 -50 3 -64 15 -64 12 0 15 14 15 64 0 69 14 92 50 81 18
-6 20 -15 20 -76 0 -55 3 -69 15 -69 12 0 15 14 15 66 0 36 -5 74 -10 85 -11
20 -54 26 -79 10 -7 -5 -25 -4 -42 3 -22 8 -34 7 -49 -2 -12 -7 -20 -8 -20 -2
0 5 -7 10 -15 10 -12 0 -15 -16 -15 -85z"/>
<path d="M19190 11590 c-14 -14 -20 -33 -20 -65 0 -32 6 -51 20 -65 26 -26 81
-26 105 0 24 27 15 34 -20 16 -38 -20 -74 -4 -75 32 0 8 19 12 60 12 l60 0 -6
28 c-4 15 -14 35 -22 45 -21 24 -77 22 -102 -3z"/>
<path d="M19840 11595 c-19 -22 -4 -31 26 -15 28 16 57 5 62 -24 3 -12 -4 -16
-27 -16 -55 0 -81 -16 -81 -50 0 -40 37 -59 81 -43 16 6 29 7 29 2 0 -5 5 -9
10 -9 15 0 13 143 -2 158 -17 17 -83 15 -98 -3z"/>
<path d="M20150 11590 c-14 -14 -20 -33 -20 -65 0 -32 6 -51 20 -65 26 -26 81
-26 105 0 24 27 15 34 -20 16 -38 -20 -74 -4 -75 32 0 8 19 12 60 12 l60 0 -6
28 c-4 15 -14 35 -22 45 -21 24 -77 22 -102 -3z"/>
<path d="M18572 10854 c-17 -12 -22 -25 -22 -59 0 -34 5 -47 22 -59 29 -21 67
-20 90 1 17 15 18 15 18 -1 0 -25 -18 -54 -41 -66 -16 -9 -26 -8 -45 5 -35 23
-53 14 -26 -13 31 -31 82 -29 113 4 20 22 24 36 24 89 0 53 -4 67 -24 89 -28
30 -74 34 -109 10z"/>
<path d="M21193 8220 c-2 -49 2 -68 17 -88 11 -13 20 -35 20 -47 0 -12 7 -42
15 -66 10 -26 18 -96 21 -174 3 -71 10 -143 15 -160 14 -47 20 -233 8 -241
-17 -10 -20 -1 -29 82 -4 44 -15 95 -23 114 -8 19 -18 57 -22 85 -4 27 -13 61
-20 75 -7 14 -16 48 -20 75 -8 56 -35 144 -59 190 -9 17 -16 36 -16 43 0 17
-36 15 -65 -4 -14 -9 -32 -31 -40 -48 -9 -18 -29 -49 -47 -70 -34 -41 -48 -36
-48 20 0 16 -6 39 -14 50 -9 11 -12 30 -9 47 5 26 4 27 -35 27 -44 0 -42 4
-65 -98 -3 -13 1 -47 9 -75 57 -202 64 -240 64 -337 0 -55 -4 -130 -10 -167
-5 -38 -14 -113 -20 -168 -26 -254 -31 -291 -43 -315 -10 -20 -10 -30 0 -50
10 -18 13 -64 11 -170 l-3 -144 25 -12 c161 -78 209 -97 253 -103 87 -10 94 0
-178 -305 l-50 -57 -200 -50 c-110 -28 -270 -68 -355 -90 -85 -21 -184 -44
-220 -49 -60 -10 -120 -23 -310 -70 -41 -11 -102 -24 -135 -30 -33 -6 -186
-44 -340 -85 -312 -81 -443 -114 -622 -156 -67 -15 -143 -37 -170 -47 -54 -22
-185 -66 -253 -85 -30 -9 -48 -21 -55 -36 -9 -19 -15 -22 -45 -16 -19 3 -69 8
-110 12 -79 6 -102 1 -395 -85 -55 -16 -138 -39 -185 -52 -47 -12 -126 -36
-175 -51 -50 -16 -101 -29 -115 -29 -14 0 -52 -14 -85 -30 -70 -35 -80 -36
-122 -11 -45 28 -52 69 -20 124 20 34 42 52 104 85 43 23 107 65 143 92 36 28
85 64 110 82 25 17 53 40 62 52 16 20 16 22 -9 48 -15 15 -43 31 -62 34 -20 4
-40 10 -46 14 -5 4 -48 20 -95 35 -47 15 -105 35 -130 45 -25 10 -76 28 -115
39 -38 12 -101 34 -140 50 -38 16 -92 35 -120 44 -27 8 -95 31 -150 52 -55 20
-113 40 -130 45 -74 22 -131 44 -146 57 -11 9 -33 13 -60 11 -41 -3 -44 -5
-41 -30 2 -20 -1 -28 -11 -28 -27 0 -24 -23 10 -101 18 -42 33 -82 33 -88 0
-7 6 -22 14 -34 7 -12 21 -47 31 -77 21 -64 50 -146 75 -210 10 -25 28 -79 40
-120 12 -41 29 -84 36 -95 19 -26 18 -45 -3 -61 -17 -12 -16 -15 10 -42 27
-28 44 -82 26 -82 -5 0 -9 -4 -9 -9 0 -19 -45 -77 -75 -97 -41 -26 -39 -48 5
-54 45 -6 49 -28 11 -64 -26 -25 -28 -31 -19 -57 10 -30 35 -38 56 -17 9 9 12
8 12 -5 0 -9 -13 -23 -30 -32 -43 -22 -41 -68 5 -122 40 -47 41 -50 19 -74
-16 -17 -15 -21 11 -55 23 -29 26 -40 17 -58 -6 -13 -10 -52 -11 -88 0 -52 4
-69 19 -83 14 -13 17 -22 10 -40 -7 -18 -4 -27 11 -41 18 -16 18 -18 2 -36
-17 -19 -17 -20 0 -29 24 -14 21 -23 -13 -36 -38 -14 -38 -32 0 -46 19 -7 31
-20 35 -38 4 -15 13 -30 21 -33 8 -3 14 -16 14 -28 0 -13 7 -41 14 -63 9 -26
11 -46 5 -57 -6 -11 -5 -21 4 -30 32 -31 37 -55 22 -92 -12 -29 -13 -40 -3
-56 10 -15 10 -24 1 -38 -6 -10 -9 -30 -6 -44 3 -14 0 -29 -6 -32 -6 -4 -11
-20 -11 -35 0 -23 6 -30 33 -37 24 -7 33 -16 35 -36 2 -15 11 -30 20 -33 36
-12 74 -55 69 -77 -3 -12 -2 -29 4 -39 7 -14 0 -28 -32 -66 -23 -26 -48 -49
-55 -51 -8 -2 -18 -21 -24 -43 -6 -22 -20 -45 -30 -52 -24 -15 -25 -21 -3 -74
14 -33 28 -47 67 -67 l49 -26 -2 -60 c-1 -35 2 -60 7 -60 6 0 20 -16 32 -35
13 -20 30 -35 41 -35 10 0 24 -9 31 -20 7 -11 17 -20 21 -20 9 0 203 -154 222
-176 6 -6 46 -37 90 -69 145 -105 295 -228 295 -242 0 -7 -6 -15 -12 -18 -7
-2 -54 -15 -104 -29 -51 -14 -114 -39 -140 -57 -51 -33 -148 -98 -193 -128
-90 -61 -137 -91 -146 -91 -6 0 -44 -17 -85 -39 -99 -50 -154 -59 -214 -32
-47 22 -91 28 -81 11 3 -5 14 -10 23 -10 10 0 25 -9 35 -20 9 -11 24 -20 32
-20 16 0 30 -42 22 -64 -7 -17 -280 -198 -407 -271 -47 -27 -92 -54 -100 -60
-8 -7 -35 -24 -60 -37 -25 -14 -70 -39 -100 -57 -74 -44 -59 -35 -285 -166
-110 -64 -207 -120 -215 -125 -117 -70 -122 -72 -217 -79 -84 -6 -96 -9 -119
-34 -29 -31 -59 -34 -112 -10 -28 13 -82 18 -217 24 -99 4 -217 10 -261 14
-86 8 -134 2 -134 -16 0 -6 9 -22 20 -36 11 -14 20 -34 20 -45 0 -10 10 -22
23 -27 28 -11 70 -68 63 -87 -3 -8 -2 -14 2 -14 5 0 19 -10 32 -22 23 -21 32
-23 131 -20 l107 3 36 -38 c39 -42 44 -63 20 -87 -28 -28 -48 -34 -92 -26 -36
6 -45 4 -67 -16 -14 -13 -25 -29 -25 -36 0 -14 -136 -287 -170 -343 -12 -19
-17 -35 -11 -35 6 0 11 -4 11 -10 0 -7 -153 -10 -440 -10 -242 0 -440 3 -440
8 1 4 34 22 75 41 74 34 120 76 93 86 -7 2 -132 6 -278 9 -256 4 -267 5 -332
30 -37 14 -75 30 -85 35 -26 15 -111 51 -118 51 -4 0 -21 6 -38 14 -64 29
-458 195 -532 224 -22 9 -73 31 -113 49 -40 18 -75 33 -79 33 -6 0 -263 111
-353 152 -25 12 -70 32 -100 45 -30 13 -73 33 -95 43 -75 34 -138 60 -146 60
-11 0 -359 133 -434 166 -16 7 -82 34 -145 59 -63 25 -123 50 -132 55 -10 6
-23 10 -30 10 -7 0 -26 7 -43 16 -16 8 -66 27 -110 42 -44 15 -86 32 -93 39
-7 7 -18 13 -22 13 -14 0 -46 -53 -35 -57 6 -2 24 -12 40 -23 17 -11 39 -25
50 -32 11 -7 23 -18 28 -25 4 -6 19 -14 35 -18 16 -3 57 -38 107 -90 43 -47
86 -85 95 -85 16 0 180 -164 180 -180 0 -4 11 -18 24 -32 17 -20 30 -25 51
-20 26 4 27 3 21 -21 -5 -20 0 -30 20 -46 15 -12 33 -21 40 -21 8 0 16 -12 19
-27 13 -62 21 -78 40 -76 26 2 57 -21 75 -58 8 -17 33 -41 54 -53 22 -11 47
-27 55 -34 10 -10 28 -12 58 -7 41 6 43 5 43 -19 0 -19 -7 -27 -25 -32 -33 -8
-36 -58 -4 -74 11 -7 29 -20 40 -31 10 -10 23 -19 29 -19 5 0 16 -14 25 -30
13 -26 21 -30 56 -30 59 0 95 -25 111 -77 12 -40 36 -64 26 -25 -4 14 7 21 54
36 55 18 61 18 76 2 14 -13 14 -20 4 -36 -12 -20 -9 -20 138 -20 93 0 150 -4
150 -10 0 -7 -2001 -10 -5983 -10 -5849 0 -5984 0 -6020 19 l-37 19 0 -39 0
-39 11160 0 11160 0 0 720 c0 473 -3 720 -10 720 -5 0 -10 8 -10 19 0 10 -11
39 -25 65 -14 26 -25 51 -25 57 0 5 -22 38 -49 72 -26 35 -52 74 -56 88 -4 13
-16 36 -26 51 -11 14 -19 29 -19 32 0 4 -12 25 -27 48 -16 23 -36 53 -45 67
-9 14 -38 69 -64 121 -26 52 -59 114 -74 137 -16 22 -31 50 -34 61 -4 11 -13
26 -21 32 -22 19 -19 86 5 110 11 11 28 20 38 20 32 0 33 13 2 26 -23 10 -30
19 -30 41 0 16 6 37 14 48 7 11 16 44 19 74 4 29 13 63 20 75 8 11 17 36 20
55 4 18 16 49 28 67 18 29 23 32 41 23 27 -15 48 -4 48 24 0 29 -18 47 -47 47
-27 0 -28 8 -8 46 8 16 15 43 15 59 0 17 10 51 22 77 21 43 24 46 53 41 16 -3
34 -6 39 -7 6 0 11 7 14 16 2 12 -5 17 -25 20 -21 2 -29 9 -31 27 -6 37 6 68
28 74 17 4 19 11 14 54 -5 39 -2 56 15 83 12 21 18 43 15 56 -3 13 -2 30 3 39
8 14 11 14 27 -4 16 -17 17 -23 6 -36 -11 -13 -9 -19 9 -38 11 -13 21 -33 21
-45 0 -27 18 -38 26 -17 4 9 17 20 29 25 28 11 35 63 34 233 l-1 117 -25 0
c-13 0 -22 4 -19 9 3 5 15 7 26 4 19 -5 20 0 20 145 0 90 4 153 10 157 7 4 10
407 10 1176 0 773 -3 1169 -10 1169 -5 0 -10 9 -10 20 0 17 -7 20 -47 20 -90
0 -111 18 -82 72 7 12 14 43 18 70 l6 48 38 -19 c71 -36 67 -39 67 55 0 83 -1
85 -22 82 -35 -5 -38 39 -4 52 l26 10 0 405 0 405 -27 -16 c-74 -45 -103 -68
-108 -84 -9 -29 -42 -31 -60 -4 -23 35 -44 30 -90 -23 -25 -29 -46 -44 -53
-39 -14 8 -16 138 -3 205 7 32 4 57 -8 94 -16 51 -17 51 -93 82 -42 17 -83 36
-90 42 -7 5 -40 20 -73 32 -33 12 -73 28 -90 35 -71 31 -141 56 -156 56 -8 0
-24 7 -35 15 -10 8 -27 15 -36 15 -16 0 -17 -7 -11 -62 3 -35 14 -80 24 -100
11 -21 19 -47 19 -58 0 -11 9 -37 19 -58 13 -25 20 -64 22 -125 4 -77 2 -87
-13 -87 -20 0 -38 29 -38 62 -1 13 -9 41 -20 63 -11 22 -19 59 -20 81 0 23
-10 63 -21 89 -18 40 -20 59 -15 117 4 40 3 68 -2 68 -11 0 -28 40 -37 87 -3
17 -15 48 -26 69 -10 21 -19 44 -19 51 0 7 -4 13 -10 13 -5 0 -16 14 -22 31
-13 30 -13 29 -15 -31z m-216 -4007 c-8 -15 -18 -44 -21 -63 -9 -47 -47 -173
-56 -185 -4 -5 -11 -30 -15 -55 -4 -25 -11 -49 -15 -55 -4 -5 -19 -50 -35
-100 -36 -119 -67 -208 -76 -220 -4 -5 -12 -30 -18 -55 -7 -25 -16 -54 -21
-65 -5 -11 -22 -54 -38 -95 -21 -57 -33 -76 -49 -78 -44 -6 -36 65 16 146 16
26 37 72 46 102 10 30 40 120 67 200 27 80 54 163 60 185 5 22 14 49 19 60 5
11 22 58 38 105 16 47 37 103 45 125 8 22 15 47 16 56 0 9 6 19 14 22 7 3 17
23 22 44 l8 38 4 -42 c2 -23 -3 -54 -11 -70z m-2287 -671 c0 -4 21 -24 48 -44
26 -21 58 -47 72 -60 14 -13 49 -43 79 -67 29 -25 71 -61 91 -81 21 -21 69
-64 107 -96 70 -61 93 -86 105 -116 19 -46 -55 -15 -132 57 -116 107 -400 398
-400 409 0 3 7 6 15 6 8 0 15 -4 15 -8z m226 -568 c24 -14 44 -29 44 -34 0 -4
26 -27 58 -51 76 -57 98 -81 114 -126 9 -27 64 -89 193 -218 156 -156 192
-186 267 -228 54 -29 98 -62 115 -84 16 -20 45 -56 67 -80 35 -38 37 -46 28
-70 -6 -16 -13 -41 -17 -58 -8 -36 -42 -75 -66 -75 -27 0 -91 30 -129 60 -26
20 -163 71 -504 184 -258 86 -477 156 -487 156 -18 0 -37 -31 -69 -114 -21
-53 -20 -94 6 -202 13 -57 11 -94 -5 -94 -3 0 -13 6 -22 13 -29 22 -44 88 -45
207 -1 63 -5 176 -9 250 -5 92 -4 157 4 205 24 139 25 154 7 173 -28 32 -31
77 -6 100 23 21 127 61 225 86 133 33 174 33 231 0z m-197 -1438 c15 -18 4
-45 -23 -51 -108 -22 -191 -38 -246 -46 -36 -5 -81 -14 -100 -18 -55 -14 -184
-22 -198 -13 -20 13 53 36 273 88 105 24 195 46 200 48 23 10 83 5 94 -8z"/>
<path d="M22250 8262 c0 -4 4 -21 9 -39 l9 -31 -44 13 c-25 7 -51 18 -58 24
-23 19 -46 -57 -46 -149 0 -44 4 -80 9 -80 5 0 11 5 13 11 6 17 38 -2 38 -22
0 -10 -9 -24 -20 -31 -11 -7 -20 -21 -20 -32 0 -11 -7 -27 -16 -37 -16 -17
-22 -98 -9 -119 10 -15 25 -12 25 6 0 9 9 18 20 21 11 3 20 12 20 19 0 8 10
14 26 14 25 0 25 0 -11 -33 -53 -49 -41 -67 41 -64 l64 2 0 246 c0 210 -2 248
-15 253 -8 3 -15 12 -15 21 0 8 -4 15 -10 15 -5 0 -10 -3 -10 -8z"/>
<path d="M13618 3012 c-5 -19 19 -100 35 -120 7 -9 1 -23 -20 -50 l-30 -37 43
-34 c24 -18 41 -38 37 -44 -3 -5 -5 -31 -4 -56 1 -49 16 -68 76 -97 17 -8 37
-18 45 -23 47 -29 104 -51 130 -51 38 0 211 30 228 39 8 5 -4 18 -37 40 -28
17 -60 46 -73 64 -32 46 -42 53 -154 107 -91 44 -154 93 -154 121 0 13 -68
109 -96 136 -20 20 -23 21 -26 5z"/>
<path d="M14625 2219 c21 -24 58 -59 81 -77 23 -18 45 -40 48 -47 3 -8 23 -23
44 -34 22 -11 42 -27 45 -35 7 -17 240 -136 267 -136 9 0 27 11 39 24 20 21
23 35 23 91 0 54 -5 71 -22 90 -25 27 -306 133 -388 146 -32 6 -84 12 -117 16
l-60 6 40 -44z"/>
<path d="M15589 2158 c-7 -13 -25 -36 -41 -52 -31 -33 -36 -67 -12 -87 8 -7
26 -34 40 -60 26 -52 67 -95 99 -105 11 -4 31 -15 44 -25 13 -11 31 -19 39
-19 8 0 39 -12 69 -26 53 -26 54 -26 98 -10 24 10 60 28 80 42 46 31 127 74
140 74 5 0 18 24 28 53 l17 52 -26 20 c-23 18 -41 20 -214 20 -216 0 -217 0
-280 93 -38 56 -63 65 -81 30z"/>
<path d="M14080 2025 c7 -8 17 -15 22 -15 5 0 24 -11 41 -24 18 -13 86 -52
152 -86 66 -34 125 -67 132 -72 6 -5 74 -34 150 -64 96 -38 162 -58 218 -65
44 -5 102 -14 128 -19 93 -19 115 -12 145 46 20 38 4 62 -47 74 -25 5 -77 19
-116 30 -38 10 -104 28 -145 39 -41 11 -111 30 -155 41 -44 12 -99 26 -123 31
-23 5 -50 12 -60 17 -9 5 -39 12 -66 16 -27 3 -55 11 -61 16 -7 6 -43 14 -81
19 -37 4 -70 13 -72 19 -2 7 -20 12 -39 12 -30 0 -34 -2 -23 -15z"/>
<path d="M13816 1947 c-17 -51 -17 -54 1 -92 19 -40 44 -59 160 -114 61 -29
68 -30 255 -36 l193 -7 -25 24 c-13 12 -69 45 -125 73 -55 28 -118 61 -140 74
-22 13 -80 44 -130 68 -49 24 -98 48 -107 53 -42 24 -63 13 -82 -43z"/>
<path d="M128 1944 c-13 -13 -14 -21 -6 -40 6 -13 19 -24 30 -24 33 0 18 -27
-23 -40 -39 -13 -79 -54 -66 -67 4 -3 40 -8 81 -11 73 -4 76 -4 105 25 l30 30
-37 19 c-53 27 -83 59 -91 94 -6 29 -7 30 -23 14z"/>
<path d="M0 1113 c0 -92 1 -96 16 -75 l16 23 21 -28 c11 -15 22 -30 24 -32 1
-2 18 -5 37 -6 19 -1 42 -10 51 -19 17 -17 109 -23 119 -8 2 4 -3 18 -12 30
-14 18 -30 23 -87 28 -95 8 -98 9 -84 35 13 26 -1 39 -42 39 -30 0 -39 15 -39
65 0 19 -4 37 -10 40 -6 4 -10 -29 -10 -92z"/>
</g>
</svg>
